%TF.GenerationSoftware,KiCad,Pcbnew,(6.0.8)*%
%TF.CreationDate,2022-10-31T00:07:24-07:00*%
%TF.ProjectId,f1_plate2,66315f70-6c61-4746-9532-2e6b69636164,rev?*%
%TF.SameCoordinates,Original*%
%TF.FileFunction,OtherDrawing,Comment*%
%FSLAX46Y46*%
G04 Gerber Fmt 4.6, Leading zero omitted, Abs format (unit mm)*
G04 Created by KiCad (PCBNEW (6.0.8)) date 2022-10-31 00:07:24*
%MOMM*%
%LPD*%
G01*
G04 APERTURE LIST*
%ADD10C,0.378446*%
%ADD11C,0.315372*%
G04 APERTURE END LIST*
D10*
X74046798Y-181074073D02*
X74046798Y-178046500D01*
X75603836Y-181074073D01*
X75603836Y-178046500D01*
X77290627Y-181074073D02*
X77031120Y-180929903D01*
X76901367Y-180785733D01*
X76771614Y-180497393D01*
X76771614Y-179632372D01*
X76901367Y-179344032D01*
X77031120Y-179199862D01*
X77290627Y-179055691D01*
X77679886Y-179055691D01*
X77939392Y-179199862D01*
X78069146Y-179344032D01*
X78198899Y-179632372D01*
X78198899Y-180497393D01*
X78069146Y-180785733D01*
X77939392Y-180929903D01*
X77679886Y-181074073D01*
X77290627Y-181074073D01*
X79107171Y-179055691D02*
X79755936Y-181074073D01*
X80404702Y-179055691D01*
X81442727Y-180785733D02*
X81572480Y-180929903D01*
X81442727Y-181074073D01*
X81312974Y-180929903D01*
X81442727Y-180785733D01*
X81442727Y-181074073D01*
X84686556Y-178334841D02*
X84816309Y-178190671D01*
X85075815Y-178046500D01*
X85724581Y-178046500D01*
X85984087Y-178190671D01*
X86113840Y-178334841D01*
X86243594Y-178623181D01*
X86243594Y-178911521D01*
X86113840Y-179344032D01*
X84556803Y-181074073D01*
X86243594Y-181074073D01*
X87930384Y-178046500D02*
X88189891Y-178046500D01*
X88449397Y-178190671D01*
X88579150Y-178334841D01*
X88708903Y-178623181D01*
X88838656Y-179199862D01*
X88838656Y-179920712D01*
X88708903Y-180497393D01*
X88579150Y-180785733D01*
X88449397Y-180929903D01*
X88189891Y-181074073D01*
X87930384Y-181074073D01*
X87670878Y-180929903D01*
X87541125Y-180785733D01*
X87411372Y-180497393D01*
X87281619Y-179920712D01*
X87281619Y-179199862D01*
X87411372Y-178623181D01*
X87541125Y-178334841D01*
X87670878Y-178190671D01*
X87930384Y-178046500D01*
X90136188Y-180929903D02*
X90136188Y-181074073D01*
X90006435Y-181362414D01*
X89876682Y-181506584D01*
X93250263Y-178334841D02*
X93380016Y-178190671D01*
X93639523Y-178046500D01*
X94288288Y-178046500D01*
X94547795Y-178190671D01*
X94677548Y-178334841D01*
X94807301Y-178623181D01*
X94807301Y-178911521D01*
X94677548Y-179344032D01*
X93120510Y-181074073D01*
X94807301Y-181074073D01*
X96494092Y-178046500D02*
X96753598Y-178046500D01*
X97013104Y-178190671D01*
X97142858Y-178334841D01*
X97272611Y-178623181D01*
X97402364Y-179199862D01*
X97402364Y-179920712D01*
X97272611Y-180497393D01*
X97142858Y-180785733D01*
X97013104Y-180929903D01*
X96753598Y-181074073D01*
X96494092Y-181074073D01*
X96234586Y-180929903D01*
X96104832Y-180785733D01*
X95975079Y-180497393D01*
X95845326Y-179920712D01*
X95845326Y-179199862D01*
X95975079Y-178623181D01*
X96104832Y-178334841D01*
X96234586Y-178190671D01*
X96494092Y-178046500D01*
X98440389Y-178334841D02*
X98570142Y-178190671D01*
X98829648Y-178046500D01*
X99478414Y-178046500D01*
X99737920Y-178190671D01*
X99867674Y-178334841D01*
X99997427Y-178623181D01*
X99997427Y-178911521D01*
X99867674Y-179344032D01*
X98310636Y-181074073D01*
X99997427Y-181074073D01*
X101035452Y-178334841D02*
X101165205Y-178190671D01*
X101424711Y-178046500D01*
X102073477Y-178046500D01*
X102332983Y-178190671D01*
X102462736Y-178334841D01*
X102592490Y-178623181D01*
X102592490Y-178911521D01*
X102462736Y-179344032D01*
X100905699Y-181074073D01*
X102592490Y-181074073D01*
X75373485Y-170726350D02*
X75373485Y-172888903D01*
X75243732Y-173321413D01*
X74984226Y-173609753D01*
X74594966Y-173753923D01*
X74335460Y-173753923D01*
X77838795Y-171735541D02*
X77838795Y-173753923D01*
X76671016Y-171735541D02*
X76671016Y-173321413D01*
X76800770Y-173609753D01*
X77060276Y-173753923D01*
X77449535Y-173753923D01*
X77709042Y-173609753D01*
X77838795Y-173465583D01*
X79136326Y-171735541D02*
X79136326Y-173753923D01*
X79136326Y-172023882D02*
X79266079Y-171879712D01*
X79525586Y-171735541D01*
X79914845Y-171735541D01*
X80174351Y-171879712D01*
X80304104Y-172168052D01*
X80304104Y-173753923D01*
X81601636Y-173465583D02*
X81731389Y-173609753D01*
X81601636Y-173753923D01*
X81471883Y-173609753D01*
X81601636Y-173465583D01*
X81601636Y-173753923D01*
X86402502Y-173753923D02*
X84845464Y-173753923D01*
X85623983Y-173753923D02*
X85623983Y-170726350D01*
X85364477Y-171158861D01*
X85104971Y-171447201D01*
X84845464Y-171591371D01*
X87310774Y-170726350D02*
X89127318Y-170726350D01*
X87959540Y-173753923D01*
X90295096Y-173609753D02*
X90295096Y-173753923D01*
X90165343Y-174042264D01*
X90035590Y-174186434D01*
X93409172Y-171014691D02*
X93538925Y-170870521D01*
X93798431Y-170726350D01*
X94447197Y-170726350D01*
X94706703Y-170870521D01*
X94836456Y-171014691D01*
X94966210Y-171303031D01*
X94966210Y-171591371D01*
X94836456Y-172023882D01*
X93279419Y-173753923D01*
X94966210Y-173753923D01*
X96653000Y-170726350D02*
X96912507Y-170726350D01*
X97172013Y-170870521D01*
X97301766Y-171014691D01*
X97431519Y-171303031D01*
X97561272Y-171879712D01*
X97561272Y-172600562D01*
X97431519Y-173177243D01*
X97301766Y-173465583D01*
X97172013Y-173609753D01*
X96912507Y-173753923D01*
X96653000Y-173753923D01*
X96393494Y-173609753D01*
X96263741Y-173465583D01*
X96133988Y-173177243D01*
X96004235Y-172600562D01*
X96004235Y-171879712D01*
X96133988Y-171303031D01*
X96263741Y-171014691D01*
X96393494Y-170870521D01*
X96653000Y-170726350D01*
X99248063Y-170726350D02*
X99507570Y-170726350D01*
X99767076Y-170870521D01*
X99896829Y-171014691D01*
X100026582Y-171303031D01*
X100156335Y-171879712D01*
X100156335Y-172600562D01*
X100026582Y-173177243D01*
X99896829Y-173465583D01*
X99767076Y-173609753D01*
X99507570Y-173753923D01*
X99248063Y-173753923D01*
X98988557Y-173609753D01*
X98858804Y-173465583D01*
X98729051Y-173177243D01*
X98599298Y-172600562D01*
X98599298Y-171879712D01*
X98729051Y-171303031D01*
X98858804Y-171014691D01*
X98988557Y-170870521D01*
X99248063Y-170726350D01*
X101064607Y-170726350D02*
X102881151Y-170726350D01*
X101713373Y-173753923D01*
D11*
X27602377Y-177247597D02*
X27926760Y-177367739D01*
X28467398Y-177367739D01*
X28683653Y-177247597D01*
X28791781Y-177127455D01*
X28899908Y-176887172D01*
X28899908Y-176646888D01*
X28791781Y-176406605D01*
X28683653Y-176286463D01*
X28467398Y-176166321D01*
X28034887Y-176046179D01*
X27818632Y-175926038D01*
X27710504Y-175805896D01*
X27602377Y-175565612D01*
X27602377Y-175325329D01*
X27710504Y-175085045D01*
X27818632Y-174964904D01*
X28034887Y-174844762D01*
X28575525Y-174844762D01*
X28899908Y-174964904D01*
X29873057Y-176046179D02*
X30629950Y-176046179D01*
X30954333Y-177367739D02*
X29873057Y-177367739D01*
X29873057Y-174844762D01*
X30954333Y-174844762D01*
X32684375Y-176046179D02*
X33008758Y-176166321D01*
X33116885Y-176286463D01*
X33225013Y-176526746D01*
X33225013Y-176887172D01*
X33116885Y-177127455D01*
X33008758Y-177247597D01*
X32792502Y-177367739D01*
X31927482Y-177367739D01*
X31927482Y-174844762D01*
X32684375Y-174844762D01*
X32900630Y-174964904D01*
X33008758Y-175085045D01*
X33116885Y-175325329D01*
X33116885Y-175565612D01*
X33008758Y-175805896D01*
X32900630Y-175926038D01*
X32684375Y-176046179D01*
X31927482Y-176046179D01*
X34090034Y-176646888D02*
X35171310Y-176646888D01*
X33873779Y-177367739D02*
X34630672Y-174844762D01*
X35387565Y-177367739D01*
X36036331Y-177247597D02*
X36360714Y-177367739D01*
X36901352Y-177367739D01*
X37117607Y-177247597D01*
X37225735Y-177127455D01*
X37333862Y-176887172D01*
X37333862Y-176646888D01*
X37225735Y-176406605D01*
X37117607Y-176286463D01*
X36901352Y-176166321D01*
X36468842Y-176046179D01*
X36252586Y-175926038D01*
X36144459Y-175805896D01*
X36036331Y-175565612D01*
X36036331Y-175325329D01*
X36144459Y-175085045D01*
X36252586Y-174964904D01*
X36468842Y-174844762D01*
X37009480Y-174844762D01*
X37333862Y-174964904D01*
X37982628Y-174844762D02*
X39280160Y-174844762D01*
X38631394Y-177367739D02*
X38631394Y-174844762D01*
X40037053Y-177367739D02*
X40037053Y-174844762D01*
X41010202Y-176646888D02*
X42091478Y-176646888D01*
X40793946Y-177367739D02*
X41550840Y-174844762D01*
X42307733Y-177367739D01*
X43064626Y-177367739D02*
X43064626Y-174844762D01*
X44362158Y-177367739D01*
X44362158Y-174844762D01*
X46849093Y-174844762D02*
X47605986Y-177367739D01*
X48362880Y-174844762D01*
X49119773Y-176046179D02*
X49876666Y-176046179D01*
X50201049Y-177367739D02*
X49119773Y-177367739D01*
X49119773Y-174844762D01*
X50201049Y-174844762D01*
X50849815Y-174844762D02*
X52147346Y-174844762D01*
X51498581Y-177367739D02*
X51498581Y-174844762D01*
X52579857Y-174844762D02*
X53877388Y-174844762D01*
X53228622Y-177367739D02*
X53228622Y-174844762D01*
X54634282Y-176046179D02*
X55391175Y-176046179D01*
X55715558Y-177367739D02*
X54634282Y-177367739D01*
X54634282Y-174844762D01*
X55715558Y-174844762D01*
X57769982Y-177367739D02*
X56688706Y-177367739D01*
X56688706Y-174844762D01*
M02*
