%TF.GenerationSoftware,KiCad,Pcbnew,(6.0.8)*%
%TF.CreationDate,2022-10-30T16:32:21-07:00*%
%TF.ProjectId,f1_plate1,66315f70-6c61-4746-9531-2e6b69636164,rev?*%
%TF.SameCoordinates,Original*%
%TF.FileFunction,OtherDrawing,Comment*%
%FSLAX46Y46*%
G04 Gerber Fmt 4.6, Leading zero omitted, Abs format (unit mm)*
G04 Created by KiCad (PCBNEW (6.0.8)) date 2022-10-30 16:32:21*
%MOMM*%
%LPD*%
G01*
G04 APERTURE LIST*
%ADD10C,0.050000*%
G04 APERTURE END LIST*
D10*
X86918436Y-141518391D02*
X86916284Y-141392316D01*
X86924891Y-141644319D02*
X86918436Y-141518391D01*
X86935642Y-141769953D02*
X86924891Y-141644319D01*
X86950676Y-141895147D02*
X86935642Y-141769953D01*
X86969976Y-142019754D02*
X86950676Y-141895147D01*
X86993518Y-142143630D02*
X86969976Y-142019754D01*
X87021276Y-142266630D02*
X86993518Y-142143630D01*
X87053217Y-142388611D02*
X87021276Y-142266630D01*
X87089305Y-142509430D02*
X87053217Y-142388611D01*
X87129496Y-142628946D02*
X87089305Y-142509430D01*
X87173744Y-142747021D02*
X87129496Y-142628946D01*
X87221997Y-142863516D02*
X87173744Y-142747021D01*
X87274200Y-142978296D02*
X87221997Y-142863516D01*
X87330291Y-143091226D02*
X87274200Y-142978296D01*
X87390205Y-143202176D02*
X87330291Y-143091226D01*
X87453872Y-143311016D02*
X87390205Y-143202176D01*
X87521218Y-143417618D02*
X87453872Y-143311016D01*
X87592164Y-143521859D02*
X87521218Y-143417618D01*
X87666627Y-143623617D02*
X87592164Y-143521859D01*
X87744521Y-143722773D02*
X87666627Y-143623617D01*
X87825756Y-143819212D02*
X87744521Y-143722773D01*
X87910235Y-143912822D02*
X87825756Y-143819212D01*
X87997861Y-144003493D02*
X87910235Y-143912822D01*
X88088532Y-144091119D02*
X87997861Y-144003493D01*
X88182141Y-144175598D02*
X88088532Y-144091119D01*
X88278581Y-144256832D02*
X88182141Y-144175598D01*
X88377737Y-144334727D02*
X88278581Y-144256832D01*
X88479495Y-144409190D02*
X88377737Y-144334727D01*
X88583736Y-144480136D02*
X88479495Y-144409190D01*
X88690338Y-144547482D02*
X88583736Y-144480136D01*
X88799178Y-144611149D02*
X88690338Y-144547482D01*
X88910128Y-144671063D02*
X88799178Y-144611149D01*
X89023058Y-144727154D02*
X88910128Y-144671063D01*
X89137838Y-144779357D02*
X89023058Y-144727154D01*
X89254333Y-144827610D02*
X89137838Y-144779357D01*
X89372408Y-144871858D02*
X89254333Y-144827610D01*
X89491924Y-144912049D02*
X89372408Y-144871858D01*
X89612743Y-144948136D02*
X89491924Y-144912049D01*
X89734724Y-144980078D02*
X89612743Y-144948136D01*
X89857724Y-145007836D02*
X89734724Y-144980078D01*
X89981600Y-145031378D02*
X89857724Y-145007836D01*
X90106207Y-145050678D02*
X89981600Y-145031378D01*
X90231401Y-145065712D02*
X90106207Y-145050678D01*
X90357035Y-145076462D02*
X90231401Y-145065712D01*
X90482963Y-145082918D02*
X90357035Y-145076462D01*
X90609038Y-145085070D02*
X90482963Y-145082918D01*
X90737918Y-145082823D02*
X90609038Y-145085070D01*
X90866642Y-145076079D02*
X90737918Y-145082823D01*
X90995052Y-145064848D02*
X90866642Y-145076079D01*
X91122991Y-145049142D02*
X90995052Y-145064848D01*
X91250305Y-145028981D02*
X91122991Y-145049142D01*
X91376837Y-145004389D02*
X91250305Y-145028981D01*
X91502434Y-144975396D02*
X91376837Y-145004389D01*
X91626943Y-144942038D02*
X91502434Y-144975396D01*
X91750212Y-144904354D02*
X91626943Y-144942038D01*
X91872091Y-144862392D02*
X91750212Y-144904354D01*
X91992431Y-144816203D02*
X91872091Y-144862392D01*
X92111085Y-144765841D02*
X91992431Y-144816203D01*
X92227910Y-144711370D02*
X92111085Y-144765841D01*
X92342763Y-144652855D02*
X92227910Y-144711370D01*
X92455504Y-144590367D02*
X92342763Y-144652855D01*
X92565995Y-144523983D02*
X92455504Y-144590367D01*
X92674103Y-144453783D02*
X92565995Y-144523983D01*
X92779695Y-144379854D02*
X92674103Y-144453783D01*
X92882642Y-144302284D02*
X92779695Y-144379854D01*
X92982820Y-144221169D02*
X92882642Y-144302284D01*
X93080106Y-144136607D02*
X92982820Y-144221169D01*
X93174381Y-144048702D02*
X93080106Y-144136607D01*
X93265532Y-143957560D02*
X93174381Y-144048702D01*
X93353446Y-143863293D02*
X93265532Y-143957560D01*
X93438017Y-143766015D02*
X93353446Y-143863293D01*
X93519141Y-143665845D02*
X93438017Y-143766015D01*
X93596721Y-143562905D02*
X93519141Y-143665845D01*
X93670660Y-143457321D02*
X93596721Y-143562905D01*
X93740870Y-143349220D02*
X93670660Y-143457321D01*
X93807265Y-143238735D02*
X93740870Y-143349220D01*
X93869763Y-143126000D02*
X93807265Y-143238735D01*
X93928290Y-143011153D02*
X93869763Y-143126000D01*
X93982772Y-142894333D02*
X93928290Y-143011153D01*
X94033145Y-142775683D02*
X93982772Y-142894333D01*
X94079346Y-142655347D02*
X94033145Y-142775683D01*
X94121319Y-142533473D02*
X94079346Y-142655347D01*
X94159014Y-142410207D02*
X94121319Y-142533473D01*
X94192384Y-142285702D02*
X94159014Y-142410207D01*
X94221389Y-142160107D02*
X94192384Y-142285702D01*
X94245993Y-142033577D02*
X94221389Y-142160107D01*
X94266166Y-141906266D02*
X94245993Y-142033577D01*
X94281885Y-141778328D02*
X94266166Y-141906266D01*
X94293128Y-141649919D02*
X94281885Y-141778328D01*
X94299884Y-141521196D02*
X94293128Y-141649919D01*
X94302144Y-141392316D02*
X94299884Y-141521196D01*
X94299884Y-141263436D02*
X94302144Y-141392316D01*
X94293128Y-141134713D02*
X94299884Y-141263436D01*
X94281885Y-141006304D02*
X94293128Y-141134713D01*
X94266166Y-140878366D02*
X94281885Y-141006304D01*
X94245993Y-140751054D02*
X94266166Y-140878366D01*
X94221389Y-140624524D02*
X94245993Y-140751054D01*
X94192384Y-140498930D02*
X94221389Y-140624524D01*
X94159014Y-140374424D02*
X94192384Y-140498930D01*
X94121319Y-140251159D02*
X94159014Y-140374424D01*
X94079346Y-140129285D02*
X94121319Y-140251159D01*
X94033145Y-140008949D02*
X94079346Y-140129285D01*
X93982772Y-139890299D02*
X94033145Y-140008949D01*
X93928290Y-139773479D02*
X93982772Y-139890299D01*
X93869763Y-139658632D02*
X93928290Y-139773479D01*
X93807265Y-139545897D02*
X93869763Y-139658632D01*
X93740870Y-139435412D02*
X93807265Y-139545897D01*
X93670660Y-139327311D02*
X93740870Y-139435412D01*
X93596721Y-139221726D02*
X93670660Y-139327311D01*
X93519141Y-139118786D02*
X93596721Y-139221726D01*
X93438017Y-139018616D02*
X93519141Y-139118786D01*
X93353446Y-138921339D02*
X93438017Y-139018616D01*
X93265532Y-138827071D02*
X93353446Y-138921339D01*
X93174381Y-138735930D02*
X93265532Y-138827071D01*
X93080106Y-138648024D02*
X93174381Y-138735930D01*
X92982820Y-138563463D02*
X93080106Y-138648024D01*
X92882642Y-138482348D02*
X92982820Y-138563463D01*
X92779695Y-138404778D02*
X92882642Y-138482348D01*
X92674103Y-138330848D02*
X92779695Y-138404778D01*
X92565995Y-138260649D02*
X92674103Y-138330848D01*
X92455504Y-138194265D02*
X92565995Y-138260649D01*
X92342763Y-138131777D02*
X92455504Y-138194265D01*
X92227910Y-138073262D02*
X92342763Y-138131777D01*
X92111085Y-138018790D02*
X92227910Y-138073262D01*
X91992431Y-137968429D02*
X92111085Y-138018790D01*
X91872091Y-137922239D02*
X91992431Y-137968429D01*
X91750212Y-137880277D02*
X91872091Y-137922239D01*
X91626943Y-137842594D02*
X91750212Y-137880277D01*
X91502434Y-137809236D02*
X91626943Y-137842594D01*
X91376837Y-137780243D02*
X91502434Y-137809236D01*
X91250305Y-137755651D02*
X91376837Y-137780243D01*
X91122991Y-137735490D02*
X91250305Y-137755651D01*
X90995052Y-137719784D02*
X91122991Y-137735490D01*
X90866642Y-137708552D02*
X90995052Y-137719784D01*
X90737918Y-137701809D02*
X90866642Y-137708552D01*
X90609038Y-137699562D02*
X90737918Y-137701809D01*
X90482963Y-137701714D02*
X90609038Y-137699562D01*
X90357035Y-137708169D02*
X90482963Y-137701714D01*
X90231401Y-137718920D02*
X90357035Y-137708169D01*
X90106207Y-137733954D02*
X90231401Y-137718920D01*
X89981600Y-137753254D02*
X90106207Y-137733954D01*
X89857724Y-137776796D02*
X89981600Y-137753254D01*
X89734724Y-137804554D02*
X89857724Y-137776796D01*
X89612743Y-137836495D02*
X89734724Y-137804554D01*
X89491924Y-137872582D02*
X89612743Y-137836495D01*
X89372408Y-137912774D02*
X89491924Y-137872582D01*
X89254333Y-137957022D02*
X89372408Y-137912774D01*
X89137838Y-138005275D02*
X89254333Y-137957022D01*
X89023058Y-138057478D02*
X89137838Y-138005275D01*
X88910128Y-138113569D02*
X89023058Y-138057478D01*
X88799178Y-138173483D02*
X88910128Y-138113569D01*
X88690338Y-138237150D02*
X88799178Y-138173483D01*
X88583736Y-138304495D02*
X88690338Y-138237150D01*
X88479495Y-138375441D02*
X88583736Y-138304495D01*
X88377737Y-138449905D02*
X88479495Y-138375441D01*
X88278581Y-138527799D02*
X88377737Y-138449905D01*
X88182141Y-138609034D02*
X88278581Y-138527799D01*
X88088532Y-138693513D02*
X88182141Y-138609034D01*
X87997861Y-138781139D02*
X88088532Y-138693513D01*
X87910235Y-138871810D02*
X87997861Y-138781139D01*
X87825756Y-138965419D02*
X87910235Y-138871810D01*
X87744521Y-139061858D02*
X87825756Y-138965419D01*
X87666627Y-139161015D02*
X87744521Y-139061858D01*
X87592164Y-139262773D02*
X87666627Y-139161015D01*
X87521218Y-139367014D02*
X87592164Y-139262773D01*
X87453872Y-139473616D02*
X87521218Y-139367014D01*
X87390205Y-139582456D02*
X87453872Y-139473616D01*
X87330291Y-139693405D02*
X87390205Y-139582456D01*
X87274200Y-139806336D02*
X87330291Y-139693405D01*
X87221997Y-139921116D02*
X87274200Y-139806336D01*
X87173744Y-140037611D02*
X87221997Y-139921116D01*
X87129496Y-140155685D02*
X87173744Y-140037611D01*
X87089305Y-140275202D02*
X87129496Y-140155685D01*
X87053217Y-140396021D02*
X87089305Y-140275202D01*
X87021276Y-140518001D02*
X87053217Y-140396021D01*
X86993518Y-140641002D02*
X87021276Y-140518001D01*
X86969976Y-140764878D02*
X86993518Y-140641002D01*
X86950676Y-140889485D02*
X86969976Y-140764878D01*
X86935642Y-141014679D02*
X86950676Y-140889485D01*
X86924891Y-141140313D02*
X86935642Y-141014679D01*
X86918436Y-141266241D02*
X86924891Y-141140313D01*
X86916284Y-141392316D02*
X86918436Y-141266241D01*
X32383707Y-141518391D02*
X32381555Y-141392316D01*
X32390162Y-141644319D02*
X32383707Y-141518391D01*
X32400913Y-141769953D02*
X32390162Y-141644319D01*
X32415947Y-141895147D02*
X32400913Y-141769953D01*
X32435246Y-142019754D02*
X32415947Y-141895147D01*
X32458789Y-142143630D02*
X32435246Y-142019754D01*
X32486547Y-142266630D02*
X32458789Y-142143630D01*
X32518488Y-142388611D02*
X32486547Y-142266630D01*
X32554575Y-142509430D02*
X32518488Y-142388611D01*
X32594766Y-142628946D02*
X32554575Y-142509430D01*
X32639015Y-142747021D02*
X32594766Y-142628946D01*
X32687268Y-142863516D02*
X32639015Y-142747021D01*
X32739471Y-142978296D02*
X32687268Y-142863516D01*
X32795562Y-143091226D02*
X32739471Y-142978296D01*
X32855476Y-143202176D02*
X32795562Y-143091226D01*
X32919143Y-143311016D02*
X32855476Y-143202176D01*
X32986488Y-143417618D02*
X32919143Y-143311016D01*
X33057434Y-143521859D02*
X32986488Y-143417618D01*
X33131898Y-143623617D02*
X33057434Y-143521859D01*
X33209792Y-143722773D02*
X33131898Y-143623617D01*
X33291026Y-143819212D02*
X33209792Y-143722773D01*
X33375506Y-143912822D02*
X33291026Y-143819212D01*
X33463132Y-144003493D02*
X33375506Y-143912822D01*
X33553803Y-144091119D02*
X33463132Y-144003493D01*
X33647412Y-144175598D02*
X33553803Y-144091119D01*
X33743851Y-144256832D02*
X33647412Y-144175598D01*
X33843008Y-144334727D02*
X33743851Y-144256832D01*
X33944766Y-144409190D02*
X33843008Y-144334727D01*
X34049007Y-144480136D02*
X33944766Y-144409190D01*
X34155609Y-144547482D02*
X34049007Y-144480136D01*
X34264449Y-144611149D02*
X34155609Y-144547482D01*
X34375398Y-144671063D02*
X34264449Y-144611149D01*
X34488329Y-144727154D02*
X34375398Y-144671063D01*
X34603109Y-144779357D02*
X34488329Y-144727154D01*
X34719604Y-144827610D02*
X34603109Y-144779357D01*
X34837678Y-144871858D02*
X34719604Y-144827610D01*
X34957195Y-144912049D02*
X34837678Y-144871858D01*
X35078014Y-144948136D02*
X34957195Y-144912049D01*
X35199994Y-144980078D02*
X35078014Y-144948136D01*
X35322994Y-145007836D02*
X35199994Y-144980078D01*
X35446870Y-145031378D02*
X35322994Y-145007836D01*
X35571478Y-145050678D02*
X35446870Y-145031378D01*
X35696672Y-145065712D02*
X35571478Y-145050678D01*
X35822306Y-145076462D02*
X35696672Y-145065712D01*
X35948234Y-145082918D02*
X35822306Y-145076462D01*
X36074309Y-145085070D02*
X35948234Y-145082918D01*
X36203189Y-145082823D02*
X36074309Y-145085070D01*
X36331913Y-145076079D02*
X36203189Y-145082823D01*
X36460322Y-145064848D02*
X36331913Y-145076079D01*
X36588262Y-145049142D02*
X36460322Y-145064848D01*
X36715576Y-145028981D02*
X36588262Y-145049142D01*
X36842108Y-145004389D02*
X36715576Y-145028981D01*
X36967705Y-144975396D02*
X36842108Y-145004389D01*
X37092214Y-144942038D02*
X36967705Y-144975396D01*
X37215483Y-144904354D02*
X37092214Y-144942038D01*
X37337361Y-144862392D02*
X37215483Y-144904354D01*
X37457701Y-144816203D02*
X37337361Y-144862392D01*
X37576356Y-144765841D02*
X37457701Y-144816203D01*
X37693181Y-144711370D02*
X37576356Y-144765841D01*
X37808034Y-144652855D02*
X37693181Y-144711370D01*
X37920775Y-144590367D02*
X37808034Y-144652855D01*
X38031266Y-144523983D02*
X37920775Y-144590367D01*
X38139374Y-144453783D02*
X38031266Y-144523983D01*
X38244965Y-144379854D02*
X38139374Y-144453783D01*
X38347913Y-144302284D02*
X38244965Y-144379854D01*
X38448090Y-144221169D02*
X38347913Y-144302284D01*
X38545376Y-144136607D02*
X38448090Y-144221169D01*
X38639652Y-144048702D02*
X38545376Y-144136607D01*
X38730802Y-143957560D02*
X38639652Y-144048702D01*
X38818717Y-143863293D02*
X38730802Y-143957560D01*
X38903287Y-143766015D02*
X38818717Y-143863293D01*
X38984412Y-143665845D02*
X38903287Y-143766015D01*
X39061991Y-143562905D02*
X38984412Y-143665845D01*
X39135931Y-143457321D02*
X39061991Y-143562905D01*
X39206141Y-143349220D02*
X39135931Y-143457321D01*
X39272536Y-143238735D02*
X39206141Y-143349220D01*
X39335034Y-143126000D02*
X39272536Y-143238735D01*
X39393560Y-143011153D02*
X39335034Y-143126000D01*
X39448043Y-142894333D02*
X39393560Y-143011153D01*
X39498415Y-142775683D02*
X39448043Y-142894333D01*
X39544617Y-142655347D02*
X39498415Y-142775683D01*
X39586590Y-142533473D02*
X39544617Y-142655347D01*
X39624285Y-142410207D02*
X39586590Y-142533473D01*
X39657655Y-142285702D02*
X39624285Y-142410207D01*
X39686660Y-142160107D02*
X39657655Y-142285702D01*
X39711264Y-142033577D02*
X39686660Y-142160107D01*
X39731437Y-141906266D02*
X39711264Y-142033577D01*
X39747155Y-141778328D02*
X39731437Y-141906266D01*
X39758399Y-141649919D02*
X39747155Y-141778328D01*
X39765155Y-141521196D02*
X39758399Y-141649919D01*
X39767414Y-141392316D02*
X39765155Y-141521196D01*
X39765155Y-141263436D02*
X39767414Y-141392316D01*
X39758399Y-141134713D02*
X39765155Y-141263436D01*
X39747155Y-141006304D02*
X39758399Y-141134713D01*
X39731437Y-140878366D02*
X39747155Y-141006304D01*
X39711264Y-140751054D02*
X39731437Y-140878366D01*
X39686660Y-140624524D02*
X39711264Y-140751054D01*
X39657655Y-140498930D02*
X39686660Y-140624524D01*
X39624285Y-140374424D02*
X39657655Y-140498930D01*
X39586590Y-140251159D02*
X39624285Y-140374424D01*
X39544617Y-140129285D02*
X39586590Y-140251159D01*
X39498415Y-140008949D02*
X39544617Y-140129285D01*
X39448043Y-139890299D02*
X39498415Y-140008949D01*
X39393560Y-139773479D02*
X39448043Y-139890299D01*
X39335034Y-139658632D02*
X39393560Y-139773479D01*
X39272536Y-139545897D02*
X39335034Y-139658632D01*
X39206141Y-139435412D02*
X39272536Y-139545897D01*
X39135931Y-139327311D02*
X39206141Y-139435412D01*
X39061991Y-139221726D02*
X39135931Y-139327311D01*
X38984412Y-139118786D02*
X39061991Y-139221726D01*
X38903287Y-139018616D02*
X38984412Y-139118786D01*
X38818717Y-138921339D02*
X38903287Y-139018616D01*
X38730802Y-138827071D02*
X38818717Y-138921339D01*
X38639652Y-138735930D02*
X38730802Y-138827071D01*
X38545376Y-138648024D02*
X38639652Y-138735930D01*
X38448090Y-138563463D02*
X38545376Y-138648024D01*
X38347913Y-138482348D02*
X38448090Y-138563463D01*
X38244965Y-138404778D02*
X38347913Y-138482348D01*
X38139374Y-138330848D02*
X38244965Y-138404778D01*
X38031266Y-138260649D02*
X38139374Y-138330848D01*
X37920775Y-138194265D02*
X38031266Y-138260649D01*
X37808034Y-138131777D02*
X37920775Y-138194265D01*
X37693181Y-138073262D02*
X37808034Y-138131777D01*
X37576356Y-138018790D02*
X37693181Y-138073262D01*
X37457701Y-137968429D02*
X37576356Y-138018790D01*
X37337361Y-137922239D02*
X37457701Y-137968429D01*
X37215483Y-137880277D02*
X37337361Y-137922239D01*
X37092214Y-137842594D02*
X37215483Y-137880277D01*
X36967705Y-137809236D02*
X37092214Y-137842594D01*
X36842108Y-137780243D02*
X36967705Y-137809236D01*
X36715576Y-137755651D02*
X36842108Y-137780243D01*
X36588262Y-137735490D02*
X36715576Y-137755651D01*
X36460322Y-137719784D02*
X36588262Y-137735490D01*
X36331913Y-137708552D02*
X36460322Y-137719784D01*
X36203189Y-137701809D02*
X36331913Y-137708552D01*
X36074309Y-137699562D02*
X36203189Y-137701809D01*
X35948234Y-137701714D02*
X36074309Y-137699562D01*
X35822306Y-137708169D02*
X35948234Y-137701714D01*
X35696672Y-137718920D02*
X35822306Y-137708169D01*
X35571478Y-137733954D02*
X35696672Y-137718920D01*
X35446870Y-137753254D02*
X35571478Y-137733954D01*
X35322994Y-137776796D02*
X35446870Y-137753254D01*
X35199994Y-137804554D02*
X35322994Y-137776796D01*
X35078014Y-137836495D02*
X35199994Y-137804554D01*
X34957195Y-137872582D02*
X35078014Y-137836495D01*
X34837678Y-137912774D02*
X34957195Y-137872582D01*
X34719604Y-137957022D02*
X34837678Y-137912774D01*
X34603109Y-138005275D02*
X34719604Y-137957022D01*
X34488329Y-138057478D02*
X34603109Y-138005275D01*
X34375398Y-138113569D02*
X34488329Y-138057478D01*
X34264449Y-138173483D02*
X34375398Y-138113569D01*
X34155609Y-138237150D02*
X34264449Y-138173483D01*
X34049007Y-138304495D02*
X34155609Y-138237150D01*
X33944766Y-138375441D02*
X34049007Y-138304495D01*
X33843008Y-138449905D02*
X33944766Y-138375441D01*
X33743851Y-138527799D02*
X33843008Y-138449905D01*
X33647412Y-138609034D02*
X33743851Y-138527799D01*
X33553803Y-138693513D02*
X33647412Y-138609034D01*
X33463132Y-138781139D02*
X33553803Y-138693513D01*
X33375506Y-138871810D02*
X33463132Y-138781139D01*
X33291026Y-138965419D02*
X33375506Y-138871810D01*
X33209792Y-139061858D02*
X33291026Y-138965419D01*
X33131898Y-139161015D02*
X33209792Y-139061858D01*
X33057434Y-139262773D02*
X33131898Y-139161015D01*
X32986488Y-139367014D02*
X33057434Y-139262773D01*
X32919143Y-139473616D02*
X32986488Y-139367014D01*
X32855476Y-139582456D02*
X32919143Y-139473616D01*
X32795562Y-139693405D02*
X32855476Y-139582456D01*
X32739471Y-139806336D02*
X32795562Y-139693405D01*
X32687268Y-139921116D02*
X32739471Y-139806336D01*
X32639015Y-140037611D02*
X32687268Y-139921116D01*
X32594766Y-140155685D02*
X32639015Y-140037611D01*
X32554575Y-140275202D02*
X32594766Y-140155685D01*
X32518488Y-140396021D02*
X32554575Y-140275202D01*
X32486547Y-140518001D02*
X32518488Y-140396021D01*
X32458789Y-140641002D02*
X32486547Y-140518001D01*
X32435246Y-140764878D02*
X32458789Y-140641002D01*
X32415947Y-140889485D02*
X32435246Y-140764878D01*
X32400913Y-141014679D02*
X32415947Y-140889485D01*
X32390162Y-141140313D02*
X32400913Y-141014679D01*
X32383707Y-141266241D02*
X32390162Y-141140313D01*
X32381555Y-141392316D02*
X32383707Y-141266241D01*
X56770985Y-139663549D02*
X49004922Y-139663549D01*
X56073125Y-141421903D02*
X56770985Y-139663549D01*
X49096283Y-141421903D02*
X56073125Y-141421903D01*
X48705538Y-142370655D02*
X49096283Y-141421903D01*
X55710491Y-142370655D02*
X48705538Y-142370655D01*
X54127832Y-146473129D02*
X55710491Y-142370655D01*
X44993809Y-146473129D02*
X54127832Y-146473129D01*
X45691317Y-144742887D02*
X44993809Y-146473129D01*
X52556769Y-144742887D02*
X45691317Y-144742887D01*
X52787983Y-144128658D02*
X52556769Y-144742887D01*
X47072279Y-144105466D02*
X52787983Y-144128658D01*
X47048086Y-144104955D02*
X47072279Y-144105466D01*
X47023925Y-144103614D02*
X47048086Y-144104955D01*
X46999824Y-144101446D02*
X47023925Y-144103614D01*
X46975812Y-144098452D02*
X46999824Y-144101446D01*
X46951917Y-144094637D02*
X46975812Y-144098452D01*
X46928166Y-144090004D02*
X46951917Y-144094637D01*
X46904589Y-144084560D02*
X46928166Y-144090004D01*
X46881212Y-144078310D02*
X46904589Y-144084560D01*
X46858063Y-144071261D02*
X46881212Y-144078310D01*
X46835170Y-144063424D02*
X46858063Y-144071261D01*
X46812558Y-144054805D02*
X46835170Y-144063424D01*
X46790256Y-144045416D02*
X46812558Y-144054805D01*
X46768289Y-144035268D02*
X46790256Y-144045416D01*
X46746683Y-144024372D02*
X46768289Y-144035268D01*
X46725463Y-144012742D02*
X46746683Y-144024372D01*
X46704654Y-144000391D02*
X46725463Y-144012742D01*
X46684282Y-143987333D02*
X46704654Y-144000391D01*
X46664369Y-143973584D02*
X46684282Y-143987333D01*
X46644940Y-143959161D02*
X46664369Y-143973584D01*
X46626016Y-143944079D02*
X46644940Y-143959161D01*
X46607621Y-143928358D02*
X46626016Y-143944079D01*
X46589776Y-143912014D02*
X46607621Y-143928358D01*
X46572502Y-143895069D02*
X46589776Y-143912014D01*
X46555820Y-143877541D02*
X46572502Y-143895069D01*
X46539748Y-143859451D02*
X46555820Y-143877541D01*
X46524306Y-143840820D02*
X46539748Y-143859451D01*
X46509513Y-143821671D02*
X46524306Y-143840820D01*
X46495384Y-143802026D02*
X46509513Y-143821671D01*
X46481938Y-143781907D02*
X46495384Y-143802026D01*
X46469190Y-143761340D02*
X46481938Y-143781907D01*
X46457155Y-143740347D02*
X46469190Y-143761340D01*
X46445846Y-143718954D02*
X46457155Y-143740347D01*
X46435279Y-143697185D02*
X46445846Y-143718954D01*
X46425464Y-143675067D02*
X46435279Y-143697185D01*
X46416413Y-143652625D02*
X46425464Y-143675067D01*
X46408137Y-143629886D02*
X46416413Y-143652625D01*
X46400646Y-143606877D02*
X46408137Y-143629886D01*
X46393949Y-143583624D02*
X46400646Y-143606877D01*
X46388053Y-143560156D02*
X46393949Y-143583624D01*
X46382965Y-143536498D02*
X46388053Y-143560156D01*
X46378692Y-143512681D02*
X46382965Y-143536498D01*
X46375238Y-143488730D02*
X46378692Y-143512681D01*
X46372608Y-143464676D02*
X46375238Y-143488730D01*
X46370804Y-143440545D02*
X46372608Y-143464676D01*
X46369829Y-143416367D02*
X46370804Y-143440545D01*
X46369684Y-143392169D02*
X46369829Y-143416367D01*
X46370369Y-143367981D02*
X46369684Y-143392169D01*
X46371882Y-143343830D02*
X46370369Y-143367981D01*
X46374224Y-143319746D02*
X46371882Y-143343830D01*
X46377390Y-143295756D02*
X46374224Y-143319746D01*
X46381377Y-143271888D02*
X46377390Y-143295756D01*
X46386180Y-143248172D02*
X46381377Y-143271888D01*
X46391793Y-143224634D02*
X46386180Y-143248172D01*
X46398211Y-143201302D02*
X46391793Y-143224634D01*
X46405425Y-143178205D02*
X46398211Y-143201302D01*
X46413427Y-143155368D02*
X46405425Y-143178205D01*
X46422208Y-143132819D02*
X46413427Y-143155368D01*
X47399774Y-140741612D02*
X46422208Y-143132819D01*
X47423550Y-140686170D02*
X47399774Y-140741612D01*
X47449241Y-140631589D02*
X47423550Y-140686170D01*
X47476816Y-140577935D02*
X47449241Y-140631589D01*
X47506241Y-140525272D02*
X47476816Y-140577935D01*
X47537480Y-140473666D02*
X47506241Y-140525272D01*
X47570496Y-140423177D02*
X47537480Y-140473666D01*
X47605249Y-140373868D02*
X47570496Y-140423177D01*
X47641697Y-140325798D02*
X47605249Y-140373868D01*
X47679795Y-140279026D02*
X47641697Y-140325798D01*
X47719498Y-140233607D02*
X47679795Y-140279026D01*
X47760757Y-140189598D02*
X47719498Y-140233607D01*
X47803522Y-140147050D02*
X47760757Y-140189598D01*
X47847742Y-140106017D02*
X47803522Y-140147050D01*
X47893363Y-140066547D02*
X47847742Y-140106017D01*
X47940329Y-140028688D02*
X47893363Y-140066547D01*
X47988585Y-139992486D02*
X47940329Y-140028688D01*
X48038071Y-139957986D02*
X47988585Y-139992486D01*
X48088727Y-139925228D02*
X48038071Y-139957986D01*
X48140493Y-139894252D02*
X48088727Y-139925228D01*
X48193305Y-139865097D02*
X48140493Y-139894252D01*
X48247099Y-139837797D02*
X48193305Y-139865097D01*
X48301811Y-139812385D02*
X48247099Y-139837797D01*
X48357374Y-139788892D02*
X48301811Y-139812385D01*
X48413721Y-139767347D02*
X48357374Y-139788892D01*
X48470783Y-139747776D02*
X48413721Y-139767347D01*
X48528492Y-139730201D02*
X48470783Y-139747776D01*
X48586777Y-139714646D02*
X48528492Y-139730201D01*
X48645568Y-139701128D02*
X48586777Y-139714646D01*
X48704794Y-139689664D02*
X48645568Y-139701128D01*
X48764383Y-139680267D02*
X48704794Y-139689664D01*
X48824263Y-139672950D02*
X48764383Y-139680267D01*
X48884362Y-139667721D02*
X48824263Y-139672950D01*
X48944605Y-139664586D02*
X48884362Y-139667721D01*
X49004922Y-139663549D02*
X48944605Y-139664586D01*
X87305816Y-174631137D02*
X87303560Y-174760010D01*
X87312569Y-174502421D02*
X87305816Y-174631137D01*
X87323809Y-174374019D02*
X87312569Y-174502421D01*
X87339523Y-174246088D02*
X87323809Y-174374019D01*
X87359692Y-174118783D02*
X87339523Y-174246088D01*
X87384291Y-173992259D02*
X87359692Y-174118783D01*
X87413291Y-173866671D02*
X87384291Y-173992259D01*
X87446656Y-173742171D02*
X87413291Y-173866671D01*
X87484345Y-173618911D02*
X87446656Y-173742171D01*
X87526312Y-173497042D02*
X87484345Y-173618911D01*
X87572507Y-173376712D02*
X87526312Y-173497042D01*
X87622872Y-173258066D02*
X87572507Y-173376712D01*
X87677348Y-173141251D02*
X87622872Y-173258066D01*
X87735866Y-173026408D02*
X87677348Y-173141251D01*
X87798357Y-172913677D02*
X87735866Y-173026408D01*
X87864744Y-172803195D02*
X87798357Y-172913677D01*
X87934946Y-172695098D02*
X87864744Y-172803195D01*
X88008877Y-172589516D02*
X87934946Y-172695098D01*
X88086448Y-172486578D02*
X88008877Y-172589516D01*
X88167563Y-172386410D02*
X88086448Y-172486578D01*
X88252125Y-172289134D02*
X88167563Y-172386410D01*
X88340030Y-172194868D02*
X88252125Y-172289134D01*
X88431171Y-172103727D02*
X88340030Y-172194868D01*
X88525437Y-172015822D02*
X88431171Y-172103727D01*
X88622714Y-171931260D02*
X88525437Y-172015822D01*
X88722882Y-171850144D02*
X88622714Y-171931260D01*
X88825819Y-171772573D02*
X88722882Y-171850144D01*
X88931401Y-171698642D02*
X88825819Y-171772573D01*
X89039499Y-171628440D02*
X88931401Y-171698642D01*
X89149981Y-171562054D02*
X89039499Y-171628440D01*
X89262712Y-171499563D02*
X89149981Y-171562054D01*
X89377555Y-171441044D02*
X89262712Y-171499563D01*
X89494370Y-171386569D02*
X89377555Y-171441044D01*
X89613015Y-171336203D02*
X89494370Y-171386569D01*
X89733346Y-171290008D02*
X89613015Y-171336203D01*
X89855215Y-171248041D02*
X89733346Y-171290008D01*
X89978475Y-171210352D02*
X89855215Y-171248041D01*
X90102974Y-171176987D02*
X89978475Y-171210352D01*
X90228563Y-171147988D02*
X90102974Y-171176987D01*
X90355086Y-171123388D02*
X90228563Y-171147988D01*
X90482391Y-171103219D02*
X90355086Y-171123388D01*
X90610323Y-171087505D02*
X90482391Y-171103219D01*
X90738725Y-171076265D02*
X90610323Y-171087505D01*
X90867441Y-171069513D02*
X90738725Y-171076265D01*
X90996314Y-171067256D02*
X90867441Y-171069513D01*
X91125194Y-171069503D02*
X90996314Y-171067256D01*
X91253918Y-171076247D02*
X91125194Y-171069503D01*
X91382328Y-171087478D02*
X91253918Y-171076247D01*
X91510267Y-171103184D02*
X91382328Y-171087478D01*
X91637581Y-171123345D02*
X91510267Y-171103184D01*
X91764113Y-171147937D02*
X91637581Y-171123345D01*
X91889710Y-171176930D02*
X91764113Y-171147937D01*
X92014219Y-171210289D02*
X91889710Y-171176930D01*
X92137488Y-171247972D02*
X92014219Y-171210289D01*
X92259366Y-171289934D02*
X92137488Y-171247972D01*
X92379706Y-171336123D02*
X92259366Y-171289934D01*
X92498361Y-171386485D02*
X92379706Y-171336123D01*
X92615186Y-171440956D02*
X92498361Y-171386485D01*
X92730039Y-171499471D02*
X92615186Y-171440956D01*
X92842780Y-171561959D02*
X92730039Y-171499471D01*
X92953271Y-171628343D02*
X92842780Y-171561959D01*
X93061379Y-171698543D02*
X92953271Y-171628343D01*
X93166970Y-171772472D02*
X93061379Y-171698543D01*
X93269918Y-171850042D02*
X93166970Y-171772472D01*
X93370096Y-171931157D02*
X93269918Y-171850042D01*
X93467381Y-172015719D02*
X93370096Y-171931157D01*
X93561657Y-172103624D02*
X93467381Y-172015719D01*
X93652807Y-172194766D02*
X93561657Y-172103624D01*
X93740722Y-172289033D02*
X93652807Y-172194766D01*
X93825292Y-172386311D02*
X93740722Y-172289033D01*
X93906417Y-172486481D02*
X93825292Y-172386311D01*
X93983996Y-172589421D02*
X93906417Y-172486481D01*
X94057936Y-172695005D02*
X93983996Y-172589421D01*
X94128146Y-172803106D02*
X94057936Y-172695005D01*
X94194541Y-172913591D02*
X94128146Y-172803106D01*
X94257039Y-173026326D02*
X94194541Y-172913591D01*
X94315565Y-173141173D02*
X94257039Y-173026326D01*
X94370048Y-173257993D02*
X94315565Y-173141173D01*
X94420421Y-173376643D02*
X94370048Y-173257993D01*
X94466622Y-173496979D02*
X94420421Y-173376643D01*
X94508595Y-173618854D02*
X94466622Y-173496979D01*
X94546290Y-173742119D02*
X94508595Y-173618854D01*
X94579660Y-173866624D02*
X94546290Y-173742119D01*
X94608665Y-173992219D02*
X94579660Y-173866624D01*
X94633269Y-174118749D02*
X94608665Y-173992219D01*
X94653442Y-174246060D02*
X94633269Y-174118749D01*
X94669161Y-174373998D02*
X94653442Y-174246060D01*
X94680404Y-174502407D02*
X94669161Y-174373998D01*
X94687160Y-174631130D02*
X94680404Y-174502407D01*
X94689419Y-174760010D02*
X94687160Y-174631130D01*
X94687169Y-174888898D02*
X94689419Y-174760010D01*
X94680423Y-175017628D02*
X94687169Y-174888898D01*
X94669188Y-175146045D02*
X94680423Y-175017628D01*
X94653478Y-175273991D02*
X94669188Y-175146045D01*
X94633312Y-175401311D02*
X94653478Y-175273991D01*
X94608715Y-175527850D02*
X94633312Y-175401311D01*
X94579717Y-175653453D02*
X94608715Y-175527850D01*
X94546353Y-175777967D02*
X94579717Y-175653453D01*
X94508665Y-175901242D02*
X94546353Y-175777967D01*
X94466696Y-176023126D02*
X94508665Y-175901242D01*
X94420500Y-176143471D02*
X94466696Y-176023126D01*
X94370132Y-176262131D02*
X94420500Y-176143471D01*
X94315653Y-176378960D02*
X94370132Y-176262131D01*
X94257131Y-176493817D02*
X94315653Y-176378960D01*
X94194635Y-176606562D02*
X94257131Y-176493817D01*
X94128243Y-176717057D02*
X94194635Y-176606562D01*
X94058035Y-176825167D02*
X94128243Y-176717057D01*
X93984097Y-176930762D02*
X94058035Y-176825167D01*
X93906519Y-177033711D02*
X93984097Y-176930762D01*
X93825395Y-177133891D02*
X93906519Y-177033711D01*
X93740824Y-177231179D02*
X93825395Y-177133891D01*
X93652910Y-177325455D02*
X93740824Y-177231179D01*
X93561759Y-177416606D02*
X93652910Y-177325455D01*
X93467482Y-177504521D02*
X93561759Y-177416606D01*
X93370195Y-177589091D02*
X93467482Y-177504521D01*
X93270015Y-177670215D02*
X93370195Y-177589091D01*
X93167065Y-177747794D02*
X93270015Y-177670215D01*
X93061471Y-177821732D02*
X93167065Y-177747794D01*
X92953360Y-177891940D02*
X93061471Y-177821732D01*
X92842865Y-177958332D02*
X92953360Y-177891940D01*
X92730121Y-178020827D02*
X92842865Y-177958332D01*
X92615264Y-178079350D02*
X92730121Y-178020827D01*
X92498434Y-178133828D02*
X92615264Y-178079350D01*
X92379775Y-178184196D02*
X92498434Y-178133828D01*
X92259430Y-178230393D02*
X92379775Y-178184196D01*
X92137546Y-178272361D02*
X92259430Y-178230393D01*
X92014271Y-178310050D02*
X92137546Y-178272361D01*
X91889756Y-178343414D02*
X92014271Y-178310050D01*
X91764153Y-178372411D02*
X91889756Y-178343414D01*
X91637615Y-178397008D02*
X91764153Y-178372411D01*
X91510295Y-178417174D02*
X91637615Y-178397008D01*
X91382348Y-178432884D02*
X91510295Y-178417174D01*
X91253932Y-178444119D02*
X91382348Y-178432884D01*
X91125201Y-178450866D02*
X91253932Y-178444119D01*
X90996314Y-178453116D02*
X91125201Y-178450866D01*
X90867434Y-178450856D02*
X90996314Y-178453116D01*
X90738711Y-178444101D02*
X90867434Y-178450856D01*
X90610302Y-178432857D02*
X90738711Y-178444101D01*
X90482364Y-178417139D02*
X90610302Y-178432857D01*
X90355052Y-178396965D02*
X90482364Y-178417139D01*
X90228522Y-178372361D02*
X90355052Y-178396965D01*
X90102928Y-178343356D02*
X90228522Y-178372361D01*
X89978422Y-178309986D02*
X90102928Y-178343356D01*
X89855157Y-178272292D02*
X89978422Y-178309986D01*
X89733283Y-178230318D02*
X89855157Y-178272292D01*
X89612947Y-178184117D02*
X89733283Y-178230318D01*
X89494297Y-178133744D02*
X89612947Y-178184117D01*
X89377477Y-178079262D02*
X89494297Y-178133744D01*
X89262630Y-178020736D02*
X89377477Y-178079262D01*
X89149895Y-177958237D02*
X89262630Y-178020736D01*
X89039410Y-177891842D02*
X89149895Y-177958237D01*
X88931309Y-177821632D02*
X89039410Y-177891842D01*
X88825724Y-177747693D02*
X88931309Y-177821632D01*
X88722784Y-177670113D02*
X88825724Y-177747693D01*
X88622614Y-177588989D02*
X88722784Y-177670113D01*
X88525337Y-177504418D02*
X88622614Y-177588989D01*
X88431069Y-177416504D02*
X88525337Y-177504418D01*
X88339928Y-177325353D02*
X88431069Y-177416504D01*
X88252022Y-177231078D02*
X88339928Y-177325353D01*
X88167461Y-177133792D02*
X88252022Y-177231078D01*
X88086346Y-177033614D02*
X88167461Y-177133792D01*
X88008776Y-176930667D02*
X88086346Y-177033614D01*
X87934846Y-176825075D02*
X88008776Y-176930667D01*
X87864647Y-176716968D02*
X87934846Y-176825075D01*
X87798263Y-176606476D02*
X87864647Y-176716968D01*
X87735775Y-176493735D02*
X87798263Y-176606476D01*
X87677260Y-176378882D02*
X87735775Y-176493735D01*
X87622788Y-176262057D02*
X87677260Y-176378882D01*
X87572427Y-176143403D02*
X87622788Y-176262057D01*
X87526237Y-176023063D02*
X87572427Y-176143403D01*
X87484275Y-175901184D02*
X87526237Y-176023063D01*
X87446592Y-175777915D02*
X87484275Y-175901184D01*
X87413234Y-175653406D02*
X87446592Y-175777915D01*
X87384241Y-175527809D02*
X87413234Y-175653406D01*
X87359649Y-175401277D02*
X87384241Y-175527809D01*
X87339488Y-175273963D02*
X87359649Y-175401277D01*
X87323782Y-175146024D02*
X87339488Y-175273963D01*
X87312550Y-175017614D02*
X87323782Y-175146024D01*
X87305807Y-174888891D02*
X87312550Y-175017614D01*
X87303560Y-174760010D02*
X87305807Y-174888891D01*
X32771158Y-174633935D02*
X32769006Y-174760010D01*
X32777614Y-174508007D02*
X32771158Y-174633935D01*
X32788365Y-174382373D02*
X32777614Y-174508007D01*
X32803399Y-174257179D02*
X32788365Y-174382373D01*
X32822698Y-174132572D02*
X32803399Y-174257179D01*
X32846240Y-174008696D02*
X32822698Y-174132572D01*
X32873999Y-173885696D02*
X32846240Y-174008696D01*
X32905940Y-173763715D02*
X32873999Y-173885696D01*
X32942027Y-173642896D02*
X32905940Y-173763715D01*
X32982218Y-173523380D02*
X32942027Y-173642896D01*
X33026466Y-173405305D02*
X32982218Y-173523380D01*
X33074720Y-173288810D02*
X33026466Y-173405305D01*
X33126922Y-173174030D02*
X33074720Y-173288810D01*
X33183013Y-173061100D02*
X33126922Y-173174030D01*
X33242927Y-172950150D02*
X33183013Y-173061100D01*
X33306594Y-172841310D02*
X33242927Y-172950150D01*
X33373940Y-172734708D02*
X33306594Y-172841310D01*
X33444886Y-172630467D02*
X33373940Y-172734708D01*
X33519349Y-172528709D02*
X33444886Y-172630467D01*
X33597244Y-172429553D02*
X33519349Y-172528709D01*
X33678478Y-172333114D02*
X33597244Y-172429553D01*
X33762958Y-172239504D02*
X33678478Y-172333114D01*
X33850584Y-172148833D02*
X33762958Y-172239504D01*
X33941254Y-172061207D02*
X33850584Y-172148833D01*
X34034864Y-171976728D02*
X33941254Y-172061207D01*
X34131303Y-171895494D02*
X34034864Y-171976728D01*
X34230459Y-171817599D02*
X34131303Y-171895494D01*
X34332217Y-171743136D02*
X34230459Y-171817599D01*
X34436458Y-171672190D02*
X34332217Y-171743136D01*
X34543061Y-171604844D02*
X34436458Y-171672190D01*
X34651900Y-171541177D02*
X34543061Y-171604844D01*
X34762850Y-171481263D02*
X34651900Y-171541177D01*
X34875780Y-171425172D02*
X34762850Y-171481263D01*
X34990560Y-171372970D02*
X34875780Y-171425172D01*
X35107055Y-171324716D02*
X34990560Y-171372970D01*
X35225130Y-171280468D02*
X35107055Y-171324716D01*
X35344646Y-171240277D02*
X35225130Y-171280468D01*
X35465465Y-171204190D02*
X35344646Y-171240277D01*
X35587446Y-171172248D02*
X35465465Y-171204190D01*
X35710446Y-171144490D02*
X35587446Y-171172248D01*
X35834322Y-171120948D02*
X35710446Y-171144490D01*
X35958930Y-171101648D02*
X35834322Y-171120948D01*
X36084123Y-171086614D02*
X35958930Y-171101648D01*
X36209758Y-171075864D02*
X36084123Y-171086614D01*
X36335685Y-171069408D02*
X36209758Y-171075864D01*
X36461760Y-171067256D02*
X36335685Y-171069408D01*
X36590641Y-171069503D02*
X36461760Y-171067256D01*
X36719364Y-171076247D02*
X36590641Y-171069503D01*
X36847774Y-171087478D02*
X36719364Y-171076247D01*
X36975714Y-171103184D02*
X36847774Y-171087478D01*
X37103027Y-171123345D02*
X36975714Y-171103184D01*
X37229560Y-171147937D02*
X37103027Y-171123345D01*
X37355157Y-171176930D02*
X37229560Y-171147937D01*
X37479665Y-171210289D02*
X37355157Y-171176930D01*
X37602934Y-171247972D02*
X37479665Y-171210289D01*
X37724813Y-171289934D02*
X37602934Y-171247972D01*
X37845153Y-171336123D02*
X37724813Y-171289934D01*
X37963808Y-171386485D02*
X37845153Y-171336123D01*
X38080633Y-171440956D02*
X37963808Y-171386485D01*
X38195485Y-171499471D02*
X38080633Y-171440956D01*
X38308226Y-171561959D02*
X38195485Y-171499471D01*
X38418718Y-171628343D02*
X38308226Y-171561959D01*
X38526825Y-171698543D02*
X38418718Y-171628343D01*
X38632417Y-171772472D02*
X38526825Y-171698543D01*
X38735364Y-171850042D02*
X38632417Y-171772472D01*
X38835542Y-171931157D02*
X38735364Y-171850042D01*
X38932828Y-172015719D02*
X38835542Y-171931157D01*
X39027103Y-172103624D02*
X38932828Y-172015719D01*
X39118254Y-172194766D02*
X39027103Y-172103624D01*
X39206168Y-172289033D02*
X39118254Y-172194766D01*
X39290739Y-172386311D02*
X39206168Y-172289033D01*
X39371864Y-172486481D02*
X39290739Y-172386311D01*
X39449443Y-172589421D02*
X39371864Y-172486481D01*
X39523383Y-172695005D02*
X39449443Y-172589421D01*
X39593593Y-172803106D02*
X39523383Y-172695005D01*
X39659987Y-172913591D02*
X39593593Y-172803106D01*
X39722486Y-173026326D02*
X39659987Y-172913591D01*
X39781012Y-173141173D02*
X39722486Y-173026326D01*
X39835494Y-173257993D02*
X39781012Y-173141173D01*
X39885867Y-173376643D02*
X39835494Y-173257993D01*
X39932068Y-173496979D02*
X39885867Y-173376643D01*
X39974042Y-173618854D02*
X39932068Y-173496979D01*
X40011737Y-173742119D02*
X39974042Y-173618854D01*
X40045107Y-173866624D02*
X40011737Y-173742119D01*
X40074111Y-173992219D02*
X40045107Y-173866624D01*
X40098715Y-174118749D02*
X40074111Y-173992219D01*
X40118889Y-174246060D02*
X40098715Y-174118749D01*
X40134607Y-174373998D02*
X40118889Y-174246060D01*
X40145851Y-174502407D02*
X40134607Y-174373998D01*
X40152606Y-174631130D02*
X40145851Y-174502407D01*
X40154866Y-174760010D02*
X40152606Y-174631130D01*
X40152616Y-174888898D02*
X40154866Y-174760010D01*
X40145869Y-175017628D02*
X40152616Y-174888898D01*
X40134634Y-175146045D02*
X40145869Y-175017628D01*
X40118924Y-175273991D02*
X40134634Y-175146045D01*
X40098758Y-175401311D02*
X40118924Y-175273991D01*
X40074162Y-175527850D02*
X40098758Y-175401311D01*
X40045164Y-175653453D02*
X40074162Y-175527850D01*
X40011800Y-175777967D02*
X40045164Y-175653453D01*
X39974111Y-175901242D02*
X40011800Y-175777967D01*
X39932143Y-176023126D02*
X39974111Y-175901242D01*
X39885947Y-176143471D02*
X39932143Y-176023126D01*
X39835579Y-176262131D02*
X39885947Y-176143471D01*
X39781100Y-176378960D02*
X39835579Y-176262131D01*
X39722577Y-176493817D02*
X39781100Y-176378960D01*
X39660082Y-176606562D02*
X39722577Y-176493817D01*
X39593690Y-176717057D02*
X39660082Y-176606562D01*
X39523482Y-176825167D02*
X39593690Y-176717057D01*
X39449544Y-176930762D02*
X39523482Y-176825167D01*
X39371965Y-177033711D02*
X39449544Y-176930762D01*
X39290842Y-177133891D02*
X39371965Y-177033711D01*
X39206271Y-177231179D02*
X39290842Y-177133891D01*
X39118356Y-177325455D02*
X39206271Y-177231179D01*
X39027205Y-177416606D02*
X39118356Y-177325455D01*
X38932929Y-177504521D02*
X39027205Y-177416606D01*
X38835641Y-177589091D02*
X38932929Y-177504521D01*
X38735462Y-177670215D02*
X38835641Y-177589091D01*
X38632512Y-177747794D02*
X38735462Y-177670215D01*
X38526917Y-177821732D02*
X38632512Y-177747794D01*
X38418807Y-177891940D02*
X38526917Y-177821732D01*
X38308312Y-177958332D02*
X38418807Y-177891940D01*
X38195567Y-178020827D02*
X38308312Y-177958332D01*
X38080710Y-178079350D02*
X38195567Y-178020827D01*
X37963881Y-178133828D02*
X38080710Y-178079350D01*
X37845221Y-178184196D02*
X37963881Y-178133828D01*
X37724876Y-178230393D02*
X37845221Y-178184196D01*
X37602992Y-178272361D02*
X37724876Y-178230393D01*
X37479718Y-178310050D02*
X37602992Y-178272361D01*
X37355203Y-178343414D02*
X37479718Y-178310050D01*
X37229600Y-178372411D02*
X37355203Y-178343414D01*
X37103061Y-178397008D02*
X37229600Y-178372411D01*
X36975741Y-178417174D02*
X37103061Y-178397008D01*
X36847795Y-178432884D02*
X36975741Y-178417174D01*
X36719378Y-178444119D02*
X36847795Y-178432884D01*
X36590648Y-178450866D02*
X36719378Y-178444119D01*
X36461760Y-178453116D02*
X36590648Y-178450866D01*
X36335679Y-178450961D02*
X36461760Y-178453116D01*
X36209744Y-178444502D02*
X36335679Y-178450961D01*
X36084103Y-178433748D02*
X36209744Y-178444502D01*
X35958903Y-178418710D02*
X36084103Y-178433748D01*
X35834289Y-178399406D02*
X35958903Y-178418710D01*
X35710407Y-178375859D02*
X35834289Y-178399406D01*
X35587401Y-178348096D02*
X35710407Y-178375859D01*
X35465414Y-178316150D02*
X35587401Y-178348096D01*
X35344590Y-178280057D02*
X35465414Y-178316150D01*
X35225068Y-178239860D02*
X35344590Y-178280057D01*
X35106988Y-178195605D02*
X35225068Y-178239860D01*
X34990488Y-178147345D02*
X35106988Y-178195605D01*
X34875704Y-178095136D02*
X34990488Y-178147345D01*
X34762769Y-178039037D02*
X34875704Y-178095136D01*
X34651816Y-177979116D02*
X34762769Y-178039037D01*
X34542973Y-177915441D02*
X34651816Y-177979116D01*
X34436367Y-177848088D02*
X34542973Y-177915441D01*
X34332123Y-177777134D02*
X34436367Y-177848088D01*
X34230363Y-177702662D02*
X34332123Y-177777134D01*
X34131205Y-177624759D02*
X34230363Y-177702662D01*
X34034764Y-177543516D02*
X34131205Y-177624759D01*
X33941153Y-177459027D02*
X34034764Y-177543516D01*
X33850481Y-177371392D02*
X33941153Y-177459027D01*
X33762855Y-177280712D02*
X33850481Y-177371392D01*
X33678375Y-177187093D02*
X33762855Y-177280712D01*
X33597141Y-177090645D02*
X33678375Y-177187093D01*
X33519248Y-176991479D02*
X33597141Y-177090645D01*
X33444786Y-176889711D02*
X33519248Y-176991479D01*
X33373841Y-176785461D02*
X33444786Y-176889711D01*
X33306498Y-176678849D02*
X33373841Y-176785461D01*
X33242834Y-176570000D02*
X33306498Y-176678849D01*
X33182923Y-176459041D02*
X33242834Y-176570000D01*
X33126835Y-176346101D02*
X33182923Y-176459041D01*
X33074637Y-176231311D02*
X33126835Y-176346101D01*
X33026388Y-176114807D02*
X33074637Y-176231311D01*
X32982144Y-175996723D02*
X33026388Y-176114807D01*
X32941959Y-175877197D02*
X32982144Y-175996723D01*
X32905877Y-175756369D02*
X32941959Y-175877197D01*
X32873942Y-175634380D02*
X32905877Y-175756369D01*
X32846191Y-175511371D02*
X32873942Y-175634380D01*
X32822656Y-175387487D02*
X32846191Y-175511371D01*
X32803364Y-175262871D02*
X32822656Y-175387487D01*
X32788338Y-175137669D02*
X32803364Y-175262871D01*
X32777596Y-175012028D02*
X32788338Y-175137669D01*
X32771149Y-174886092D02*
X32777596Y-175012028D01*
X32769006Y-174760010D02*
X32771149Y-174886092D01*
X45381190Y-176488812D02*
X53146902Y-176488812D01*
X46078698Y-174730810D02*
X45381190Y-176488812D01*
X53055892Y-174730810D02*
X46078698Y-174730810D01*
X53446286Y-173781706D02*
X53055892Y-174730810D01*
X46441333Y-173781706D02*
X53446286Y-173781706D01*
X48023992Y-169679232D02*
X46441333Y-173781706D01*
X57158366Y-169679232D02*
X48023992Y-169679232D01*
X56460506Y-171409826D02*
X57158366Y-169679232D01*
X49595055Y-171409826D02*
X56460506Y-171409826D01*
X49363841Y-172023704D02*
X49595055Y-171409826D01*
X55079896Y-172047247D02*
X49363841Y-172023704D01*
X55104510Y-172047784D02*
X55079896Y-172047247D01*
X55129089Y-172049180D02*
X55104510Y-172047784D01*
X55153605Y-172051432D02*
X55129089Y-172049180D01*
X55178027Y-172054538D02*
X55153605Y-172051432D01*
X55202326Y-172058495D02*
X55178027Y-172054538D01*
X55226472Y-172063296D02*
X55202326Y-172058495D01*
X55250436Y-172068938D02*
X55226472Y-172063296D01*
X55274189Y-172075412D02*
X55250436Y-172068938D01*
X55297701Y-172082710D02*
X55274189Y-172075412D01*
X55320945Y-172090825D02*
X55297701Y-172082710D01*
X55343891Y-172099745D02*
X55320945Y-172090825D01*
X55366511Y-172109461D02*
X55343891Y-172099745D01*
X55388780Y-172119960D02*
X55366511Y-172109461D01*
X55410668Y-172131230D02*
X55388780Y-172119960D01*
X55432150Y-172143256D02*
X55410668Y-172131230D01*
X55453199Y-172156024D02*
X55432150Y-172143256D01*
X55473789Y-172169519D02*
X55453199Y-172156024D01*
X55493897Y-172183725D02*
X55473789Y-172169519D01*
X55513496Y-172198623D02*
X55493897Y-172183725D01*
X55532564Y-172214196D02*
X55513496Y-172198623D01*
X55551077Y-172230424D02*
X55532564Y-172214196D01*
X55569013Y-172247289D02*
X55551077Y-172230424D01*
X55586349Y-172264769D02*
X55569013Y-172247289D01*
X55603065Y-172282843D02*
X55586349Y-172264769D01*
X55619140Y-172301490D02*
X55603065Y-172282843D01*
X55634554Y-172320686D02*
X55619140Y-172301490D01*
X55649290Y-172340408D02*
X55634554Y-172320686D01*
X55663328Y-172360632D02*
X55649290Y-172340408D01*
X55676653Y-172381334D02*
X55663328Y-172360632D01*
X55689246Y-172402488D02*
X55676653Y-172381334D01*
X55701095Y-172424068D02*
X55689246Y-172402488D01*
X55712183Y-172446049D02*
X55701095Y-172424068D01*
X55722497Y-172468403D02*
X55712183Y-172446049D01*
X55732026Y-172491103D02*
X55722497Y-172468403D01*
X55740756Y-172514122D02*
X55732026Y-172491103D01*
X55748678Y-172537432D02*
X55740756Y-172514122D01*
X55755782Y-172561004D02*
X55748678Y-172537432D01*
X55762060Y-172584809D02*
X55755782Y-172561004D01*
X55767503Y-172608819D02*
X55762060Y-172584809D01*
X55772104Y-172633004D02*
X55767503Y-172608819D01*
X55775860Y-172657335D02*
X55772104Y-172633004D01*
X55778764Y-172681782D02*
X55775860Y-172657335D01*
X55780814Y-172706316D02*
X55778764Y-172681782D01*
X55782006Y-172730906D02*
X55780814Y-172706316D01*
X55782339Y-172755523D02*
X55782006Y-172730906D01*
X55781814Y-172780136D02*
X55782339Y-172755523D01*
X55780430Y-172804716D02*
X55781814Y-172780136D01*
X55778190Y-172829233D02*
X55780430Y-172804716D01*
X55775095Y-172853657D02*
X55778190Y-172829233D01*
X55771150Y-172877958D02*
X55775095Y-172853657D01*
X55766360Y-172902106D02*
X55771150Y-172877958D01*
X55760730Y-172926073D02*
X55766360Y-172902106D01*
X55754268Y-172949829D02*
X55760730Y-172926073D01*
X55746980Y-172973344D02*
X55754268Y-172949829D01*
X55738877Y-172996592D02*
X55746980Y-172973344D01*
X55729967Y-173019542D02*
X55738877Y-172996592D01*
X54752401Y-175411100D02*
X55729967Y-173019542D01*
X54728592Y-175466526D02*
X54752401Y-175411100D01*
X54702869Y-175521091D02*
X54728592Y-175466526D01*
X54675264Y-175574728D02*
X54702869Y-175521091D01*
X54645811Y-175627373D02*
X54675264Y-175574728D01*
X54614545Y-175678962D02*
X54645811Y-175627373D01*
X54581505Y-175729432D02*
X54614545Y-175678962D01*
X54546729Y-175778723D02*
X54581505Y-175729432D01*
X54510260Y-175826775D02*
X54546729Y-175778723D01*
X54472142Y-175873530D02*
X54510260Y-175826775D01*
X54432421Y-175918930D02*
X54472142Y-175873530D01*
X54391146Y-175962923D02*
X54432421Y-175918930D01*
X54348366Y-176005453D02*
X54391146Y-175962923D01*
X54304133Y-176046470D02*
X54348366Y-176005453D01*
X54258500Y-176085924D02*
X54304133Y-176046470D01*
X54211523Y-176123767D02*
X54258500Y-176085924D01*
X54163259Y-176159954D02*
X54211523Y-176123767D01*
X54113765Y-176194441D02*
X54163259Y-176159954D01*
X54063102Y-176227186D02*
X54113765Y-176194441D01*
X54011331Y-176258149D02*
X54063102Y-176227186D01*
X53958515Y-176287293D02*
X54011331Y-176258149D01*
X53904717Y-176314583D02*
X53958515Y-176287293D01*
X53850002Y-176339986D02*
X53904717Y-176314583D01*
X53794438Y-176363471D02*
X53850002Y-176339986D01*
X53738090Y-176385009D02*
X53794438Y-176363471D01*
X53681028Y-176404575D02*
X53738090Y-176385009D01*
X53623319Y-176422145D02*
X53681028Y-176404575D01*
X53565035Y-176437698D02*
X53623319Y-176422145D01*
X53506245Y-176451214D02*
X53565035Y-176437698D01*
X53447020Y-176462678D02*
X53506245Y-176451214D01*
X53387433Y-176472075D02*
X53447020Y-176462678D01*
X53327555Y-176479395D02*
X53387433Y-176472075D01*
X53267459Y-176484628D02*
X53327555Y-176479395D01*
X53207217Y-176487769D02*
X53267459Y-176484628D01*
X53146902Y-176488812D02*
X53207217Y-176487769D01*
X35550242Y-180217038D02*
X35653388Y-180236067D01*
X34871195Y-180047019D02*
X35550242Y-180217038D01*
X34710295Y-180002072D02*
X34871195Y-180047019D01*
X34551026Y-179951652D02*
X34710295Y-180002072D01*
X34393573Y-179895817D02*
X34551026Y-179951652D01*
X34238120Y-179834632D02*
X34393573Y-179895817D01*
X34084850Y-179768170D02*
X34238120Y-179834632D01*
X33933941Y-179696507D02*
X34084850Y-179768170D01*
X33785570Y-179619728D02*
X33933941Y-179696507D01*
X33639911Y-179537922D02*
X33785570Y-179619728D01*
X33497132Y-179451185D02*
X33639911Y-179537922D01*
X33357402Y-179359618D02*
X33497132Y-179451185D01*
X33220883Y-179263329D02*
X33357402Y-179359618D01*
X33087736Y-179162429D02*
X33220883Y-179263329D01*
X32958115Y-179057037D02*
X33087736Y-179162429D01*
X32832173Y-178947276D02*
X32958115Y-179057037D01*
X32710056Y-178833274D02*
X32832173Y-178947276D01*
X32591908Y-178715164D02*
X32710056Y-178833274D01*
X32477865Y-178593085D02*
X32591908Y-178715164D01*
X32368062Y-178467179D02*
X32477865Y-178593085D01*
X32262627Y-178337593D02*
X32368062Y-178467179D01*
X32161683Y-178204479D02*
X32262627Y-178337593D01*
X32065348Y-178067993D02*
X32161683Y-178204479D01*
X31967393Y-177922061D02*
X32065348Y-178067993D01*
X31874407Y-177772914D02*
X31967393Y-177922061D01*
X31786497Y-177620720D02*
X31874407Y-177772914D01*
X31703762Y-177465651D02*
X31786497Y-177620720D01*
X31626295Y-177307885D02*
X31703762Y-177465651D01*
X31554186Y-177147599D02*
X31626295Y-177307885D01*
X31487515Y-176984976D02*
X31554186Y-177147599D01*
X31426359Y-176820200D02*
X31487515Y-176984976D01*
X31370786Y-176653457D02*
X31426359Y-176820200D01*
X31320860Y-176484938D02*
X31370786Y-176653457D01*
X31276637Y-176314834D02*
X31320860Y-176484938D01*
X31238168Y-176143336D02*
X31276637Y-176314834D01*
X31205495Y-175970640D02*
X31238168Y-176143336D01*
X31178657Y-175796942D02*
X31205495Y-175970640D01*
X31157684Y-175622439D02*
X31178657Y-175796942D01*
X31142599Y-175447328D02*
X31157684Y-175622439D01*
X31125517Y-175257417D02*
X31142599Y-175447328D01*
X31114716Y-175067045D02*
X31125517Y-175257417D01*
X31110210Y-174876420D02*
X31114716Y-175067045D01*
X31112003Y-174685750D02*
X31110210Y-174876420D01*
X31120092Y-174495243D02*
X31112003Y-174685750D01*
X31134470Y-174305107D02*
X31120092Y-174495243D01*
X31155121Y-174115551D02*
X31134470Y-174305107D01*
X31182021Y-173926779D02*
X31155121Y-174115551D01*
X31215142Y-173739000D02*
X31182021Y-173926779D01*
X31254447Y-173552416D02*
X31215142Y-173739000D01*
X31299894Y-173367233D02*
X31254447Y-173552416D01*
X31351432Y-173183652D02*
X31299894Y-173367233D01*
X31409007Y-173001874D02*
X31351432Y-173183652D01*
X31472554Y-172822096D02*
X31409007Y-173001874D01*
X30729559Y-172567263D02*
X31472554Y-172822096D01*
X29979732Y-172333294D02*
X30729559Y-172567263D01*
X29223660Y-172120371D02*
X29979732Y-172333294D01*
X29116486Y-171877912D02*
X29223660Y-172120371D01*
X29046560Y-171064796D02*
X29116486Y-171877912D01*
X28922519Y-170188430D02*
X29046560Y-171064796D01*
X28674438Y-168748436D02*
X28922519Y-170188430D01*
X28383136Y-166903288D02*
X28674438Y-168748436D01*
X28379847Y-166895122D02*
X28383136Y-166903288D01*
X28376844Y-166886846D02*
X28379847Y-166895122D01*
X28374128Y-166878471D02*
X28376844Y-166886846D01*
X28371705Y-166870007D02*
X28374128Y-166878471D01*
X28369576Y-166861464D02*
X28371705Y-166870007D01*
X28367745Y-166852852D02*
X28369576Y-166861464D01*
X28366213Y-166844183D02*
X28367745Y-166852852D01*
X28364982Y-166835465D02*
X28366213Y-166844183D01*
X28364054Y-166826710D02*
X28364982Y-166835465D01*
X28363430Y-166817928D02*
X28364054Y-166826710D01*
X28363110Y-166809130D02*
X28363430Y-166817928D01*
X28363095Y-166800325D02*
X28363110Y-166809130D01*
X28363386Y-166791526D02*
X28363095Y-166800325D01*
X28363981Y-166782742D02*
X28363386Y-166791526D01*
X28364880Y-166773984D02*
X28363981Y-166782742D01*
X28366082Y-166765262D02*
X28364880Y-166773984D01*
X28367586Y-166756588D02*
X28366082Y-166765262D01*
X28369389Y-166747970D02*
X28367586Y-166756588D01*
X28371489Y-166739420D02*
X28369389Y-166747970D01*
X28373885Y-166730948D02*
X28371489Y-166739420D01*
X28376572Y-166722564D02*
X28373885Y-166730948D01*
X28379549Y-166714279D02*
X28376572Y-166722564D01*
X28382810Y-166706101D02*
X28379549Y-166714279D01*
X28386353Y-166698041D02*
X28382810Y-166706101D01*
X28390173Y-166690109D02*
X28386353Y-166698041D01*
X28394266Y-166682314D02*
X28390173Y-166690109D01*
X28398626Y-166674665D02*
X28394266Y-166682314D01*
X28403249Y-166667172D02*
X28398626Y-166674665D01*
X28408128Y-166659844D02*
X28403249Y-166667172D01*
X28413258Y-166652689D02*
X28408128Y-166659844D01*
X28418634Y-166645716D02*
X28413258Y-166652689D01*
X28424247Y-166638934D02*
X28418634Y-166645716D01*
X28430092Y-166632350D02*
X28424247Y-166638934D01*
X28436162Y-166625973D02*
X28430092Y-166632350D01*
X28442449Y-166619809D02*
X28436162Y-166625973D01*
X28448945Y-166613867D02*
X28442449Y-166619809D01*
X28455644Y-166608154D02*
X28448945Y-166613867D01*
X28462537Y-166602677D02*
X28455644Y-166608154D01*
X28469615Y-166597441D02*
X28462537Y-166602677D01*
X28476870Y-166592454D02*
X28469615Y-166597441D01*
X28484294Y-166587721D02*
X28476870Y-166592454D01*
X28491877Y-166583248D02*
X28484294Y-166587721D01*
X28499611Y-166579041D02*
X28491877Y-166583248D01*
X28507486Y-166575104D02*
X28499611Y-166579041D01*
X28515492Y-166571442D02*
X28507486Y-166575104D01*
X28523621Y-166568060D02*
X28515492Y-166571442D01*
X28531862Y-166564961D02*
X28523621Y-166568060D01*
X28540205Y-166562150D02*
X28531862Y-166564961D01*
X28548640Y-166559629D02*
X28540205Y-166562150D01*
X28666624Y-166517702D02*
X28548640Y-166559629D01*
X28783090Y-166471729D02*
X28666624Y-166517702D01*
X28897900Y-166421764D02*
X28783090Y-166471729D01*
X29010918Y-166367867D02*
X28897900Y-166421764D01*
X29122008Y-166310102D02*
X29010918Y-166367867D01*
X29231039Y-166248538D02*
X29122008Y-166310102D01*
X29337881Y-166183248D02*
X29231039Y-166248538D01*
X29442406Y-166114310D02*
X29337881Y-166183248D01*
X29544490Y-166041807D02*
X29442406Y-166114310D01*
X29644011Y-165965824D02*
X29544490Y-166041807D01*
X29740851Y-165886452D02*
X29644011Y-165965824D01*
X29834894Y-165803786D02*
X29740851Y-165886452D01*
X29926029Y-165717923D02*
X29834894Y-165803786D01*
X30014147Y-165628967D02*
X29926029Y-165717923D01*
X30099142Y-165537023D02*
X30014147Y-165628967D01*
X30180914Y-165442201D02*
X30099142Y-165537023D01*
X30259366Y-165344614D02*
X30180914Y-165442201D01*
X30334403Y-165244378D02*
X30259366Y-165344614D01*
X30339018Y-165234816D02*
X30334403Y-165244378D01*
X30343960Y-165225420D02*
X30339018Y-165234816D01*
X30349223Y-165216199D02*
X30343960Y-165225420D01*
X30354800Y-165207165D02*
X30349223Y-165216199D01*
X30360685Y-165198328D02*
X30354800Y-165207165D01*
X30366871Y-165189699D02*
X30360685Y-165198328D01*
X30373351Y-165181289D02*
X30366871Y-165189699D01*
X30380116Y-165173106D02*
X30373351Y-165181289D01*
X30387159Y-165165162D02*
X30380116Y-165173106D01*
X30394471Y-165157464D02*
X30387159Y-165165162D01*
X30402045Y-165150023D02*
X30394471Y-165157464D01*
X30409869Y-165142848D02*
X30402045Y-165150023D01*
X30417937Y-165135946D02*
X30409869Y-165142848D01*
X30426237Y-165129326D02*
X30417937Y-165135946D01*
X30434761Y-165122995D02*
X30426237Y-165129326D01*
X30443497Y-165116962D02*
X30434761Y-165122995D01*
X30452436Y-165111234D02*
X30443497Y-165116962D01*
X30461567Y-165105817D02*
X30452436Y-165111234D01*
X30470879Y-165100717D02*
X30461567Y-165105817D01*
X30480362Y-165095941D02*
X30470879Y-165100717D01*
X30490003Y-165091495D02*
X30480362Y-165095941D01*
X30499791Y-165087383D02*
X30490003Y-165091495D01*
X30509715Y-165083611D02*
X30499791Y-165087383D01*
X30519764Y-165080183D02*
X30509715Y-165083611D01*
X30529924Y-165077103D02*
X30519764Y-165080183D01*
X30540185Y-165074375D02*
X30529924Y-165077103D01*
X30550533Y-165072002D02*
X30540185Y-165074375D01*
X30560957Y-165069986D02*
X30550533Y-165072002D01*
X30571444Y-165068331D02*
X30560957Y-165069986D01*
X30581982Y-165067038D02*
X30571444Y-165068331D01*
X30592558Y-165066108D02*
X30581982Y-165067038D01*
X30603160Y-165065544D02*
X30592558Y-165066108D01*
X30613775Y-165065345D02*
X30603160Y-165065544D01*
X30624391Y-165065511D02*
X30613775Y-165065345D01*
X30634995Y-165066043D02*
X30624391Y-165065511D01*
X30645574Y-165066940D02*
X30634995Y-165066043D01*
X30656116Y-165068201D02*
X30645574Y-165066940D01*
X30666608Y-165069824D02*
X30656116Y-165068201D01*
X30677038Y-165071807D02*
X30666608Y-165069824D01*
X30687394Y-165074149D02*
X30677038Y-165071807D01*
X30697663Y-165076846D02*
X30687394Y-165074149D01*
X30707832Y-165079894D02*
X30697663Y-165076846D01*
X30717891Y-165083292D02*
X30707832Y-165079894D01*
X30727827Y-165087033D02*
X30717891Y-165083292D01*
X30737628Y-165091115D02*
X30727827Y-165087033D01*
X30747283Y-165095532D02*
X30737628Y-165091115D01*
X30756780Y-165100278D02*
X30747283Y-165095532D01*
X30766107Y-165105349D02*
X30756780Y-165100278D01*
X30775255Y-165110738D02*
X30766107Y-165105349D01*
X30784211Y-165116439D02*
X30775255Y-165110738D01*
X30792966Y-165122445D02*
X30784211Y-165116439D01*
X31425116Y-165714888D02*
X30792966Y-165122445D01*
X31473584Y-165762882D02*
X31425116Y-165714888D01*
X31523668Y-165809186D02*
X31473584Y-165762882D01*
X31575309Y-165853747D02*
X31523668Y-165809186D01*
X31628448Y-165896511D02*
X31575309Y-165853747D01*
X31683021Y-165937429D02*
X31628448Y-165896511D01*
X31738965Y-165976452D02*
X31683021Y-165937429D01*
X31796213Y-166013535D02*
X31738965Y-165976452D01*
X31854698Y-166048634D02*
X31796213Y-166013535D01*
X31914352Y-166081707D02*
X31854698Y-166048634D01*
X31975105Y-166112717D02*
X31914352Y-166081707D01*
X32036885Y-166141626D02*
X31975105Y-166112717D01*
X32099619Y-166168400D02*
X32036885Y-166141626D01*
X32163234Y-166193009D02*
X32099619Y-166168400D01*
X32227656Y-166215423D02*
X32163234Y-166193009D01*
X32292808Y-166235615D02*
X32227656Y-166215423D01*
X32358613Y-166253563D02*
X32292808Y-166235615D01*
X32424995Y-166269245D02*
X32358613Y-166253563D01*
X32491876Y-166282642D02*
X32424995Y-166269245D01*
X32559176Y-166293739D02*
X32491876Y-166282642D01*
X32626817Y-166302522D02*
X32559176Y-166293739D01*
X32694720Y-166308982D02*
X32626817Y-166302522D01*
X32762804Y-166313111D02*
X32694720Y-166308982D01*
X32830989Y-166314904D02*
X32762804Y-166313111D01*
X32899196Y-166314359D02*
X32830989Y-166314904D01*
X36217017Y-166305926D02*
X32899196Y-166314359D01*
X36262237Y-166300916D02*
X36217017Y-166305926D01*
X36307602Y-166297460D02*
X36262237Y-166300916D01*
X36353058Y-166295562D02*
X36307602Y-166297460D01*
X36398553Y-166295225D02*
X36353058Y-166295562D01*
X36444033Y-166296450D02*
X36398553Y-166295225D01*
X36489444Y-166299233D02*
X36444033Y-166296450D01*
X36534733Y-166303573D02*
X36489444Y-166299233D01*
X36579846Y-166309464D02*
X36534733Y-166303573D01*
X36624731Y-166316900D02*
X36579846Y-166309464D01*
X36669334Y-166325870D02*
X36624731Y-166316900D01*
X36713603Y-166336366D02*
X36669334Y-166325870D01*
X36757486Y-166348374D02*
X36713603Y-166336366D01*
X36800931Y-166361881D02*
X36757486Y-166348374D01*
X36843887Y-166376871D02*
X36800931Y-166361881D01*
X36886303Y-166393325D02*
X36843887Y-166376871D01*
X36928130Y-166411224D02*
X36886303Y-166393325D01*
X36969319Y-166430548D02*
X36928130Y-166411224D01*
X37009820Y-166451274D02*
X36969319Y-166430548D01*
X37049586Y-166473377D02*
X37009820Y-166451274D01*
X37088571Y-166496832D02*
X37049586Y-166473377D01*
X37126728Y-166521610D02*
X37088571Y-166496832D01*
X37164013Y-166547682D02*
X37126728Y-166521610D01*
X37211086Y-166573659D02*
X37164013Y-166547682D01*
X37258965Y-166598123D02*
X37211086Y-166573659D01*
X37307599Y-166621047D02*
X37258965Y-166598123D01*
X37356939Y-166642408D02*
X37307599Y-166621047D01*
X37406935Y-166662185D02*
X37356939Y-166642408D01*
X37457537Y-166680358D02*
X37406935Y-166662185D01*
X37508692Y-166696908D02*
X37457537Y-166680358D01*
X37560349Y-166711819D02*
X37508692Y-166696908D01*
X37612455Y-166725074D02*
X37560349Y-166711819D01*
X37664958Y-166736661D02*
X37612455Y-166725074D01*
X37717803Y-166746569D02*
X37664958Y-166736661D01*
X37768056Y-166704281D02*
X37717803Y-166746569D01*
X37819721Y-166663730D02*
X37768056Y-166704281D01*
X37872738Y-166624964D02*
X37819721Y-166663730D01*
X37927046Y-166588026D02*
X37872738Y-166624964D01*
X37982580Y-166552960D02*
X37927046Y-166588026D01*
X38039277Y-166519807D02*
X37982580Y-166552960D01*
X38097070Y-166488606D02*
X38039277Y-166519807D01*
X38155893Y-166459391D02*
X38097070Y-166488606D01*
X38215678Y-166432198D02*
X38155893Y-166459391D01*
X38276354Y-166407058D02*
X38215678Y-166432198D01*
X38337852Y-166384000D02*
X38276354Y-166407058D01*
X38400100Y-166363050D02*
X38337852Y-166384000D01*
X38463025Y-166344234D02*
X38400100Y-166363050D01*
X38526555Y-166327574D02*
X38463025Y-166344234D01*
X38590616Y-166313087D02*
X38526555Y-166327574D01*
X38655133Y-166300792D02*
X38590616Y-166313087D01*
X38720032Y-166290702D02*
X38655133Y-166300792D01*
X38785237Y-166282830D02*
X38720032Y-166290702D01*
X38850672Y-166277184D02*
X38785237Y-166282830D01*
X38916262Y-166273771D02*
X38850672Y-166277184D01*
X38981930Y-166272594D02*
X38916262Y-166273771D01*
X39047600Y-166273656D02*
X38981930Y-166272594D01*
X39113195Y-166276956D02*
X39047600Y-166273656D01*
X39178640Y-166282488D02*
X39113195Y-166276956D01*
X39243858Y-166290247D02*
X39178640Y-166282488D01*
X39308775Y-166300224D02*
X39243858Y-166290247D01*
X39373313Y-166312407D02*
X39308775Y-166300224D01*
X39437399Y-166326782D02*
X39373313Y-166312407D01*
X39500958Y-166343333D02*
X39437399Y-166326782D01*
X39563916Y-166362039D02*
X39500958Y-166343333D01*
X39626200Y-166382880D02*
X39563916Y-166362039D01*
X39654925Y-166388366D02*
X39626200Y-166382880D01*
X39683444Y-166394842D02*
X39654925Y-166388366D01*
X39711721Y-166402300D02*
X39683444Y-166394842D01*
X39739724Y-166410732D02*
X39711721Y-166402300D01*
X39767418Y-166420127D02*
X39739724Y-166410732D01*
X39794771Y-166430475D02*
X39767418Y-166420127D01*
X39821750Y-166441762D02*
X39794771Y-166430475D01*
X39848322Y-166453975D02*
X39821750Y-166441762D01*
X39874456Y-166467100D02*
X39848322Y-166453975D01*
X39900120Y-166481121D02*
X39874456Y-166467100D01*
X39925284Y-166496021D02*
X39900120Y-166481121D01*
X39949918Y-166511782D02*
X39925284Y-166496021D01*
X39973992Y-166528386D02*
X39949918Y-166511782D01*
X39997477Y-166545813D02*
X39973992Y-166528386D01*
X40020346Y-166564041D02*
X39997477Y-166545813D01*
X40042570Y-166583049D02*
X40020346Y-166564041D01*
X40064124Y-166602815D02*
X40042570Y-166583049D01*
X40084982Y-166623314D02*
X40064124Y-166602815D01*
X40105118Y-166644522D02*
X40084982Y-166623314D01*
X40124508Y-166666414D02*
X40105118Y-166644522D01*
X40143130Y-166688963D02*
X40124508Y-166666414D01*
X40160961Y-166712143D02*
X40143130Y-166688963D01*
X40177980Y-166735925D02*
X40160961Y-166712143D01*
X40194166Y-166760282D02*
X40177980Y-166735925D01*
X40209500Y-166785184D02*
X40194166Y-166760282D01*
X40223963Y-166810602D02*
X40209500Y-166785184D01*
X40237539Y-166836504D02*
X40223963Y-166810602D01*
X40250211Y-166862861D02*
X40237539Y-166836504D01*
X40261964Y-166889640D02*
X40250211Y-166862861D01*
X40272784Y-166916809D02*
X40261964Y-166889640D01*
X40282658Y-166944336D02*
X40272784Y-166916809D01*
X40291574Y-166972189D02*
X40282658Y-166944336D01*
X40299521Y-167000333D02*
X40291574Y-166972189D01*
X40306491Y-167028734D02*
X40299521Y-167000333D01*
X40505377Y-168748436D02*
X40306491Y-167028734D01*
X40696884Y-170469542D02*
X40505377Y-168748436D01*
X40845874Y-171121721D02*
X40696884Y-170469542D01*
X40946992Y-171120694D02*
X40845874Y-171121721D01*
X41048016Y-171116199D02*
X40946992Y-171120694D01*
X41148827Y-171108239D02*
X41048016Y-171116199D01*
X41249305Y-171096826D02*
X41148827Y-171108239D01*
X41349332Y-171081972D02*
X41249305Y-171096826D01*
X41448790Y-171063695D02*
X41349332Y-171081972D01*
X41547563Y-171042016D02*
X41448790Y-171063695D01*
X41645534Y-171016961D02*
X41547563Y-171042016D01*
X41742588Y-170988560D02*
X41645534Y-171016961D01*
X41838610Y-170956846D02*
X41742588Y-170988560D01*
X41933487Y-170921855D02*
X41838610Y-170956846D01*
X42027109Y-170883630D02*
X41933487Y-170921855D01*
X42119363Y-170842216D02*
X42027109Y-170883630D01*
X42210142Y-170797660D02*
X42119363Y-170842216D01*
X42299340Y-170750017D02*
X42210142Y-170797660D01*
X42386850Y-170699341D02*
X42299340Y-170750017D01*
X42472569Y-170645692D02*
X42386850Y-170699341D01*
X42556398Y-170589134D02*
X42472569Y-170645692D01*
X42638237Y-170529733D02*
X42556398Y-170589134D01*
X42717990Y-170467560D02*
X42638237Y-170529733D01*
X42795562Y-170402686D02*
X42717990Y-170467560D01*
X42870863Y-170335189D02*
X42795562Y-170402686D01*
X42943804Y-170265149D02*
X42870863Y-170335189D01*
X43014299Y-170192647D02*
X42943804Y-170265149D01*
X43077660Y-170117176D02*
X43014299Y-170192647D01*
X43138360Y-170039548D02*
X43077660Y-170117176D01*
X43196324Y-169959856D02*
X43138360Y-170039548D01*
X43251484Y-169878199D02*
X43196324Y-169959856D01*
X43303771Y-169794673D02*
X43251484Y-169878199D01*
X43353124Y-169709380D02*
X43303771Y-169794673D01*
X43399483Y-169622423D02*
X43353124Y-169709380D01*
X43442790Y-169533908D02*
X43399483Y-169622423D01*
X43482995Y-169443941D02*
X43442790Y-169533908D01*
X43520049Y-169352630D02*
X43482995Y-169443941D01*
X43553906Y-169260087D02*
X43520049Y-169352630D01*
X43584526Y-169166423D02*
X43553906Y-169260087D01*
X43611872Y-169071751D02*
X43584526Y-169166423D01*
X43635910Y-168976186D02*
X43611872Y-169071751D01*
X43656612Y-168879843D02*
X43635910Y-168976186D01*
X43673953Y-168782838D02*
X43656612Y-168879843D01*
X43687912Y-168685290D02*
X43673953Y-168782838D01*
X43698472Y-168587315D02*
X43687912Y-168685290D01*
X43705619Y-168489033D02*
X43698472Y-168587315D01*
X43709347Y-168390561D02*
X43705619Y-168489033D01*
X43709649Y-168292019D02*
X43709347Y-168390561D01*
X43706525Y-168193527D02*
X43709649Y-168292019D01*
X43699980Y-168095202D02*
X43706525Y-168193527D01*
X43690022Y-167997164D02*
X43699980Y-168095202D01*
X44825010Y-167997164D02*
X43690022Y-167997164D01*
X45668697Y-167989785D02*
X44825010Y-167997164D01*
X48549741Y-167433184D02*
X45668697Y-167989785D01*
X50741007Y-166996407D02*
X48549741Y-167433184D01*
X52117752Y-166744109D02*
X50741007Y-166996407D01*
X53993470Y-166360040D02*
X52117752Y-166744109D01*
X54642979Y-166144179D02*
X53993470Y-166360040D01*
X55297971Y-165945577D02*
X54642979Y-166144179D01*
X55957988Y-165764370D02*
X55297971Y-165945577D01*
X56622567Y-165600687D02*
X55957988Y-165764370D01*
X57082154Y-165512103D02*
X56622567Y-165600687D01*
X57544338Y-165438262D02*
X57082154Y-165512103D01*
X58008647Y-165379238D02*
X57544338Y-165438262D01*
X58474607Y-165335093D02*
X58008647Y-165379238D01*
X58941739Y-165305871D02*
X58474607Y-165335093D01*
X59755558Y-165301654D02*
X58941739Y-165305871D01*
X60183550Y-165220132D02*
X59755558Y-165301654D01*
X59749233Y-164130472D02*
X60183550Y-165220132D01*
X60487151Y-163630445D02*
X59749233Y-164130472D01*
X61611247Y-163630445D02*
X60487151Y-163630445D01*
X62178038Y-164180370D02*
X61611247Y-163630445D01*
X62193499Y-164333224D02*
X62178038Y-164180370D01*
X62185543Y-164351552D02*
X62193499Y-164333224D01*
X62178220Y-164370142D02*
X62185543Y-164351552D01*
X62171539Y-164388972D02*
X62178220Y-164370142D01*
X62165507Y-164408020D02*
X62171539Y-164388972D01*
X62160132Y-164427264D02*
X62165507Y-164408020D01*
X62155420Y-164446681D02*
X62160132Y-164427264D01*
X62151377Y-164466248D02*
X62155420Y-164446681D01*
X62148007Y-164485942D02*
X62151377Y-164466248D01*
X62145315Y-164505740D02*
X62148007Y-164485942D01*
X62143303Y-164525619D02*
X62145315Y-164505740D01*
X62141975Y-164545555D02*
X62143303Y-164525619D01*
X62141330Y-164565525D02*
X62141975Y-164545555D01*
X62141371Y-164585505D02*
X62141330Y-164565525D01*
X62142097Y-164605472D02*
X62141371Y-164585505D01*
X62143507Y-164625402D02*
X62142097Y-164605472D01*
X62145600Y-164645273D02*
X62143507Y-164625402D01*
X62148373Y-164665060D02*
X62145600Y-164645273D01*
X62151824Y-164684740D02*
X62148373Y-164665060D01*
X62155947Y-164704290D02*
X62151824Y-164684740D01*
X62160738Y-164723688D02*
X62155947Y-164704290D01*
X62166191Y-164742909D02*
X62160738Y-164723688D01*
X62172300Y-164761933D02*
X62166191Y-164742909D01*
X62179059Y-164780735D02*
X62172300Y-164761933D01*
X62186458Y-164799295D02*
X62179059Y-164780735D01*
X62194489Y-164817590D02*
X62186458Y-164799295D01*
X62203143Y-164835599D02*
X62194489Y-164817590D01*
X62212409Y-164853301D02*
X62203143Y-164835599D01*
X62222277Y-164870674D02*
X62212409Y-164853301D01*
X62232735Y-164887699D02*
X62222277Y-164870674D01*
X62243771Y-164904355D02*
X62232735Y-164887699D01*
X62255371Y-164920623D02*
X62243771Y-164904355D01*
X62267523Y-164936483D02*
X62255371Y-164920623D01*
X62280211Y-164951918D02*
X62267523Y-164936483D01*
X62293421Y-164966908D02*
X62280211Y-164951918D01*
X62307137Y-164981436D02*
X62293421Y-164966908D01*
X62321344Y-164995486D02*
X62307137Y-164981436D01*
X62336024Y-165009040D02*
X62321344Y-164995486D01*
X62351160Y-165022082D02*
X62336024Y-165009040D01*
X62366734Y-165034598D02*
X62351160Y-165022082D01*
X62389063Y-165060034D02*
X62366734Y-165034598D01*
X62412252Y-165084689D02*
X62389063Y-165060034D01*
X62436274Y-165108532D02*
X62412252Y-165084689D01*
X62461100Y-165131536D02*
X62436274Y-165108532D01*
X62486703Y-165153674D02*
X62461100Y-165131536D01*
X62513050Y-165174919D02*
X62486703Y-165153674D01*
X62540112Y-165195247D02*
X62513050Y-165174919D01*
X62567856Y-165214633D02*
X62540112Y-165195247D01*
X62596250Y-165233055D02*
X62567856Y-165214633D01*
X62625260Y-165250491D02*
X62596250Y-165233055D01*
X62654851Y-165266920D02*
X62625260Y-165250491D01*
X62684989Y-165282322D02*
X62654851Y-165266920D01*
X62715639Y-165296681D02*
X62684989Y-165282322D01*
X62746763Y-165309978D02*
X62715639Y-165296681D01*
X62778326Y-165322198D02*
X62746763Y-165309978D01*
X62810291Y-165333327D02*
X62778326Y-165322198D01*
X62842618Y-165343352D02*
X62810291Y-165333327D01*
X62875271Y-165352260D02*
X62842618Y-165343352D01*
X62908210Y-165360041D02*
X62875271Y-165352260D01*
X62941398Y-165366687D02*
X62908210Y-165360041D01*
X62974794Y-165372188D02*
X62941398Y-165366687D01*
X63008359Y-165376539D02*
X62974794Y-165372188D01*
X63042054Y-165379735D02*
X63008359Y-165376539D01*
X63075839Y-165381771D02*
X63042054Y-165379735D01*
X63196944Y-165379619D02*
X63075839Y-165381771D01*
X63318053Y-165381559D02*
X63196944Y-165379619D01*
X63439028Y-165387589D02*
X63318053Y-165381559D01*
X63559729Y-165397702D02*
X63439028Y-165387589D01*
X63680020Y-165411886D02*
X63559729Y-165397702D01*
X63799764Y-165430126D02*
X63680020Y-165411886D01*
X63918823Y-165452400D02*
X63799764Y-165430126D01*
X63918823Y-167433887D02*
X63918823Y-165452400D01*
X63762103Y-167494326D02*
X63918823Y-167433887D01*
X62385007Y-167682671D02*
X63762103Y-167494326D01*
X62359281Y-167684414D02*
X62385007Y-167682671D01*
X62333631Y-167687042D02*
X62359281Y-167684414D01*
X62308086Y-167690551D02*
X62333631Y-167687042D01*
X62282677Y-167694936D02*
X62308086Y-167690551D01*
X62257434Y-167700193D02*
X62282677Y-167694936D01*
X62232386Y-167706316D02*
X62257434Y-167700193D01*
X62207565Y-167713296D02*
X62232386Y-167706316D01*
X62182998Y-167721127D02*
X62207565Y-167713296D01*
X62158715Y-167729798D02*
X62182998Y-167721127D01*
X62134745Y-167739299D02*
X62158715Y-167729798D01*
X62111115Y-167749620D02*
X62134745Y-167739299D01*
X62087855Y-167760747D02*
X62111115Y-167749620D01*
X62064992Y-167772668D02*
X62087855Y-167760747D01*
X62042552Y-167785369D02*
X62064992Y-167772668D01*
X62020563Y-167798834D02*
X62042552Y-167785369D01*
X61999050Y-167813048D02*
X62020563Y-167798834D01*
X61978038Y-167827994D02*
X61999050Y-167813048D01*
X61957553Y-167843653D02*
X61978038Y-167827994D01*
X61937620Y-167860008D02*
X61957553Y-167843653D01*
X61918260Y-167877040D02*
X61937620Y-167860008D01*
X61899498Y-167894727D02*
X61918260Y-167877040D01*
X61881356Y-167913049D02*
X61899498Y-167894727D01*
X61863855Y-167931985D02*
X61881356Y-167913049D01*
X61847016Y-167951512D02*
X61863855Y-167931985D01*
X61830859Y-167971606D02*
X61847016Y-167951512D01*
X61815402Y-167992245D02*
X61830859Y-167971606D01*
X61800665Y-168013403D02*
X61815402Y-167992245D01*
X61786664Y-168035055D02*
X61800665Y-168013403D01*
X61773417Y-168057177D02*
X61786664Y-168035055D01*
X61760939Y-168079741D02*
X61773417Y-168057177D01*
X62228287Y-168119799D02*
X61760939Y-168079741D01*
X62471771Y-168088156D02*
X62228287Y-168119799D01*
X62716200Y-168064916D02*
X62471771Y-168088156D01*
X62961285Y-168050106D02*
X62716200Y-168064916D01*
X63206734Y-168043744D02*
X62961285Y-168050106D01*
X63452256Y-168045837D02*
X63206734Y-168043744D01*
X63697561Y-168056384D02*
X63452256Y-168045837D01*
X63942358Y-168075370D02*
X63697561Y-168056384D01*
X64186355Y-168102775D02*
X63942358Y-168075370D01*
X64429264Y-168138565D02*
X64186355Y-168102775D01*
X64670797Y-168182698D02*
X64429264Y-168138565D01*
X64857736Y-168183752D02*
X64670797Y-168182698D01*
X67080276Y-167840093D02*
X64857736Y-168183752D01*
X69178072Y-167500299D02*
X67080276Y-167840093D01*
X72808982Y-167061765D02*
X69178072Y-167500299D01*
X72913534Y-167046938D02*
X72808982Y-167061765D01*
X73018536Y-167035731D02*
X72913534Y-167046938D01*
X73123862Y-167028156D02*
X73018536Y-167035731D01*
X73229387Y-167024224D02*
X73123862Y-167028156D01*
X73334985Y-167023938D02*
X73229387Y-167024224D01*
X73440530Y-167027299D02*
X73334985Y-167023938D01*
X73545895Y-167034303D02*
X73440530Y-167027299D01*
X73650957Y-167044941D02*
X73545895Y-167034303D01*
X73755587Y-167059202D02*
X73650957Y-167044941D01*
X73859664Y-167077068D02*
X73755587Y-167059202D01*
X73963061Y-167098517D02*
X73859664Y-167077068D01*
X74065655Y-167123524D02*
X73963061Y-167098517D01*
X74167325Y-167152059D02*
X74065655Y-167123524D01*
X74267949Y-167184088D02*
X74167325Y-167152059D01*
X74367406Y-167219574D02*
X74267949Y-167184088D01*
X74465579Y-167258473D02*
X74367406Y-167219574D01*
X74562349Y-167300739D02*
X74465579Y-167258473D01*
X74657603Y-167346322D02*
X74562349Y-167300739D01*
X74751225Y-167395167D02*
X74657603Y-167346322D01*
X74843105Y-167447216D02*
X74751225Y-167395167D01*
X74933132Y-167502408D02*
X74843105Y-167447216D01*
X75632428Y-167960848D02*
X74933132Y-167502408D01*
X76315343Y-168443351D02*
X75632428Y-167960848D01*
X76981049Y-168949332D02*
X76315343Y-168443351D01*
X77628740Y-169478180D02*
X76981049Y-168949332D01*
X78257630Y-170029251D02*
X77628740Y-169478180D01*
X78600938Y-170242896D02*
X78257630Y-170029251D01*
X79444624Y-170344096D02*
X78600938Y-170242896D01*
X81791907Y-170567580D02*
X79444624Y-170344096D01*
X83795180Y-170847989D02*
X81791907Y-170567580D01*
X84580275Y-170965798D02*
X83795180Y-170847989D01*
X85361527Y-171106864D02*
X84580275Y-170965798D01*
X86138246Y-171271062D02*
X85361527Y-171106864D01*
X86155475Y-171278670D02*
X86138246Y-171271062D01*
X86172955Y-171285682D02*
X86155475Y-171278670D01*
X86190666Y-171292089D02*
X86172955Y-171285682D01*
X86208586Y-171297885D02*
X86190666Y-171292089D01*
X86226695Y-171303062D02*
X86208586Y-171297885D01*
X86244971Y-171307613D02*
X86226695Y-171303062D01*
X86263392Y-171311535D02*
X86244971Y-171307613D01*
X86281937Y-171314821D02*
X86263392Y-171311535D01*
X86300584Y-171317469D02*
X86281937Y-171314821D01*
X86319311Y-171319475D02*
X86300584Y-171317469D01*
X86338096Y-171320836D02*
X86319311Y-171319475D01*
X86356916Y-171321552D02*
X86338096Y-171320836D01*
X86375750Y-171321621D02*
X86356916Y-171321552D01*
X86394575Y-171321043D02*
X86375750Y-171321621D01*
X86413369Y-171319819D02*
X86394575Y-171321043D01*
X86432110Y-171317950D02*
X86413369Y-171319819D01*
X86450776Y-171315439D02*
X86432110Y-171317950D01*
X86469345Y-171312288D02*
X86450776Y-171315439D01*
X86487794Y-171308502D02*
X86469345Y-171312288D01*
X86506103Y-171304084D02*
X86487794Y-171308502D01*
X86524249Y-171299040D02*
X86506103Y-171304084D01*
X86542211Y-171293376D02*
X86524249Y-171299040D01*
X86559968Y-171287098D02*
X86542211Y-171293376D01*
X86577499Y-171280214D02*
X86559968Y-171287098D01*
X86594783Y-171272733D02*
X86577499Y-171280214D01*
X86611801Y-171264662D02*
X86594783Y-171272733D01*
X86628530Y-171256011D02*
X86611801Y-171264662D01*
X86644953Y-171246791D02*
X86628530Y-171256011D01*
X86661050Y-171237013D02*
X86644953Y-171246791D01*
X86676801Y-171226687D02*
X86661050Y-171237013D01*
X86692189Y-171215827D02*
X86676801Y-171226687D01*
X86707194Y-171204445D02*
X86692189Y-171215827D01*
X86721800Y-171192554D02*
X86707194Y-171204445D01*
X86735989Y-171180168D02*
X86721800Y-171192554D01*
X86749744Y-171167303D02*
X86735989Y-171180168D01*
X86763049Y-171153973D02*
X86749744Y-171167303D01*
X86775889Y-171140193D02*
X86763049Y-171153973D01*
X86788247Y-171125981D02*
X86775889Y-171140193D01*
X86800111Y-171111353D02*
X86788247Y-171125981D01*
X86811465Y-171096326D02*
X86800111Y-171111353D01*
X86822296Y-171080918D02*
X86811465Y-171096326D01*
X86832592Y-171065148D02*
X86822296Y-171080918D01*
X86925359Y-170970624D02*
X86832592Y-171065148D01*
X87044532Y-170842686D02*
X86925359Y-170970624D01*
X87167907Y-170718795D02*
X87044532Y-170842686D01*
X87295347Y-170599089D02*
X87167907Y-170718795D01*
X87426710Y-170483701D02*
X87295347Y-170599089D01*
X87561849Y-170372761D02*
X87426710Y-170483701D01*
X87700614Y-170266391D02*
X87561849Y-170372761D01*
X87842852Y-170164710D02*
X87700614Y-170266391D01*
X87988402Y-170067831D02*
X87842852Y-170164710D01*
X88137103Y-169975862D02*
X87988402Y-170067831D01*
X88288790Y-169888906D02*
X88137103Y-169975862D01*
X88443294Y-169807058D02*
X88288790Y-169888906D01*
X88600443Y-169730411D02*
X88443294Y-169807058D01*
X88760061Y-169659050D02*
X88600443Y-169730411D01*
X88921971Y-169593054D02*
X88760061Y-169659050D01*
X89085993Y-169532497D02*
X88921971Y-169593054D01*
X89251944Y-169477445D02*
X89085993Y-169532497D01*
X89419640Y-169427961D02*
X89251944Y-169477445D01*
X89588893Y-169384100D02*
X89419640Y-169427961D01*
X89860631Y-169343968D02*
X89588893Y-169384100D01*
X90133546Y-169312825D02*
X89860631Y-169343968D01*
X90407340Y-169290704D02*
X90133546Y-169312825D01*
X90681715Y-169277628D02*
X90407340Y-169290704D01*
X90821014Y-169265469D02*
X90681715Y-169277628D01*
X90960639Y-169257916D02*
X90821014Y-169265469D01*
X91100437Y-169254978D02*
X90960639Y-169257916D01*
X91240255Y-169256657D02*
X91100437Y-169254978D01*
X91379942Y-169262952D02*
X91240255Y-169256657D01*
X91519345Y-169273856D02*
X91379942Y-169262952D01*
X91658312Y-169289357D02*
X91519345Y-169273856D01*
X91796692Y-169309438D02*
X91658312Y-169289357D01*
X91934333Y-169334077D02*
X91796692Y-169309438D01*
X92071085Y-169363248D02*
X91934333Y-169334077D01*
X92206799Y-169396918D02*
X92071085Y-169363248D01*
X92341328Y-169435051D02*
X92206799Y-169396918D01*
X92515273Y-169484479D02*
X92341328Y-169435051D01*
X92687476Y-169539669D02*
X92515273Y-169484479D01*
X92857746Y-169600561D02*
X92687476Y-169539669D01*
X93025896Y-169667087D02*
X92857746Y-169600561D01*
X93191737Y-169739173D02*
X93025896Y-169667087D01*
X93355088Y-169816739D02*
X93191737Y-169739173D01*
X93515765Y-169899700D02*
X93355088Y-169816739D01*
X93673593Y-169987963D02*
X93515765Y-169899700D01*
X93828395Y-170081431D02*
X93673593Y-169987963D01*
X93980000Y-170180000D02*
X93828395Y-170081431D01*
X94128240Y-170283560D02*
X93980000Y-170180000D01*
X94272950Y-170391998D02*
X94128240Y-170283560D01*
X94413971Y-170505192D02*
X94272950Y-170391998D01*
X94551147Y-170623018D02*
X94413971Y-170505192D01*
X94684324Y-170745344D02*
X94551147Y-170623018D01*
X94813355Y-170872035D02*
X94684324Y-170745344D01*
X94938098Y-171002952D02*
X94813355Y-170872035D01*
X95058204Y-171139536D02*
X94938098Y-171002952D01*
X95173777Y-171279975D02*
X95058204Y-171139536D01*
X95284695Y-171424120D02*
X95173777Y-171279975D01*
X95390839Y-171571816D02*
X95284695Y-171424120D01*
X95492095Y-171722905D02*
X95390839Y-171571816D01*
X95588354Y-171877226D02*
X95492095Y-171722905D01*
X95679514Y-172034612D02*
X95588354Y-171877226D01*
X95765476Y-172194896D02*
X95679514Y-172034612D01*
X95846150Y-172357906D02*
X95765476Y-172194896D01*
X95921449Y-172523468D02*
X95846150Y-172357906D01*
X95991291Y-172691404D02*
X95921449Y-172523468D01*
X96055603Y-172861535D02*
X95991291Y-172691404D01*
X96114316Y-173033679D02*
X96055603Y-172861535D01*
X96167366Y-173207651D02*
X96114316Y-173033679D01*
X96214697Y-173383265D02*
X96167366Y-173207651D01*
X96219009Y-173403068D02*
X96214697Y-173383265D01*
X96224010Y-173422708D02*
X96219009Y-173403068D01*
X96229694Y-173442162D02*
X96224010Y-173422708D01*
X96236052Y-173461406D02*
X96229694Y-173442162D01*
X96243077Y-173480416D02*
X96236052Y-173461406D01*
X96250761Y-173499169D02*
X96243077Y-173480416D01*
X96259095Y-173517643D02*
X96250761Y-173499169D01*
X96268068Y-173535816D02*
X96259095Y-173517643D01*
X96277669Y-173553664D02*
X96268068Y-173535816D01*
X96287888Y-173571166D02*
X96277669Y-173553664D01*
X96298710Y-173588302D02*
X96287888Y-173571166D01*
X96310123Y-173605049D02*
X96298710Y-173588302D01*
X96322114Y-173621388D02*
X96310123Y-173605049D01*
X96334667Y-173637299D02*
X96322114Y-173621388D01*
X96347768Y-173652763D02*
X96334667Y-173637299D01*
X96361400Y-173667760D02*
X96347768Y-173652763D01*
X96375547Y-173682272D02*
X96361400Y-173667760D01*
X96390191Y-173696282D02*
X96375547Y-173682272D01*
X96405316Y-173709773D02*
X96390191Y-173696282D01*
X96420901Y-173722728D02*
X96405316Y-173709773D01*
X96436929Y-173735132D02*
X96420901Y-173722728D01*
X96453380Y-173746969D02*
X96436929Y-173735132D01*
X96470234Y-173758225D02*
X96453380Y-173746969D01*
X96487470Y-173768886D02*
X96470234Y-173758225D01*
X96505067Y-173778940D02*
X96487470Y-173768886D01*
X96523004Y-173788374D02*
X96505067Y-173778940D01*
X96541260Y-173797176D02*
X96523004Y-173788374D01*
X96559811Y-173805336D02*
X96541260Y-173797176D01*
X96578636Y-173812844D02*
X96559811Y-173805336D01*
X96597711Y-173819691D02*
X96578636Y-173812844D01*
X98884555Y-174691138D02*
X96597711Y-173819691D01*
X99463646Y-174799366D02*
X98884555Y-174691138D01*
X99477865Y-174649108D02*
X99463646Y-174799366D01*
X99487241Y-174498470D02*
X99477865Y-174649108D01*
X99491766Y-174347609D02*
X99487241Y-174498470D01*
X99491433Y-174196680D02*
X99491766Y-174347609D01*
X99486243Y-174045840D02*
X99491433Y-174196680D01*
X99476202Y-173895245D02*
X99486243Y-174045840D01*
X99461320Y-173745051D02*
X99476202Y-173895245D01*
X99441612Y-173595414D02*
X99461320Y-173745051D01*
X99417099Y-173446489D02*
X99441612Y-173595414D01*
X99387806Y-173298430D02*
X99417099Y-173446489D01*
X99353764Y-173151390D02*
X99387806Y-173298430D01*
X99315008Y-173005522D02*
X99353764Y-173151390D01*
X99758813Y-173009035D02*
X99315008Y-173005522D01*
X102699242Y-173580044D02*
X99758813Y-173009035D01*
X102763855Y-173581737D02*
X102699242Y-173580044D01*
X102828373Y-173585624D02*
X102763855Y-173581737D01*
X102892722Y-173591699D02*
X102828373Y-173585624D01*
X102956828Y-173599956D02*
X102892722Y-173591699D01*
X103020616Y-173610385D02*
X102956828Y-173599956D01*
X103084014Y-173622974D02*
X103020616Y-173610385D01*
X103146947Y-173637709D02*
X103084014Y-173622974D01*
X103209344Y-173654572D02*
X103146947Y-173637709D01*
X103271132Y-173673544D02*
X103209344Y-173654572D01*
X103332240Y-173694604D02*
X103271132Y-173673544D01*
X103392598Y-173717726D02*
X103332240Y-173694604D01*
X103452136Y-173742885D02*
X103392598Y-173717726D01*
X103510785Y-173770051D02*
X103452136Y-173742885D01*
X103568478Y-173799193D02*
X103510785Y-173770051D01*
X103625148Y-173830278D02*
X103568478Y-173799193D01*
X103680729Y-173863268D02*
X103625148Y-173830278D01*
X103735159Y-173898128D02*
X103680729Y-173863268D01*
X103788373Y-173934815D02*
X103735159Y-173898128D01*
X103840311Y-173973288D02*
X103788373Y-173934815D01*
X103890912Y-174013503D02*
X103840311Y-173973288D01*
X103940119Y-174055413D02*
X103890912Y-174013503D01*
X103987874Y-174098969D02*
X103940119Y-174055413D01*
X104034122Y-174144123D02*
X103987874Y-174098969D01*
X104078810Y-174190820D02*
X104034122Y-174144123D01*
X104121887Y-174239008D02*
X104078810Y-174190820D01*
X104163303Y-174288631D02*
X104121887Y-174239008D01*
X104203010Y-174339632D02*
X104163303Y-174288631D01*
X104240962Y-174391952D02*
X104203010Y-174339632D01*
X104277115Y-174445531D02*
X104240962Y-174391952D01*
X104311428Y-174500306D02*
X104277115Y-174445531D01*
X104343862Y-174556215D02*
X104311428Y-174500306D01*
X104374378Y-174613193D02*
X104343862Y-174556215D01*
X104402941Y-174671174D02*
X104374378Y-174613193D01*
X104429519Y-174730092D02*
X104402941Y-174671174D01*
X104454082Y-174789878D02*
X104429519Y-174730092D01*
X104455839Y-174851723D02*
X104454082Y-174789878D01*
X106175188Y-177669868D02*
X104455839Y-174851723D01*
X106759901Y-178666058D02*
X106175188Y-177669868D01*
X106271118Y-179005852D02*
X106759901Y-178666058D01*
X106271612Y-179019941D02*
X106271118Y-179005852D01*
X106271622Y-179034039D02*
X106271612Y-179019941D01*
X106271147Y-179048129D02*
X106271622Y-179034039D01*
X106270189Y-179062194D02*
X106271147Y-179048129D01*
X106268747Y-179076218D02*
X106270189Y-179062194D01*
X106266824Y-179090184D02*
X106268747Y-179076218D01*
X106264423Y-179104076D02*
X106266824Y-179090184D01*
X106261545Y-179117877D02*
X106264423Y-179104076D01*
X106258195Y-179131571D02*
X106261545Y-179117877D01*
X106254375Y-179145141D02*
X106258195Y-179131571D01*
X106250092Y-179158573D02*
X106254375Y-179145141D01*
X106245350Y-179171849D02*
X106250092Y-179158573D01*
X106240154Y-179184954D02*
X106245350Y-179171849D01*
X106234510Y-179197874D02*
X106240154Y-179184954D01*
X106228426Y-179210591D02*
X106234510Y-179197874D01*
X106221908Y-179223092D02*
X106228426Y-179210591D01*
X106214965Y-179235361D02*
X106221908Y-179223092D01*
X106207604Y-179247385D02*
X106214965Y-179235361D01*
X106199834Y-179259148D02*
X106207604Y-179247385D01*
X106191664Y-179270637D02*
X106199834Y-179259148D01*
X106183104Y-179281839D02*
X106191664Y-179270637D01*
X106174164Y-179292740D02*
X106183104Y-179281839D01*
X106164855Y-179303327D02*
X106174164Y-179292740D01*
X106155187Y-179313588D02*
X106164855Y-179303327D01*
X106145173Y-179323510D02*
X106155187Y-179313588D01*
X106134823Y-179333083D02*
X106145173Y-179323510D01*
X106124150Y-179342294D02*
X106134823Y-179333083D01*
X106113167Y-179351133D02*
X106124150Y-179342294D01*
X106101887Y-179359589D02*
X106113167Y-179351133D01*
X106090323Y-179367652D02*
X106101887Y-179359589D01*
X106078488Y-179375313D02*
X106090323Y-179367652D01*
X106066397Y-179382563D02*
X106078488Y-179375313D01*
X106054064Y-179389393D02*
X106066397Y-179382563D01*
X106041504Y-179395795D02*
X106054064Y-179389393D01*
X106028730Y-179401761D02*
X106041504Y-179395795D01*
X106015760Y-179407285D02*
X106028730Y-179401761D01*
X106002607Y-179412360D02*
X106015760Y-179407285D01*
X105989288Y-179416979D02*
X106002607Y-179412360D01*
X105975817Y-179421138D02*
X105989288Y-179416979D01*
X105962212Y-179424832D02*
X105975817Y-179421138D01*
X105948487Y-179428056D02*
X105962212Y-179424832D01*
X105934660Y-179430806D02*
X105948487Y-179428056D01*
X105920747Y-179433079D02*
X105934660Y-179430806D01*
X105906764Y-179434873D02*
X105920747Y-179433079D01*
X105892727Y-179436185D02*
X105906764Y-179434873D01*
X105878654Y-179437014D02*
X105892727Y-179436185D01*
X105864560Y-179437358D02*
X105878654Y-179437014D01*
X105780094Y-179453878D02*
X105864560Y-179437358D01*
X105695126Y-179467589D02*
X105780094Y-179453878D01*
X105609751Y-179478476D02*
X105695126Y-179467589D01*
X105524061Y-179486526D02*
X105609751Y-179478476D01*
X105438152Y-179491731D02*
X105524061Y-179486526D01*
X105352118Y-179494085D02*
X105438152Y-179491731D01*
X105266052Y-179493586D02*
X105352118Y-179494085D01*
X105180051Y-179490233D02*
X105266052Y-179493586D01*
X105094208Y-179484032D02*
X105180051Y-179490233D01*
X105008618Y-179474988D02*
X105094208Y-179484032D01*
X104923375Y-179463111D02*
X105008618Y-179474988D01*
X104838572Y-179448415D02*
X104923375Y-179463111D01*
X104754303Y-179430915D02*
X104838572Y-179448415D01*
X104670661Y-179410632D02*
X104754303Y-179430915D01*
X104587737Y-179387587D02*
X104670661Y-179410632D01*
X104505622Y-179361805D02*
X104587737Y-179387587D01*
X104424408Y-179333315D02*
X104505622Y-179361805D01*
X104344182Y-179302149D02*
X104424408Y-179333315D01*
X104265034Y-179268340D02*
X104344182Y-179302149D01*
X104110423Y-179235661D02*
X104265034Y-179268340D01*
X102438511Y-179234255D02*
X104110423Y-179235661D01*
X102321385Y-179198722D02*
X102438511Y-179234255D01*
X102203155Y-179167059D02*
X102321385Y-179198722D01*
X102083947Y-179139302D02*
X102203155Y-179167059D01*
X101963891Y-179115479D02*
X102083947Y-179139302D01*
X101843117Y-179095618D02*
X101963891Y-179115479D01*
X101721754Y-179079738D02*
X101843117Y-179095618D01*
X101599935Y-179067858D02*
X101721754Y-179079738D01*
X101477792Y-179059990D02*
X101599935Y-179067858D01*
X101355456Y-179056143D02*
X101477792Y-179059990D01*
X101233059Y-179056321D02*
X101355456Y-179056143D01*
X101110735Y-179060524D02*
X101233059Y-179056321D01*
X100988614Y-179068747D02*
X101110735Y-179060524D01*
X100866831Y-179080981D02*
X100988614Y-179068747D01*
X100745515Y-179097213D02*
X100866831Y-179080981D01*
X100506570Y-178843158D02*
X100745515Y-179097213D01*
X99098903Y-178843158D02*
X100506570Y-178843158D01*
X98412639Y-177199709D02*
X99098903Y-178843158D01*
X96065707Y-177194438D02*
X98412639Y-177199709D01*
X96050544Y-177193517D02*
X96065707Y-177194438D01*
X96035358Y-177193109D02*
X96050544Y-177193517D01*
X96020167Y-177193215D02*
X96035358Y-177193109D01*
X96004988Y-177193835D02*
X96020167Y-177193215D01*
X95989839Y-177194968D02*
X96004988Y-177193835D01*
X95974737Y-177196613D02*
X95989839Y-177194968D01*
X95959699Y-177198768D02*
X95974737Y-177196613D01*
X95944743Y-177201431D02*
X95959699Y-177198768D01*
X95929886Y-177204598D02*
X95944743Y-177201431D01*
X95915144Y-177208265D02*
X95929886Y-177204598D01*
X95900534Y-177212430D02*
X95915144Y-177208265D01*
X95886074Y-177217086D02*
X95900534Y-177212430D01*
X95871780Y-177222229D02*
X95886074Y-177217086D01*
X95857668Y-177227852D02*
X95871780Y-177222229D01*
X95843754Y-177233950D02*
X95857668Y-177227852D01*
X95830054Y-177240515D02*
X95843754Y-177233950D01*
X95816584Y-177247540D02*
X95830054Y-177240515D01*
X95803360Y-177255016D02*
X95816584Y-177247540D01*
X95790396Y-177262935D02*
X95803360Y-177255016D01*
X95777708Y-177271289D02*
X95790396Y-177262935D01*
X95765309Y-177280067D02*
X95777708Y-177271289D01*
X95753214Y-177289259D02*
X95765309Y-177280067D01*
X95741438Y-177298855D02*
X95753214Y-177289259D01*
X95729993Y-177308844D02*
X95741438Y-177298855D01*
X95718892Y-177319215D02*
X95729993Y-177308844D01*
X95708148Y-177329955D02*
X95718892Y-177319215D01*
X95697774Y-177341053D02*
X95708148Y-177329955D01*
X95687781Y-177352495D02*
X95697774Y-177341053D01*
X95678181Y-177364269D02*
X95687781Y-177352495D01*
X95668985Y-177376360D02*
X95678181Y-177364269D01*
X95660204Y-177388756D02*
X95668985Y-177376360D01*
X95065301Y-178233849D02*
X95660204Y-177388756D01*
X94968954Y-178359003D02*
X95065301Y-178233849D01*
X94868302Y-178480721D02*
X94968954Y-178359003D01*
X94763466Y-178598855D02*
X94868302Y-178480721D01*
X94654574Y-178713261D02*
X94763466Y-178598855D01*
X94541759Y-178823801D02*
X94654574Y-178713261D01*
X94425158Y-178930339D02*
X94541759Y-178823801D01*
X94304913Y-179032747D02*
X94425158Y-178930339D01*
X94181170Y-179130899D02*
X94304913Y-179032747D01*
X94054079Y-179224676D02*
X94181170Y-179130899D01*
X93923796Y-179313964D02*
X94054079Y-179224676D01*
X93790478Y-179398655D02*
X93923796Y-179313964D01*
X93654288Y-179478646D02*
X93790478Y-179398655D01*
X93515391Y-179553838D02*
X93654288Y-179478646D01*
X93373956Y-179624141D02*
X93515391Y-179553838D01*
X93230157Y-179689470D02*
X93373956Y-179624141D01*
X93084166Y-179749744D02*
X93230157Y-179689470D01*
X92928656Y-179818033D02*
X93084166Y-179749744D01*
X92770874Y-179880895D02*
X92928656Y-179818033D01*
X92611010Y-179938255D02*
X92770874Y-179880895D01*
X92449255Y-179990044D02*
X92611010Y-179938255D01*
X92285804Y-180036200D02*
X92449255Y-179990044D01*
X92120852Y-180076667D02*
X92285804Y-180036200D01*
X91954597Y-180111397D02*
X92120852Y-180076667D01*
X91787240Y-180140348D02*
X91954597Y-180111397D01*
X91618980Y-180163485D02*
X91787240Y-180140348D01*
X91450020Y-180180781D02*
X91618980Y-180163485D01*
X91280562Y-180192216D02*
X91450020Y-180180781D01*
X91110810Y-180197774D02*
X91280562Y-180192216D01*
X90940967Y-180197449D02*
X91110810Y-180197774D01*
X90771237Y-180191243D02*
X90940967Y-180197449D01*
X90601824Y-180179162D02*
X90771237Y-180191243D01*
X90432931Y-180161221D02*
X90601824Y-180179162D01*
X90217324Y-180133386D02*
X90432931Y-180161221D01*
X90002706Y-180098747D02*
X90217324Y-180133386D01*
X89789290Y-180057339D02*
X90002706Y-180098747D01*
X89577290Y-180009203D02*
X89789290Y-180057339D01*
X89366918Y-179954388D02*
X89577290Y-180009203D01*
X89158385Y-179892948D02*
X89366918Y-179954388D01*
X88951899Y-179824945D02*
X89158385Y-179892948D01*
X88747666Y-179750446D02*
X88951899Y-179824945D01*
X88592544Y-179683563D02*
X88747666Y-179750446D01*
X88439805Y-179611404D02*
X88592544Y-179683563D01*
X88289627Y-179534056D02*
X88439805Y-179611404D01*
X88142187Y-179451608D02*
X88289627Y-179534056D01*
X87997658Y-179364158D02*
X88142187Y-179451608D01*
X87856209Y-179271809D02*
X87997658Y-179364158D01*
X87718007Y-179174668D02*
X87856209Y-179271809D01*
X87583214Y-179072849D02*
X87718007Y-179174668D01*
X87451988Y-178966473D02*
X87583214Y-179072849D01*
X87324483Y-178855664D02*
X87451988Y-178966473D01*
X87200849Y-178740552D02*
X87324483Y-178855664D01*
X87062894Y-178608344D02*
X87200849Y-178740552D01*
X86929579Y-178471458D02*
X87062894Y-178608344D01*
X86801064Y-178330057D02*
X86929579Y-178471458D01*
X86677500Y-178184309D02*
X86801064Y-178330057D01*
X86559035Y-178034388D02*
X86677500Y-178184309D01*
X86445809Y-177880471D02*
X86559035Y-178034388D01*
X86337957Y-177722741D02*
X86445809Y-177880471D01*
X86235608Y-177561387D02*
X86337957Y-177722741D01*
X86138883Y-177396600D02*
X86235608Y-177561387D01*
X86047897Y-177228576D02*
X86138883Y-177396600D01*
X85962758Y-177057515D02*
X86047897Y-177228576D01*
X85883568Y-176883620D02*
X85962758Y-177057515D01*
X85810421Y-176707098D02*
X85883568Y-176883620D01*
X85743403Y-176528159D02*
X85810421Y-176707098D01*
X85682595Y-176347016D02*
X85743403Y-176528159D01*
X85628068Y-176163884D02*
X85682595Y-176347016D01*
X85579888Y-175978981D02*
X85628068Y-176163884D01*
X85394706Y-175227710D02*
X85579888Y-175978981D01*
X83388622Y-175227710D02*
X85394706Y-175227710D01*
X83378045Y-175225351D02*
X83388622Y-175227710D01*
X83367393Y-175223358D02*
X83378045Y-175225351D01*
X83356679Y-175221733D02*
X83367393Y-175223358D01*
X83345915Y-175220479D02*
X83356679Y-175221733D01*
X83335115Y-175219597D02*
X83345915Y-175220479D01*
X83324290Y-175219087D02*
X83335115Y-175219597D01*
X83313454Y-175218951D02*
X83324290Y-175219087D01*
X83302620Y-175219189D02*
X83313454Y-175218951D01*
X83291800Y-175219800D02*
X83302620Y-175219189D01*
X83281008Y-175220783D02*
X83291800Y-175219800D01*
X83270257Y-175222139D02*
X83281008Y-175220783D01*
X83259558Y-175223864D02*
X83270257Y-175222139D01*
X83248926Y-175225956D02*
X83259558Y-175223864D01*
X83238371Y-175228415D02*
X83248926Y-175225956D01*
X83227908Y-175231235D02*
X83238371Y-175228415D01*
X83217549Y-175234415D02*
X83227908Y-175231235D01*
X83207305Y-175237950D02*
X83217549Y-175234415D01*
X83197189Y-175241836D02*
X83207305Y-175237950D01*
X83187213Y-175246068D02*
X83197189Y-175241836D01*
X83177389Y-175250642D02*
X83187213Y-175246068D01*
X83167728Y-175255552D02*
X83177389Y-175250642D01*
X83158242Y-175260792D02*
X83167728Y-175255552D01*
X83148943Y-175266356D02*
X83158242Y-175260792D01*
X83139841Y-175272237D02*
X83148943Y-175266356D01*
X83130947Y-175278428D02*
X83139841Y-175272237D01*
X83122272Y-175284923D02*
X83130947Y-175278428D01*
X83113826Y-175291713D02*
X83122272Y-175284923D01*
X83105619Y-175298789D02*
X83113826Y-175291713D01*
X83097661Y-175306145D02*
X83105619Y-175298789D01*
X83089962Y-175313770D02*
X83097661Y-175306145D01*
X83082530Y-175321657D02*
X83089962Y-175313770D01*
X83075374Y-175329795D02*
X83082530Y-175321657D01*
X83068503Y-175338175D02*
X83075374Y-175329795D01*
X83061925Y-175346786D02*
X83068503Y-175338175D01*
X83055647Y-175355620D02*
X83061925Y-175346786D01*
X83049678Y-175364665D02*
X83055647Y-175355620D01*
X83044025Y-175373910D02*
X83049678Y-175364665D01*
X83038693Y-175383344D02*
X83044025Y-175373910D01*
X83033690Y-175392957D02*
X83038693Y-175383344D01*
X83029021Y-175402736D02*
X83033690Y-175392957D01*
X83024693Y-175412671D02*
X83029021Y-175402736D01*
X83020709Y-175422748D02*
X83024693Y-175412671D01*
X83017075Y-175432958D02*
X83020709Y-175422748D01*
X83013795Y-175443286D02*
X83017075Y-175432958D01*
X83010873Y-175453722D02*
X83013795Y-175443286D01*
X83008313Y-175464251D02*
X83010873Y-175453722D01*
X83006118Y-175474863D02*
X83008313Y-175464251D01*
X83004289Y-175485545D02*
X83006118Y-175474863D01*
X83002830Y-175496283D02*
X83004289Y-175485545D01*
X83001742Y-175507065D02*
X83002830Y-175496283D01*
X82544233Y-177137513D02*
X83001742Y-175507065D01*
X82234658Y-178296396D02*
X82544233Y-177137513D01*
X82234088Y-178307502D02*
X82234658Y-178296396D01*
X82233133Y-178318582D02*
X82234088Y-178307502D01*
X82231793Y-178329622D02*
X82233133Y-178318582D01*
X82230071Y-178340608D02*
X82231793Y-178329622D01*
X82227968Y-178351528D02*
X82230071Y-178340608D01*
X82225487Y-178362369D02*
X82227968Y-178351528D01*
X82222631Y-178373117D02*
X82225487Y-178362369D01*
X82219403Y-178383759D02*
X82222631Y-178373117D01*
X82215807Y-178394282D02*
X82219403Y-178383759D01*
X82211848Y-178404675D02*
X82215807Y-178394282D01*
X82207531Y-178414923D02*
X82211848Y-178404675D01*
X82202860Y-178425015D02*
X82207531Y-178414923D01*
X82197841Y-178434939D02*
X82202860Y-178425015D01*
X82192481Y-178444683D02*
X82197841Y-178434939D01*
X82186785Y-178454234D02*
X82192481Y-178444683D01*
X82180761Y-178463582D02*
X82186785Y-178454234D01*
X82174416Y-178472715D02*
X82180761Y-178463582D01*
X82167757Y-178481622D02*
X82174416Y-178472715D01*
X82160793Y-178490293D02*
X82167757Y-178481622D01*
X82153532Y-178498716D02*
X82160793Y-178490293D01*
X82145983Y-178506882D02*
X82153532Y-178498716D01*
X82138154Y-178514780D02*
X82145983Y-178506882D01*
X82130056Y-178522402D02*
X82138154Y-178514780D01*
X82121699Y-178529738D02*
X82130056Y-178522402D01*
X82113091Y-178536780D02*
X82121699Y-178529738D01*
X82104244Y-178543518D02*
X82113091Y-178536780D01*
X82095168Y-178549944D02*
X82104244Y-178543518D01*
X82085874Y-178556052D02*
X82095168Y-178549944D01*
X82076374Y-178561833D02*
X82085874Y-178556052D01*
X82066679Y-178567280D02*
X82076374Y-178561833D01*
X82056800Y-178572388D02*
X82066679Y-178567280D01*
X82046750Y-178577149D02*
X82056800Y-178572388D01*
X82036541Y-178581558D02*
X82046750Y-178577149D01*
X82026184Y-178585610D02*
X82036541Y-178581558D01*
X82015693Y-178589299D02*
X82026184Y-178585610D01*
X82005081Y-178592622D02*
X82015693Y-178589299D01*
X81994359Y-178595574D02*
X82005081Y-178592622D01*
X81983541Y-178598152D02*
X81994359Y-178595574D01*
X81972640Y-178600353D02*
X81983541Y-178598152D01*
X81961669Y-178602173D02*
X81972640Y-178600353D01*
X81950642Y-178603612D02*
X81961669Y-178602173D01*
X81939571Y-178604666D02*
X81950642Y-178603612D01*
X81928471Y-178605336D02*
X81939571Y-178604666D01*
X81917353Y-178605619D02*
X81928471Y-178605336D01*
X79413351Y-178578562D02*
X81917353Y-178605619D01*
X53182462Y-178578562D02*
X79413351Y-178578562D01*
X51805015Y-178606673D02*
X53182462Y-178578562D01*
X42821386Y-178568723D02*
X51805015Y-178606673D01*
X42749891Y-178570426D02*
X42821386Y-178568723D01*
X42678378Y-178569689D02*
X42749891Y-178570426D01*
X42606933Y-178566513D02*
X42678378Y-178569689D01*
X42535637Y-178560901D02*
X42606933Y-178566513D01*
X42464575Y-178552859D02*
X42535637Y-178560901D01*
X42393828Y-178542398D02*
X42464575Y-178552859D01*
X42323479Y-178529528D02*
X42393828Y-178542398D01*
X42253610Y-178514266D02*
X42323479Y-178529528D01*
X42184303Y-178496630D02*
X42253610Y-178514266D01*
X42115638Y-178476638D02*
X42184303Y-178496630D01*
X42047695Y-178454316D02*
X42115638Y-178476638D01*
X41980553Y-178429688D02*
X42047695Y-178454316D01*
X41914290Y-178402784D02*
X41980553Y-178429688D01*
X41848984Y-178373635D02*
X41914290Y-178402784D01*
X41784711Y-178342275D02*
X41848984Y-178373635D01*
X41721545Y-178308739D02*
X41784711Y-178342275D01*
X41659560Y-178273069D02*
X41721545Y-178308739D01*
X41598828Y-178235304D02*
X41659560Y-178273069D01*
X41539420Y-178195489D02*
X41598828Y-178235304D01*
X41481404Y-178153670D02*
X41539420Y-178195489D01*
X41424850Y-178109896D02*
X41481404Y-178153670D01*
X41369822Y-178064219D02*
X41424850Y-178109896D01*
X41316384Y-178016690D02*
X41369822Y-178064219D01*
X41047923Y-177878242D02*
X41316384Y-178016690D01*
X40947801Y-178022639D02*
X41047923Y-177878242D01*
X40842748Y-178163489D02*
X40947801Y-178022639D01*
X40732890Y-178300624D02*
X40842748Y-178163489D01*
X40618357Y-178433879D02*
X40732890Y-178300624D01*
X40499287Y-178563097D02*
X40618357Y-178433879D01*
X40375822Y-178688121D02*
X40499287Y-178563097D01*
X40248110Y-178808804D02*
X40375822Y-178688121D01*
X40116302Y-178925000D02*
X40248110Y-178808804D01*
X39980557Y-179036571D02*
X40116302Y-178925000D01*
X39841037Y-179143384D02*
X39980557Y-179036571D01*
X39697909Y-179245310D02*
X39841037Y-179143384D01*
X39551343Y-179342229D02*
X39697909Y-179245310D01*
X39401514Y-179434023D02*
X39551343Y-179342229D01*
X39248603Y-179520584D02*
X39401514Y-179434023D01*
X39092791Y-179601809D02*
X39248603Y-179520584D01*
X38855692Y-179710588D02*
X39092791Y-179601809D01*
X38615047Y-179811279D02*
X38855692Y-179710588D01*
X38371132Y-179903767D02*
X38615047Y-179811279D01*
X38124226Y-179987947D02*
X38371132Y-179903767D01*
X37874612Y-180063720D02*
X38124226Y-179987947D01*
X37622576Y-180131001D02*
X37874612Y-180063720D01*
X37446512Y-180169447D02*
X37622576Y-180131001D01*
X37269298Y-180202180D02*
X37446512Y-180169447D01*
X37091117Y-180229166D02*
X37269298Y-180202180D01*
X36912157Y-180250378D02*
X37091117Y-180229166D01*
X36732606Y-180265792D02*
X36912157Y-180250378D01*
X36552649Y-180275394D02*
X36732606Y-180265792D01*
X36372476Y-180279172D02*
X36552649Y-180275394D01*
X36192275Y-180277124D02*
X36372476Y-180279172D01*
X36012235Y-180269250D02*
X36192275Y-180277124D01*
X35832543Y-180255560D02*
X36012235Y-180269250D01*
X35653388Y-180236067D02*
X35832543Y-180255560D01*
X67099944Y-146854528D02*
X67116945Y-146810982D01*
X67102565Y-146866488D02*
X67099944Y-146854528D01*
X67105590Y-146878353D02*
X67102565Y-146866488D01*
X67109017Y-146890107D02*
X67105590Y-146878353D01*
X67112842Y-146901739D02*
X67109017Y-146890107D01*
X67117060Y-146913233D02*
X67112842Y-146901739D01*
X67121666Y-146924578D02*
X67117060Y-146913233D01*
X67126655Y-146935759D02*
X67121666Y-146924578D01*
X67132021Y-146946765D02*
X67126655Y-146935759D01*
X67137758Y-146957582D02*
X67132021Y-146946765D01*
X67143860Y-146968197D02*
X67137758Y-146957582D01*
X67150319Y-146978599D02*
X67143860Y-146968197D01*
X67157127Y-146988776D02*
X67150319Y-146978599D01*
X67164278Y-146998715D02*
X67157127Y-146988776D01*
X67171762Y-147008405D02*
X67164278Y-146998715D01*
X67179572Y-147017836D02*
X67171762Y-147008405D01*
X67187697Y-147026995D02*
X67179572Y-147017836D01*
X67196129Y-147035873D02*
X67187697Y-147026995D01*
X67204858Y-147044459D02*
X67196129Y-147035873D01*
X67213873Y-147052744D02*
X67204858Y-147044459D01*
X67223165Y-147060718D02*
X67213873Y-147052744D01*
X67232723Y-147068371D02*
X67223165Y-147060718D01*
X67242535Y-147075694D02*
X67232723Y-147068371D01*
X67252591Y-147082680D02*
X67242535Y-147075694D01*
X67262878Y-147089320D02*
X67252591Y-147082680D01*
X67273385Y-147095607D02*
X67262878Y-147089320D01*
X67284099Y-147101533D02*
X67273385Y-147095607D01*
X67295009Y-147107091D02*
X67284099Y-147101533D01*
X67306102Y-147112276D02*
X67295009Y-147107091D01*
X67317364Y-147117080D02*
X67306102Y-147112276D01*
X67328783Y-147121498D02*
X67317364Y-147117080D01*
X67340345Y-147125526D02*
X67328783Y-147121498D01*
X67352038Y-147129159D02*
X67340345Y-147125526D01*
X67363848Y-147132392D02*
X67352038Y-147129159D01*
X67375760Y-147135222D02*
X67363848Y-147132392D01*
X67387762Y-147137645D02*
X67375760Y-147135222D01*
X67399839Y-147139659D02*
X67387762Y-147137645D01*
X67411978Y-147141262D02*
X67399839Y-147139659D01*
X68665737Y-147382315D02*
X67411978Y-147141262D01*
X71952636Y-147785008D02*
X68665737Y-147382315D01*
X72059922Y-147805464D02*
X71952636Y-147785008D01*
X72167839Y-147822282D02*
X72059922Y-147805464D01*
X72276263Y-147835442D02*
X72167839Y-147822282D01*
X72385070Y-147844928D02*
X72276263Y-147835442D01*
X72494135Y-147850731D02*
X72385070Y-147844928D01*
X72603334Y-147852844D02*
X72494135Y-147850731D01*
X72712542Y-147851264D02*
X72603334Y-147852844D01*
X72821634Y-147845992D02*
X72712542Y-147851264D01*
X72930486Y-147837036D02*
X72821634Y-147845992D01*
X73038973Y-147824404D02*
X72930486Y-147837036D01*
X73146970Y-147808113D02*
X73038973Y-147824404D01*
X73254356Y-147788179D02*
X73146970Y-147808113D01*
X73361005Y-147764627D02*
X73254356Y-147788179D01*
X73520620Y-147710966D02*
X73361005Y-147764627D01*
X73678352Y-147651998D02*
X73520620Y-147710966D01*
X73834024Y-147587789D02*
X73678352Y-147651998D01*
X73987462Y-147518412D02*
X73834024Y-147587789D01*
X74138494Y-147443943D02*
X73987462Y-147518412D01*
X74286952Y-147364466D02*
X74138494Y-147443943D01*
X74432671Y-147280070D02*
X74286952Y-147364466D01*
X74575485Y-147190849D02*
X74432671Y-147280070D01*
X74715237Y-147096903D02*
X74575485Y-147190849D01*
X74851770Y-146998337D02*
X74715237Y-147096903D01*
X74984931Y-146895262D02*
X74851770Y-146998337D01*
X75114572Y-146787792D02*
X74984931Y-146895262D01*
X75240546Y-146676047D02*
X75114572Y-146787792D01*
X75362714Y-146560153D02*
X75240546Y-146676047D01*
X75480939Y-146440239D02*
X75362714Y-146560153D01*
X75492904Y-146424917D02*
X75480939Y-146440239D01*
X75504327Y-146409186D02*
X75492904Y-146424917D01*
X75515195Y-146393066D02*
X75504327Y-146409186D01*
X75525493Y-146376577D02*
X75515195Y-146393066D01*
X75535210Y-146359739D02*
X75525493Y-146376577D01*
X75544334Y-146342572D02*
X75535210Y-146359739D01*
X75552853Y-146325097D02*
X75544334Y-146342572D01*
X75560758Y-146307336D02*
X75552853Y-146325097D01*
X75568038Y-146289310D02*
X75560758Y-146307336D01*
X75574684Y-146271041D02*
X75568038Y-146289310D01*
X75580690Y-146252550D02*
X75574684Y-146271041D01*
X75586046Y-146233862D02*
X75580690Y-146252550D01*
X75590748Y-146214998D02*
X75586046Y-146233862D01*
X75594788Y-146195982D02*
X75590748Y-146214998D01*
X75598163Y-146176837D02*
X75594788Y-146195982D01*
X75600867Y-146157585D02*
X75598163Y-146176837D01*
X75602899Y-146138250D02*
X75600867Y-146157585D01*
X75604255Y-146118857D02*
X75602899Y-146138250D01*
X75604933Y-146099428D02*
X75604255Y-146118857D01*
X75604933Y-146079987D02*
X75604933Y-146099428D01*
X75604255Y-146060558D02*
X75604933Y-146079987D01*
X75602900Y-146041165D02*
X75604255Y-146060558D01*
X75600868Y-146021830D02*
X75602900Y-146041165D01*
X75598164Y-146002579D02*
X75600868Y-146021830D01*
X75594790Y-145983433D02*
X75598164Y-146002579D01*
X75585354Y-145968155D02*
X75594790Y-145983433D01*
X75575397Y-145953212D02*
X75585354Y-145968155D01*
X75564928Y-145938623D02*
X75575397Y-145953212D01*
X75553962Y-145924403D02*
X75564928Y-145938623D01*
X75542512Y-145910572D02*
X75553962Y-145924403D01*
X75530590Y-145897144D02*
X75542512Y-145910572D01*
X75518211Y-145884136D02*
X75530590Y-145897144D01*
X75505390Y-145871564D02*
X75518211Y-145884136D01*
X75492142Y-145859442D02*
X75505390Y-145871564D01*
X75478483Y-145847786D02*
X75492142Y-145859442D01*
X75464430Y-145836608D02*
X75478483Y-145847786D01*
X75449999Y-145825922D02*
X75464430Y-145836608D01*
X75435207Y-145815742D02*
X75449999Y-145825922D01*
X75420072Y-145806079D02*
X75435207Y-145815742D01*
X75404612Y-145796945D02*
X75420072Y-145806079D01*
X75388846Y-145788350D02*
X75404612Y-145796945D01*
X75372792Y-145780306D02*
X75388846Y-145788350D01*
X75356470Y-145772821D02*
X75372792Y-145780306D01*
X75339899Y-145765904D02*
X75356470Y-145772821D01*
X75323099Y-145759564D02*
X75339899Y-145765904D01*
X75306090Y-145753809D02*
X75323099Y-145759564D01*
X75288892Y-145748645D02*
X75306090Y-145753809D01*
X75271526Y-145744078D02*
X75288892Y-145748645D01*
X75254012Y-145740114D02*
X75271526Y-145744078D01*
X75236372Y-145736757D02*
X75254012Y-145740114D01*
X74236668Y-145604635D02*
X75236372Y-145736757D01*
X71763588Y-145422264D02*
X74236668Y-145604635D01*
X68759206Y-145423318D02*
X71763588Y-145422264D01*
X68717753Y-145422314D02*
X68759206Y-145423318D01*
X68676290Y-145422722D02*
X68717753Y-145422314D01*
X68634865Y-145424541D02*
X68676290Y-145422722D01*
X68593526Y-145427769D02*
X68634865Y-145424541D01*
X68552320Y-145432403D02*
X68593526Y-145427769D01*
X68511296Y-145438435D02*
X68552320Y-145432403D01*
X68470502Y-145445861D02*
X68511296Y-145438435D01*
X68429983Y-145454671D02*
X68470502Y-145445861D01*
X68389788Y-145464855D02*
X68429983Y-145454671D01*
X68349963Y-145476401D02*
X68389788Y-145464855D01*
X68310554Y-145489296D02*
X68349963Y-145476401D01*
X68271606Y-145503525D02*
X68310554Y-145489296D01*
X68233166Y-145519071D02*
X68271606Y-145503525D01*
X68195277Y-145535916D02*
X68233166Y-145519071D01*
X68157983Y-145554042D02*
X68195277Y-145535916D01*
X68121328Y-145573426D02*
X68157983Y-145554042D01*
X68085353Y-145594046D02*
X68121328Y-145573426D01*
X68050102Y-145615879D02*
X68085353Y-145594046D01*
X67980857Y-145666017D02*
X68050102Y-145615879D01*
X67913309Y-145718417D02*
X67980857Y-145666017D01*
X67847530Y-145773023D02*
X67913309Y-145718417D01*
X67783594Y-145829774D02*
X67847530Y-145773023D01*
X67721569Y-145888608D02*
X67783594Y-145829774D01*
X67661524Y-145949462D02*
X67721569Y-145888608D01*
X67603524Y-146012268D02*
X67661524Y-145949462D01*
X67547634Y-146076958D02*
X67603524Y-146012268D01*
X67493913Y-146143462D02*
X67547634Y-146076958D01*
X67442421Y-146211705D02*
X67493913Y-146143462D01*
X67393215Y-146281614D02*
X67442421Y-146211705D01*
X67346347Y-146353112D02*
X67393215Y-146281614D01*
X67301869Y-146426121D02*
X67346347Y-146353112D01*
X67259831Y-146500562D02*
X67301869Y-146426121D01*
X67220277Y-146576351D02*
X67259831Y-146500562D01*
X67183252Y-146653408D02*
X67220277Y-146576351D01*
X67148795Y-146731647D02*
X67183252Y-146653408D01*
X67116945Y-146810982D02*
X67148795Y-146731647D01*
X67507740Y-169288067D02*
X67506447Y-169299140D01*
X67509419Y-169277045D02*
X67507740Y-169288067D01*
X67511479Y-169266089D02*
X67509419Y-169277045D01*
X67513919Y-169255210D02*
X67511479Y-169266089D01*
X67516736Y-169244424D02*
X67513919Y-169255210D01*
X67519926Y-169233741D02*
X67516736Y-169244424D01*
X67523486Y-169223176D02*
X67519926Y-169233741D01*
X67527411Y-169212741D02*
X67523486Y-169223176D01*
X67531696Y-169202449D02*
X67527411Y-169212741D01*
X67536337Y-169192313D02*
X67531696Y-169202449D01*
X67541327Y-169182343D02*
X67536337Y-169192313D01*
X67546661Y-169172554D02*
X67541327Y-169182343D01*
X67552332Y-169162955D02*
X67546661Y-169172554D01*
X67558334Y-169153560D02*
X67552332Y-169162955D01*
X67564658Y-169144379D02*
X67558334Y-169153560D01*
X67571298Y-169135423D02*
X67564658Y-169144379D01*
X67578246Y-169126704D02*
X67571298Y-169135423D01*
X67585492Y-169118232D02*
X67578246Y-169126704D01*
X67593029Y-169110017D02*
X67585492Y-169118232D01*
X67600846Y-169102068D02*
X67593029Y-169110017D01*
X67608936Y-169094397D02*
X67600846Y-169102068D01*
X67617287Y-169087011D02*
X67608936Y-169094397D01*
X67625890Y-169079920D02*
X67617287Y-169087011D01*
X67634734Y-169073133D02*
X67625890Y-169079920D01*
X67643809Y-169066657D02*
X67634734Y-169073133D01*
X67653104Y-169060501D02*
X67643809Y-169066657D01*
X67662607Y-169054672D02*
X67653104Y-169060501D01*
X67672307Y-169049176D02*
X67662607Y-169054672D01*
X67682193Y-169044022D02*
X67672307Y-169049176D01*
X67692251Y-169039214D02*
X67682193Y-169044022D01*
X67702471Y-169034758D02*
X67692251Y-169039214D01*
X67712839Y-169030661D02*
X67702471Y-169034758D01*
X67723344Y-169026927D02*
X67712839Y-169030661D01*
X67733972Y-169023561D02*
X67723344Y-169026927D01*
X67744711Y-169020565D02*
X67733972Y-169023561D01*
X67755547Y-169017946D02*
X67744711Y-169020565D01*
X67766468Y-169015704D02*
X67755547Y-169017946D01*
X67777460Y-169013844D02*
X67766468Y-169015704D01*
X67788510Y-169012367D02*
X67777460Y-169013844D01*
X67799605Y-169011275D02*
X67788510Y-169012367D01*
X69053012Y-168770222D02*
X67799605Y-169011275D01*
X72339911Y-168367529D02*
X69053012Y-168770222D01*
X72447198Y-168347072D02*
X72339911Y-168367529D01*
X72555115Y-168330254D02*
X72447198Y-168347072D01*
X72663539Y-168317094D02*
X72555115Y-168330254D01*
X72772346Y-168307607D02*
X72663539Y-168317094D01*
X72881411Y-168301804D02*
X72772346Y-168307607D01*
X72990610Y-168299691D02*
X72881411Y-168301804D01*
X73099818Y-168301271D02*
X72990610Y-168299691D01*
X73208910Y-168306543D02*
X73099818Y-168301271D01*
X73317762Y-168315500D02*
X73208910Y-168306543D01*
X73426249Y-168328131D02*
X73317762Y-168315500D01*
X73534246Y-168344423D02*
X73426249Y-168328131D01*
X73641631Y-168364357D02*
X73534246Y-168344423D01*
X73748281Y-168387910D02*
X73641631Y-168364357D01*
X73907907Y-168441546D02*
X73748281Y-168387910D01*
X74065649Y-168500492D02*
X73907907Y-168441546D01*
X74221331Y-168564684D02*
X74065649Y-168500492D01*
X74374778Y-168634048D02*
X74221331Y-168564684D01*
X74525818Y-168708507D02*
X74374778Y-168634048D01*
X74674282Y-168787978D02*
X74525818Y-168708507D01*
X74820004Y-168872372D02*
X74674282Y-168787978D01*
X74962821Y-168961594D02*
X74820004Y-168872372D01*
X75102573Y-169055545D02*
X74962821Y-168961594D01*
X75239103Y-169154118D02*
X75102573Y-169055545D01*
X75372259Y-169257205D02*
X75239103Y-169154118D01*
X75501891Y-169364689D02*
X75372259Y-169257205D01*
X75627855Y-169476450D02*
X75501891Y-169364689D01*
X75750008Y-169592363D02*
X75627855Y-169476450D01*
X75868215Y-169712297D02*
X75750008Y-169592363D01*
X75880175Y-169727625D02*
X75868215Y-169712297D01*
X75891594Y-169743359D02*
X75880175Y-169727625D01*
X75902459Y-169759480D02*
X75891594Y-169743359D01*
X75912756Y-169775971D02*
X75902459Y-169759480D01*
X75922473Y-169792809D02*
X75912756Y-169775971D01*
X75931599Y-169809975D02*
X75922473Y-169792809D01*
X75940121Y-169827449D02*
X75931599Y-169809975D01*
X75948031Y-169845208D02*
X75940121Y-169827449D01*
X75955317Y-169863232D02*
X75948031Y-169845208D01*
X75961972Y-169881499D02*
X75955317Y-169863232D01*
X75967988Y-169899986D02*
X75961972Y-169881499D01*
X75973356Y-169918671D02*
X75967988Y-169899986D01*
X75978072Y-169937532D02*
X75973356Y-169918671D01*
X75982128Y-169956545D02*
X75978072Y-169937532D01*
X75985520Y-169975688D02*
X75982128Y-169956545D01*
X75988244Y-169994937D02*
X75985520Y-169975688D01*
X75990296Y-170014270D02*
X75988244Y-169994937D01*
X75991674Y-170033662D02*
X75990296Y-170014270D01*
X75992377Y-170053090D02*
X75991674Y-170033662D01*
X75992404Y-170072531D02*
X75992377Y-170053090D01*
X75991754Y-170091961D02*
X75992404Y-170072531D01*
X75990428Y-170111357D02*
X75991754Y-170091961D01*
X75988428Y-170130695D02*
X75990428Y-170111357D01*
X75985757Y-170149952D02*
X75988428Y-170130695D01*
X75982417Y-170169104D02*
X75985757Y-170149952D01*
X75972947Y-170184378D02*
X75982417Y-170169104D01*
X75962957Y-170199316D02*
X75972947Y-170184378D01*
X75952459Y-170213903D02*
X75962957Y-170199316D01*
X75941465Y-170228120D02*
X75952459Y-170213903D01*
X75929990Y-170241950D02*
X75941465Y-170228120D01*
X75918045Y-170255377D02*
X75929990Y-170241950D01*
X75905646Y-170268386D02*
X75918045Y-170255377D01*
X75892807Y-170280961D02*
X75905646Y-170268386D01*
X75879542Y-170293086D02*
X75892807Y-170280961D01*
X75865869Y-170304749D02*
X75879542Y-170293086D01*
X75851803Y-170315934D02*
X75865869Y-170304749D01*
X75837360Y-170326629D02*
X75851803Y-170315934D01*
X75822558Y-170336820D02*
X75837360Y-170326629D01*
X75807414Y-170346497D02*
X75822558Y-170336820D01*
X75791947Y-170355647D02*
X75807414Y-170346497D01*
X75776174Y-170364260D02*
X75791947Y-170355647D01*
X75760114Y-170372325D02*
X75776174Y-170364260D01*
X75743786Y-170379833D02*
X75760114Y-170372325D01*
X75727210Y-170386775D02*
X75743786Y-170379833D01*
X75710405Y-170393143D02*
X75727210Y-170386775D01*
X75693390Y-170398930D02*
X75710405Y-170393143D01*
X75676187Y-170404127D02*
X75693390Y-170398930D01*
X75658815Y-170408730D02*
X75676187Y-170404127D01*
X75641295Y-170412733D02*
X75658815Y-170408730D01*
X75623648Y-170416131D02*
X75641295Y-170412733D01*
X74623944Y-170547902D02*
X75623648Y-170416131D01*
X72151215Y-170730273D02*
X74623944Y-170547902D01*
X69146482Y-170729219D02*
X72151215Y-170730273D01*
X69105044Y-170730268D02*
X69146482Y-170729219D01*
X69063594Y-170729900D02*
X69105044Y-170730268D01*
X69022181Y-170728116D02*
X69063594Y-170729900D01*
X68980853Y-170724917D02*
X69022181Y-170728116D01*
X68939658Y-170720307D02*
X68980853Y-170724917D01*
X68898646Y-170714291D02*
X68939658Y-170720307D01*
X68857863Y-170706878D02*
X68898646Y-170714291D01*
X68817357Y-170698075D02*
X68857863Y-170706878D01*
X68777175Y-170687892D02*
X68817357Y-170698075D01*
X68737365Y-170676342D02*
X68777175Y-170687892D01*
X68697974Y-170663438D02*
X68737365Y-170676342D01*
X68659046Y-170649194D02*
X68697974Y-170663438D01*
X68620628Y-170633629D02*
X68659046Y-170649194D01*
X68582764Y-170616760D02*
X68620628Y-170633629D01*
X68545499Y-170598606D02*
X68582764Y-170616760D01*
X68508877Y-170579189D02*
X68545499Y-170598606D01*
X68472939Y-170558531D02*
X68508877Y-170579189D01*
X68437729Y-170536658D02*
X68472939Y-170558531D01*
X68371678Y-170489415D02*
X68437729Y-170536658D01*
X68307234Y-170440003D02*
X68371678Y-170489415D01*
X68244468Y-170388477D02*
X68307234Y-170440003D01*
X68183449Y-170334893D02*
X68244468Y-170388477D01*
X68124245Y-170279310D02*
X68183449Y-170334893D01*
X68066921Y-170221791D02*
X68124245Y-170279310D01*
X68011540Y-170162398D02*
X68066921Y-170221791D01*
X67958164Y-170101197D02*
X68011540Y-170162398D01*
X67906852Y-170038256D02*
X67958164Y-170101197D01*
X67857660Y-169973644D02*
X67906852Y-170038256D01*
X67810642Y-169907433D02*
X67857660Y-169973644D01*
X67765851Y-169839696D02*
X67810642Y-169907433D01*
X67723336Y-169770507D02*
X67765851Y-169839696D01*
X67683144Y-169699944D02*
X67723336Y-169770507D01*
X67645320Y-169628084D02*
X67683144Y-169699944D01*
X67609905Y-169555006D02*
X67645320Y-169628084D01*
X67576939Y-169480792D02*
X67609905Y-169555006D01*
X67546457Y-169405523D02*
X67576939Y-169480792D01*
X67518494Y-169329283D02*
X67546457Y-169405523D01*
X67506447Y-169299140D02*
X67518494Y-169329283D01*
X35234839Y-135947708D02*
X35266113Y-135916435D01*
X34483919Y-136105834D02*
X35234839Y-135947708D01*
X34323024Y-136150762D02*
X34483919Y-136105834D01*
X34163758Y-136201163D02*
X34323024Y-136150762D01*
X34006309Y-136256979D02*
X34163758Y-136201163D01*
X33850859Y-136318145D02*
X34006309Y-136256979D01*
X33697591Y-136384590D02*
X33850859Y-136318145D01*
X33546684Y-136456234D02*
X33697591Y-136384590D01*
X33398315Y-136532995D02*
X33546684Y-136456234D01*
X33252656Y-136614784D02*
X33398315Y-136532995D01*
X33109878Y-136701503D02*
X33252656Y-136614784D01*
X32970148Y-136793053D02*
X33109878Y-136701503D01*
X32833629Y-136889326D02*
X32970148Y-136793053D01*
X32700481Y-136990209D02*
X32833629Y-136889326D01*
X32570859Y-137095585D02*
X32700481Y-136990209D01*
X32444915Y-137205330D02*
X32570859Y-137095585D01*
X32322797Y-137319316D02*
X32444915Y-137205330D01*
X32204646Y-137437410D02*
X32322797Y-137319316D01*
X32090601Y-137559474D02*
X32204646Y-137437410D01*
X31980796Y-137685366D02*
X32090601Y-137559474D01*
X31875358Y-137814937D02*
X31980796Y-137685366D01*
X31774411Y-137948036D02*
X31875358Y-137814937D01*
X31678073Y-138084509D02*
X31774411Y-137948036D01*
X31580122Y-138230450D02*
X31678073Y-138084509D01*
X31487139Y-138379604D02*
X31580122Y-138230450D01*
X31399228Y-138531802D02*
X31487139Y-138379604D01*
X31316488Y-138686873D02*
X31399228Y-138531802D01*
X31239014Y-138844641D02*
X31316488Y-138686873D01*
X31166893Y-139004926D02*
X31239014Y-138844641D01*
X31100207Y-139167548D02*
X31166893Y-139004926D01*
X31039031Y-139332322D02*
X31100207Y-139167548D01*
X30983435Y-139499061D02*
X31039031Y-139332322D01*
X30933482Y-139667577D02*
X30983435Y-139499061D01*
X30889227Y-139837678D02*
X30933482Y-139667577D01*
X30850723Y-140009172D02*
X30889227Y-139837678D01*
X30818011Y-140181865D02*
X30850723Y-140009172D01*
X30791130Y-140355561D02*
X30818011Y-140181865D01*
X30770109Y-140530063D02*
X30791130Y-140355561D01*
X30754972Y-140705173D02*
X30770109Y-140530063D01*
X30737950Y-140895091D02*
X30754972Y-140705173D01*
X30727206Y-141085466D02*
X30737950Y-140895091D01*
X30722749Y-141276093D02*
X30727206Y-141085466D01*
X30724587Y-141466762D02*
X30722749Y-141276093D01*
X30732715Y-141657267D02*
X30724587Y-141466762D01*
X30747126Y-141847400D02*
X30732715Y-141657267D01*
X30767804Y-142036954D02*
X30747126Y-141847400D01*
X30794727Y-142225723D02*
X30767804Y-142036954D01*
X30827864Y-142413500D02*
X30794727Y-142225723D01*
X30867181Y-142600081D02*
X30827864Y-142413500D01*
X30912633Y-142785263D02*
X30867181Y-142600081D01*
X30964172Y-142968844D02*
X30912633Y-142785263D01*
X31021741Y-143150624D02*
X30964172Y-142968844D01*
X31085278Y-143330406D02*
X31021741Y-143150624D01*
X30342238Y-143585099D02*
X31085278Y-143330406D01*
X29592414Y-143819068D02*
X30342238Y-143585099D01*
X28836384Y-144032131D02*
X29592414Y-143819068D01*
X28728859Y-144274590D02*
X28836384Y-144032131D01*
X28659284Y-145087705D02*
X28728859Y-144274590D01*
X28534892Y-145964071D02*
X28659284Y-145087705D01*
X28287162Y-147404418D02*
X28534892Y-145964071D01*
X27995860Y-149249213D02*
X28287162Y-147404418D01*
X27992552Y-149257372D02*
X27995860Y-149249213D01*
X27989530Y-149265642D02*
X27992552Y-149257372D01*
X27986797Y-149274011D02*
X27989530Y-149265642D01*
X27984357Y-149282470D02*
X27986797Y-149274011D01*
X27982212Y-149291009D02*
X27984357Y-149282470D01*
X27980366Y-149299617D02*
X27982212Y-149291009D01*
X27978819Y-149308285D02*
X27980366Y-149299617D01*
X27977575Y-149317000D02*
X27978819Y-149308285D01*
X27976635Y-149325754D02*
X27977575Y-149317000D01*
X27975999Y-149334535D02*
X27976635Y-149325754D01*
X27975669Y-149343333D02*
X27975999Y-149334535D01*
X27975645Y-149352137D02*
X27975669Y-149343333D01*
X27975927Y-149360937D02*
X27975645Y-149352137D01*
X27976514Y-149369721D02*
X27975927Y-149360937D01*
X27977407Y-149378480D02*
X27976514Y-149369721D01*
X27978604Y-149387203D02*
X27977407Y-149378480D01*
X27980102Y-149395878D02*
X27978604Y-149387203D01*
X27981902Y-149404496D02*
X27980102Y-149395878D01*
X27984000Y-149413047D02*
X27981902Y-149404496D01*
X27986394Y-149421519D02*
X27984000Y-149413047D01*
X27989081Y-149429903D02*
X27986394Y-149421519D01*
X27992058Y-149438189D02*
X27989081Y-149429903D01*
X27995321Y-149446366D02*
X27992058Y-149438189D01*
X27998867Y-149454425D02*
X27995321Y-149446366D01*
X28002690Y-149462355D02*
X27998867Y-149454425D01*
X28006786Y-149470148D02*
X28002690Y-149462355D01*
X28011151Y-149477794D02*
X28006786Y-149470148D01*
X28015780Y-149485284D02*
X28011151Y-149477794D01*
X28020665Y-149492608D02*
X28015780Y-149485284D01*
X28025803Y-149499758D02*
X28020665Y-149492608D01*
X28031185Y-149506725D02*
X28025803Y-149499758D01*
X28036807Y-149513501D02*
X28031185Y-149506725D01*
X28042661Y-149520077D02*
X28036807Y-149513501D01*
X28048739Y-149526446D02*
X28042661Y-149520077D01*
X28055036Y-149532599D02*
X28048739Y-149526446D01*
X28061542Y-149538530D02*
X28055036Y-149532599D01*
X28068251Y-149544232D02*
X28061542Y-149538530D01*
X28075154Y-149549696D02*
X28068251Y-149544232D01*
X28082243Y-149554918D02*
X28075154Y-149549696D01*
X28089509Y-149559890D02*
X28082243Y-149554918D01*
X28096943Y-149564606D02*
X28089509Y-149559890D01*
X28104537Y-149569061D02*
X28096943Y-149564606D01*
X28112281Y-149573250D02*
X28104537Y-149569061D01*
X28120165Y-149577166D02*
X28112281Y-149573250D01*
X28128182Y-149580807D02*
X28120165Y-149577166D01*
X28136320Y-149584166D02*
X28128182Y-149580807D01*
X28144569Y-149587241D02*
X28136320Y-149584166D01*
X28152921Y-149590027D02*
X28144569Y-149587241D01*
X28161365Y-149592521D02*
X28152921Y-149590027D01*
X28279337Y-149634499D02*
X28161365Y-149592521D01*
X28395790Y-149680522D02*
X28279337Y-149634499D01*
X28510587Y-149730536D02*
X28395790Y-149680522D01*
X28623589Y-149784480D02*
X28510587Y-149730536D01*
X28734664Y-149842290D02*
X28623589Y-149784480D01*
X28843677Y-149903898D02*
X28734664Y-149842290D01*
X28950501Y-149969231D02*
X28843677Y-149903898D01*
X29055007Y-150038210D02*
X28950501Y-149969231D01*
X29157070Y-150110753D02*
X29055007Y-150038210D01*
X29256571Y-150186775D02*
X29157070Y-150110753D01*
X29353389Y-150266184D02*
X29256571Y-150186775D01*
X29447410Y-150348885D02*
X29353389Y-150266184D01*
X29538522Y-150434782D02*
X29447410Y-150348885D01*
X29626616Y-150523770D02*
X29538522Y-150434782D01*
X29711588Y-150615745D02*
X29626616Y-150523770D01*
X29793336Y-150710597D02*
X29711588Y-150615745D01*
X29871763Y-150808212D02*
X29793336Y-150710597D01*
X29946776Y-150908475D02*
X29871763Y-150808212D01*
X29951414Y-150918027D02*
X29946776Y-150908475D01*
X29956378Y-150927413D02*
X29951414Y-150918027D01*
X29961661Y-150936622D02*
X29956378Y-150927413D01*
X29967258Y-150945645D02*
X29961661Y-150936622D01*
X29973163Y-150954470D02*
X29967258Y-150945645D01*
X29979367Y-150963087D02*
X29973163Y-150954470D01*
X29985863Y-150971485D02*
X29979367Y-150963087D01*
X29992645Y-150979655D02*
X29985863Y-150971485D01*
X29999703Y-150987587D02*
X29992645Y-150979655D01*
X30007030Y-150995272D02*
X29999703Y-150987587D01*
X30014617Y-151002700D02*
X30007030Y-150995272D01*
X30022455Y-151009863D02*
X30014617Y-151002700D01*
X30030534Y-151016752D02*
X30022455Y-151009863D01*
X30038846Y-151023359D02*
X30030534Y-151016752D01*
X30047380Y-151029677D02*
X30038846Y-151023359D01*
X30056126Y-151035697D02*
X30047380Y-151029677D01*
X30065073Y-151041413D02*
X30056126Y-151035697D01*
X30074212Y-151046818D02*
X30065073Y-151041413D01*
X30083532Y-151051906D02*
X30074212Y-151046818D01*
X30093021Y-151056670D02*
X30083532Y-151051906D01*
X30102668Y-151061106D02*
X30093021Y-151056670D01*
X30112462Y-151065207D02*
X30102668Y-151061106D01*
X30122391Y-151068968D02*
X30112462Y-151065207D01*
X30132443Y-151072386D02*
X30122391Y-151068968D01*
X30142608Y-151075457D02*
X30132443Y-151072386D01*
X30152871Y-151078176D02*
X30142608Y-151075457D01*
X30163223Y-151080541D02*
X30152871Y-151078176D01*
X30173649Y-151082548D02*
X30163223Y-151080541D01*
X30184138Y-151084196D02*
X30173649Y-151082548D01*
X30194678Y-151085482D02*
X30184138Y-151084196D01*
X30205255Y-151086405D02*
X30194678Y-151085482D01*
X30215858Y-151086964D02*
X30205255Y-151086405D01*
X30226474Y-151087157D02*
X30215858Y-151086964D01*
X30237091Y-151086986D02*
X30226474Y-151087157D01*
X30247695Y-151086450D02*
X30237091Y-151086986D01*
X30258275Y-151085549D02*
X30247695Y-151086450D01*
X30268817Y-151084286D02*
X30258275Y-151085549D01*
X30279310Y-151082660D02*
X30268817Y-151084286D01*
X30289740Y-151080675D02*
X30279310Y-151082660D01*
X30300096Y-151078332D02*
X30289740Y-151080675D01*
X30310366Y-151075635D02*
X30300096Y-151078332D01*
X30320536Y-151072586D02*
X30310366Y-151075635D01*
X30330596Y-151069189D02*
X30320536Y-151072586D01*
X30340533Y-151065448D02*
X30330596Y-151069189D01*
X30350336Y-151061368D02*
X30340533Y-151065448D01*
X30359992Y-151056953D02*
X30350336Y-151061368D01*
X30369491Y-151052209D02*
X30359992Y-151056953D01*
X30378821Y-151047141D02*
X30369491Y-151052209D01*
X30387972Y-151041755D02*
X30378821Y-151047141D01*
X30396932Y-151036058D02*
X30387972Y-151041755D01*
X30405690Y-151030056D02*
X30396932Y-151036058D01*
X31037841Y-150437965D02*
X30405690Y-151030056D01*
X31086279Y-150389957D02*
X31037841Y-150437965D01*
X31136337Y-150343639D02*
X31086279Y-150389957D01*
X31187953Y-150299066D02*
X31136337Y-150343639D01*
X31241069Y-150256289D02*
X31187953Y-150299066D01*
X31295620Y-150215361D02*
X31241069Y-150256289D01*
X31351544Y-150176327D02*
X31295620Y-150215361D01*
X31408774Y-150139235D02*
X31351544Y-150176327D01*
X31467243Y-150104129D02*
X31408774Y-150139235D01*
X31526882Y-150071049D02*
X31467243Y-150104129D01*
X31587620Y-150040034D02*
X31526882Y-150071049D01*
X31649387Y-150011121D02*
X31587620Y-150040034D01*
X31712109Y-149984345D02*
X31649387Y-150011121D01*
X31775713Y-149959735D02*
X31712109Y-149984345D01*
X31840123Y-149937323D02*
X31775713Y-149959735D01*
X31905265Y-149917133D02*
X31840123Y-149937323D01*
X31971061Y-149899190D02*
X31905265Y-149917133D01*
X32037434Y-149883515D02*
X31971061Y-149899190D01*
X32104305Y-149870125D02*
X32037434Y-149883515D01*
X32171597Y-149859038D02*
X32104305Y-149870125D01*
X32239229Y-149850266D02*
X32171597Y-149859038D01*
X32307122Y-149843820D02*
X32239229Y-149850266D01*
X32375197Y-149839706D02*
X32307122Y-149843820D01*
X32443372Y-149837930D02*
X32375197Y-149839706D01*
X32511569Y-149838494D02*
X32443372Y-149837930D01*
X35829390Y-149846576D02*
X32511569Y-149838494D01*
X35874625Y-149851614D02*
X35829390Y-149846576D01*
X35920007Y-149855095D02*
X35874625Y-149851614D01*
X35965482Y-149857015D02*
X35920007Y-149855095D01*
X36010995Y-149857372D02*
X35965482Y-149857015D01*
X36056494Y-149856165D02*
X36010995Y-149857372D01*
X36101925Y-149853396D02*
X36056494Y-149856165D01*
X36147234Y-149849067D02*
X36101925Y-149853396D01*
X36192367Y-149843185D02*
X36147234Y-149849067D01*
X36237271Y-149835756D02*
X36192367Y-149843185D01*
X36281894Y-149826788D02*
X36237271Y-149835756D01*
X36326183Y-149816293D02*
X36281894Y-149826788D01*
X36370084Y-149804283D02*
X36326183Y-149816293D01*
X36413548Y-149790771D02*
X36370084Y-149804283D01*
X36456521Y-149775775D02*
X36413548Y-149790771D01*
X36498954Y-149759311D02*
X36456521Y-149775775D01*
X36540796Y-149741399D02*
X36498954Y-149759311D01*
X36581999Y-149722060D02*
X36540796Y-149741399D01*
X36622512Y-149701317D02*
X36581999Y-149722060D01*
X36662289Y-149679195D02*
X36622512Y-149701317D01*
X36701283Y-149655719D02*
X36662289Y-149679195D01*
X36739447Y-149630918D02*
X36701283Y-149655719D01*
X36776737Y-149604820D02*
X36739447Y-149630918D01*
X36823794Y-149578879D02*
X36776737Y-149604820D01*
X36871651Y-149554447D02*
X36823794Y-149578879D01*
X36920260Y-149531546D02*
X36871651Y-149554447D01*
X36969572Y-149510200D02*
X36920260Y-149531546D01*
X37019537Y-149490432D02*
X36969572Y-149510200D01*
X37070104Y-149472260D02*
X37019537Y-149490432D01*
X37121223Y-149455702D02*
X37070104Y-149472260D01*
X37172842Y-149440777D02*
X37121223Y-149455702D01*
X37224908Y-149427498D02*
X37172842Y-149440777D01*
X37277371Y-149415880D02*
X37224908Y-149427498D01*
X37330175Y-149405933D02*
X37277371Y-149415880D01*
X37380432Y-149448215D02*
X37330175Y-149405933D01*
X37432100Y-149488761D02*
X37380432Y-149448215D01*
X37485119Y-149527523D02*
X37432100Y-149488761D01*
X37539428Y-149564456D02*
X37485119Y-149527523D01*
X37594963Y-149599517D02*
X37539428Y-149564456D01*
X37651661Y-149632667D02*
X37594963Y-149599517D01*
X37709455Y-149663865D02*
X37651661Y-149632667D01*
X37768279Y-149693076D02*
X37709455Y-149663865D01*
X37828064Y-149720266D02*
X37768279Y-149693076D01*
X37888740Y-149745404D02*
X37828064Y-149720266D01*
X37950237Y-149768459D02*
X37888740Y-149745404D01*
X38012485Y-149789407D02*
X37950237Y-149768459D01*
X38075409Y-149808221D02*
X38012485Y-149789407D01*
X38138939Y-149824881D02*
X38075409Y-149808221D01*
X38202998Y-149839367D02*
X38138939Y-149824881D01*
X38267515Y-149851662D02*
X38202998Y-149839367D01*
X38332412Y-149861752D02*
X38267515Y-149851662D01*
X38397616Y-149869625D02*
X38332412Y-149861752D01*
X38463050Y-149875272D02*
X38397616Y-149869625D01*
X38528638Y-149878687D02*
X38463050Y-149875272D01*
X38594305Y-149879865D02*
X38528638Y-149878687D01*
X38659974Y-149878805D02*
X38594305Y-149879865D01*
X38725568Y-149875509D02*
X38659974Y-149878805D01*
X38791013Y-149869980D02*
X38725568Y-149875509D01*
X38856230Y-149862224D02*
X38791013Y-149869980D01*
X38921146Y-149852252D02*
X38856230Y-149862224D01*
X38985684Y-149840073D02*
X38921146Y-149852252D01*
X39049770Y-149825703D02*
X38985684Y-149840073D01*
X39113329Y-149809157D02*
X39049770Y-149825703D01*
X39176288Y-149790456D02*
X39113329Y-149809157D01*
X39238573Y-149769621D02*
X39176288Y-149790456D01*
X39267302Y-149764128D02*
X39238573Y-149769621D01*
X39295824Y-149757645D02*
X39267302Y-149764128D01*
X39324105Y-149750181D02*
X39295824Y-149757645D01*
X39352111Y-149741744D02*
X39324105Y-149750181D01*
X39379809Y-149732344D02*
X39352111Y-149741744D01*
X39407166Y-149721992D02*
X39379809Y-149732344D01*
X39434149Y-149710702D02*
X39407166Y-149721992D01*
X39460725Y-149698486D02*
X39434149Y-149710702D01*
X39486863Y-149685359D02*
X39460725Y-149698486D01*
X39512533Y-149671337D02*
X39486863Y-149685359D01*
X39537702Y-149656436D02*
X39512533Y-149671337D01*
X39562341Y-149640674D02*
X39537702Y-149656436D01*
X39586422Y-149624070D02*
X39562341Y-149640674D01*
X39609914Y-149606644D02*
X39586422Y-149624070D01*
X39632790Y-149588417D02*
X39609914Y-149606644D01*
X39655022Y-149569410D02*
X39632790Y-149588417D01*
X39676584Y-149549647D02*
X39655022Y-149569410D01*
X39697451Y-149529150D02*
X39676584Y-149549647D01*
X39717597Y-149507944D02*
X39697451Y-149529150D01*
X39736998Y-149486055D02*
X39717597Y-149507944D01*
X39755631Y-149463509D02*
X39736998Y-149486055D01*
X39773474Y-149440332D02*
X39755631Y-149463509D01*
X39790506Y-149416553D02*
X39773474Y-149440332D01*
X39806705Y-149392199D02*
X39790506Y-149416553D01*
X39822054Y-149367300D02*
X39806705Y-149392199D01*
X39836533Y-149341885D02*
X39822054Y-149367300D01*
X39850125Y-149315986D02*
X39836533Y-149341885D01*
X39862814Y-149289632D02*
X39850125Y-149315986D01*
X39874585Y-149262856D02*
X39862814Y-149289632D01*
X39885424Y-149235688D02*
X39874585Y-149262856D01*
X39895318Y-149208163D02*
X39885424Y-149235688D01*
X39904254Y-149180312D02*
X39895318Y-149208163D01*
X39912223Y-149152169D02*
X39904254Y-149180312D01*
X39919215Y-149123767D02*
X39912223Y-149152169D01*
X40117750Y-147404066D02*
X39919215Y-149123767D01*
X40309609Y-145682960D02*
X40117750Y-147404066D01*
X40458598Y-145030780D02*
X40309609Y-145682960D01*
X40559717Y-145031807D02*
X40458598Y-145030780D01*
X40660741Y-145036303D02*
X40559717Y-145031807D01*
X40761551Y-145044262D02*
X40660741Y-145036303D01*
X40862029Y-145055676D02*
X40761551Y-145044262D01*
X40962056Y-145070530D02*
X40862029Y-145055676D01*
X41061514Y-145088807D02*
X40962056Y-145070530D01*
X41160287Y-145110485D02*
X41061514Y-145088807D01*
X41258258Y-145135540D02*
X41160287Y-145110485D01*
X41355312Y-145163942D02*
X41258258Y-145135540D01*
X41451334Y-145195656D02*
X41355312Y-145163942D01*
X41546212Y-145230647D02*
X41451334Y-145195656D01*
X41639833Y-145268871D02*
X41546212Y-145230647D01*
X41732087Y-145310286D02*
X41639833Y-145268871D01*
X41822867Y-145354841D02*
X41732087Y-145310286D01*
X41912064Y-145402485D02*
X41822867Y-145354841D01*
X41999574Y-145453161D02*
X41912064Y-145402485D01*
X42085294Y-145506810D02*
X41999574Y-145453161D01*
X42169122Y-145563368D02*
X42085294Y-145506810D01*
X42250961Y-145622768D02*
X42169122Y-145563368D01*
X42330714Y-145684942D02*
X42250961Y-145622768D01*
X42408286Y-145749816D02*
X42330714Y-145684942D01*
X42483587Y-145817312D02*
X42408286Y-145749816D01*
X42556528Y-145887353D02*
X42483587Y-145817312D01*
X42627023Y-145959855D02*
X42556528Y-145887353D01*
X42690367Y-146035337D02*
X42627023Y-145959855D01*
X42751051Y-146112974D02*
X42690367Y-146035337D01*
X42809000Y-146192672D02*
X42751051Y-146112974D01*
X42864146Y-146274336D02*
X42809000Y-146192672D01*
X42916421Y-146357866D02*
X42864146Y-146274336D01*
X42965763Y-146443161D02*
X42916421Y-146357866D01*
X43012112Y-146530120D02*
X42965763Y-146443161D01*
X43055411Y-146618636D02*
X43012112Y-146530120D01*
X43095609Y-146708603D02*
X43055411Y-146618636D01*
X43132658Y-146799913D02*
X43095609Y-146708603D01*
X43166511Y-146892454D02*
X43132658Y-146799913D01*
X43197130Y-146986116D02*
X43166511Y-146892454D01*
X43224476Y-147080785D02*
X43197130Y-146986116D01*
X43248516Y-147176346D02*
X43224476Y-147080785D01*
X43269222Y-147272686D02*
X43248516Y-147176346D01*
X43286568Y-147369686D02*
X43269222Y-147272686D01*
X43300534Y-147467231D02*
X43286568Y-147369686D01*
X43311103Y-147565202D02*
X43300534Y-147467231D01*
X43318261Y-147663480D02*
X43311103Y-147565202D01*
X43322001Y-147761949D02*
X43318261Y-147663480D01*
X43322318Y-147860487D02*
X43322001Y-147761949D01*
X43319211Y-147958978D02*
X43322318Y-147860487D01*
X43312684Y-148057301D02*
X43319211Y-147958978D01*
X43302746Y-148155337D02*
X43312684Y-148057301D01*
X44437383Y-148155337D02*
X43302746Y-148155337D01*
X45281070Y-148162716D02*
X44437383Y-148155337D01*
X48162465Y-148719318D02*
X45281070Y-148162716D01*
X50353731Y-149156095D02*
X48162465Y-148719318D01*
X51730476Y-149408393D02*
X50353731Y-149156095D01*
X53606194Y-149792462D02*
X51730476Y-149408393D01*
X54255586Y-150008413D02*
X53606194Y-149792462D01*
X54910483Y-150207047D02*
X54255586Y-150008413D01*
X55570423Y-150388223D02*
X54910483Y-150207047D01*
X56234940Y-150551815D02*
X55570423Y-150388223D01*
X56694598Y-150640399D02*
X56234940Y-150551815D01*
X57156852Y-150714240D02*
X56694598Y-150640399D01*
X57621232Y-150773264D02*
X57156852Y-150714240D01*
X58087261Y-150817409D02*
X57621232Y-150773264D01*
X58554463Y-150846631D02*
X58087261Y-150817409D01*
X59368282Y-150850847D02*
X58554463Y-150846631D01*
X59795923Y-150932370D02*
X59368282Y-150850847D01*
X59361957Y-152022029D02*
X59795923Y-150932370D01*
X60099875Y-152522057D02*
X59361957Y-152022029D01*
X61223971Y-152522057D02*
X60099875Y-152522057D01*
X61790411Y-151972132D02*
X61223971Y-152522057D01*
X61805872Y-151819277D02*
X61790411Y-151972132D01*
X61797940Y-151800945D02*
X61805872Y-151819277D01*
X61790641Y-151782352D02*
X61797940Y-151800945D01*
X61783982Y-151763520D02*
X61790641Y-151782352D01*
X61777972Y-151744471D02*
X61783982Y-151763520D01*
X61772617Y-151725228D02*
X61777972Y-151744471D01*
X61767924Y-151705813D02*
X61772617Y-151725228D01*
X61763899Y-151686248D02*
X61767924Y-151705813D01*
X61760545Y-151666557D02*
X61763899Y-151686248D01*
X61757868Y-151646763D02*
X61760545Y-151666557D01*
X61755869Y-151626888D02*
X61757868Y-151646763D01*
X61754552Y-151606957D02*
X61755869Y-151626888D01*
X61753918Y-151586993D02*
X61754552Y-151606957D01*
X61753968Y-151567018D02*
X61753918Y-151586993D01*
X61754701Y-151547057D02*
X61753968Y-151567018D01*
X61756118Y-151527133D02*
X61754701Y-151547057D01*
X61758215Y-151507269D02*
X61756118Y-151527133D01*
X61760992Y-151487488D02*
X61758215Y-151507269D01*
X61764443Y-151467814D02*
X61760992Y-151487488D01*
X61768566Y-151448270D02*
X61764443Y-151467814D01*
X61773356Y-151428878D02*
X61768566Y-151448270D01*
X61778807Y-151409661D02*
X61773356Y-151428878D01*
X61784912Y-151390643D02*
X61778807Y-151409661D01*
X61791664Y-151371844D02*
X61784912Y-151390643D01*
X61799056Y-151353288D02*
X61791664Y-151371844D01*
X61807079Y-151334995D02*
X61799056Y-151353288D01*
X61815724Y-151316988D02*
X61807079Y-151334995D01*
X61824980Y-151299288D02*
X61815724Y-151316988D01*
X61834836Y-151281914D02*
X61824980Y-151299288D01*
X61845281Y-151264888D02*
X61834836Y-151281914D01*
X61856303Y-151248230D02*
X61845281Y-151264888D01*
X61867888Y-151231958D02*
X61856303Y-151248230D01*
X61880024Y-151216093D02*
X61867888Y-151231958D01*
X61892696Y-151200653D02*
X61880024Y-151216093D01*
X61905888Y-151185655D02*
X61892696Y-151200653D01*
X61919587Y-151171117D02*
X61905888Y-151185655D01*
X61933775Y-151157057D02*
X61919587Y-151171117D01*
X61948436Y-151143491D02*
X61933775Y-151157057D01*
X61963552Y-151130435D02*
X61948436Y-151143491D01*
X61979107Y-151117904D02*
X61963552Y-151130435D01*
X62001440Y-151092480D02*
X61979107Y-151117904D01*
X62024634Y-151067839D02*
X62001440Y-151092480D01*
X62048660Y-151044009D02*
X62024634Y-151067839D01*
X62073490Y-151021018D02*
X62048660Y-151044009D01*
X62099096Y-150998894D02*
X62073490Y-151021018D01*
X62125447Y-150977663D02*
X62099096Y-150998894D01*
X62152511Y-150957349D02*
X62125447Y-150977663D01*
X62180257Y-150937977D02*
X62152511Y-150957349D01*
X62208653Y-150919570D02*
X62180257Y-150937977D01*
X62237664Y-150902149D02*
X62208653Y-150919570D01*
X62267256Y-150885734D02*
X62237664Y-150902149D01*
X62297395Y-150870347D02*
X62267256Y-150885734D01*
X62328044Y-150856003D02*
X62297395Y-150870347D01*
X62359168Y-150842721D02*
X62328044Y-150856003D01*
X62390730Y-150830516D02*
X62359168Y-150842721D01*
X62422693Y-150819402D02*
X62390730Y-150830516D01*
X62455019Y-150809393D02*
X62422693Y-150819402D01*
X62487669Y-150800500D02*
X62455019Y-150809393D01*
X62520605Y-150792735D02*
X62487669Y-150800500D01*
X62553789Y-150786105D02*
X62520605Y-150792735D01*
X62587181Y-150780619D02*
X62553789Y-150786105D01*
X62620742Y-150776283D02*
X62587181Y-150780619D01*
X62654432Y-150773103D02*
X62620742Y-150776283D01*
X62688212Y-150771082D02*
X62654432Y-150773103D01*
X62809363Y-150773100D02*
X62688212Y-150771082D01*
X62930515Y-150771071D02*
X62809363Y-150773100D01*
X63051531Y-150764997D02*
X62930515Y-150771071D01*
X63172277Y-150754884D02*
X63051531Y-150764997D01*
X63292617Y-150740745D02*
X63172277Y-150754884D01*
X63412419Y-150722594D02*
X63292617Y-150740745D01*
X63531547Y-150700453D02*
X63412419Y-150722594D01*
X63531547Y-148718615D02*
X63531547Y-150700453D01*
X63374827Y-148657825D02*
X63531547Y-148718615D01*
X61997379Y-148469831D02*
X63374827Y-148657825D01*
X61971661Y-148468063D02*
X61997379Y-148469831D01*
X61946018Y-148465411D02*
X61971661Y-148468063D01*
X61920482Y-148461879D02*
X61946018Y-148465411D01*
X61895082Y-148457472D02*
X61920482Y-148461879D01*
X61869849Y-148452193D02*
X61895082Y-148457472D01*
X61844812Y-148446050D02*
X61869849Y-148452193D01*
X61820001Y-148439050D02*
X61844812Y-148446050D01*
X61795446Y-148431201D02*
X61820001Y-148439050D01*
X61771175Y-148422512D02*
X61795446Y-148431201D01*
X61747217Y-148412994D02*
X61771175Y-148422512D01*
X61723600Y-148402658D02*
X61747217Y-148412994D01*
X61700353Y-148391515D02*
X61723600Y-148402658D01*
X61677503Y-148379580D02*
X61700353Y-148391515D01*
X61655076Y-148366867D02*
X61677503Y-148379580D01*
X61633100Y-148353390D02*
X61655076Y-148366867D01*
X61611601Y-148339165D02*
X61633100Y-148353390D01*
X61590603Y-148324209D02*
X61611601Y-148339165D01*
X61570132Y-148308541D02*
X61590603Y-148324209D01*
X61550211Y-148292177D02*
X61570132Y-148308541D01*
X61530866Y-148275139D02*
X61550211Y-148292177D01*
X61512117Y-148257445D02*
X61530866Y-148275139D01*
X61493988Y-148239117D02*
X61512117Y-148257445D01*
X61476500Y-148220177D02*
X61493988Y-148239117D01*
X61459673Y-148200646D02*
X61476500Y-148220177D01*
X61443528Y-148180549D02*
X61459673Y-148200646D01*
X61428083Y-148159908D02*
X61443528Y-148180549D01*
X61413357Y-148138748D02*
X61428083Y-148159908D01*
X61399368Y-148117095D02*
X61413357Y-148138748D01*
X61386131Y-148094973D02*
X61399368Y-148117095D01*
X61373663Y-148072409D02*
X61386131Y-148094973D01*
X61841011Y-148032702D02*
X61373663Y-148072409D01*
X62084492Y-148064393D02*
X61841011Y-148032702D01*
X62328921Y-148087670D02*
X62084492Y-148064393D01*
X62574006Y-148102506D02*
X62328921Y-148087670D01*
X62819458Y-148108884D02*
X62574006Y-148102506D01*
X63064984Y-148106796D02*
X62819458Y-148108884D01*
X63310291Y-148096244D02*
X63064984Y-148106796D01*
X63555090Y-148077242D02*
X63310291Y-148096244D01*
X63799087Y-148049811D02*
X63555090Y-148077242D01*
X64041994Y-148013984D02*
X63799087Y-148049811D01*
X64283521Y-147969804D02*
X64041994Y-148013984D01*
X64470460Y-147968749D02*
X64283521Y-147969804D01*
X66693000Y-148312408D02*
X64470460Y-147968749D01*
X68790796Y-148652202D02*
X66693000Y-148312408D01*
X72421706Y-149090737D02*
X68790796Y-148652202D01*
X72526253Y-149105534D02*
X72421706Y-149090737D01*
X72631248Y-149116717D02*
X72526253Y-149105534D01*
X72736566Y-149124271D02*
X72631248Y-149116717D01*
X72842083Y-149128189D02*
X72736566Y-149124271D01*
X72947671Y-149128464D02*
X72842083Y-149128189D01*
X73053207Y-149125098D02*
X72947671Y-149128464D01*
X73158563Y-149118093D02*
X73053207Y-149125098D01*
X73263615Y-149107458D02*
X73158563Y-149118093D01*
X73368238Y-149093207D02*
X73263615Y-149107458D01*
X73472307Y-149075355D02*
X73368238Y-149093207D01*
X73575699Y-149053924D02*
X73472307Y-149075355D01*
X73678289Y-149028940D02*
X73575699Y-149053924D01*
X73779957Y-149000432D02*
X73678289Y-149028940D01*
X73880581Y-148968434D02*
X73779957Y-149000432D01*
X73980042Y-148932984D02*
X73880581Y-148968434D01*
X74078220Y-148894125D02*
X73980042Y-148932984D01*
X74175000Y-148851903D02*
X74078220Y-148894125D01*
X74270266Y-148806368D02*
X74175000Y-148851903D01*
X74363905Y-148757574D02*
X74270266Y-148806368D01*
X74455804Y-148705579D02*
X74363905Y-148757574D01*
X74545856Y-148650445D02*
X74455804Y-148705579D01*
X75245087Y-148191836D02*
X74545856Y-148650445D01*
X75927966Y-147709216D02*
X75245087Y-148191836D01*
X76593669Y-147203166D02*
X75927966Y-147709216D01*
X77241392Y-146674299D02*
X76593669Y-147203166D01*
X77870354Y-146123251D02*
X77241392Y-146674299D01*
X78213662Y-145909606D02*
X77870354Y-146123251D01*
X79057348Y-145808406D02*
X78213662Y-145909606D01*
X81404280Y-145584922D02*
X79057348Y-145808406D01*
X83407553Y-145304513D02*
X81404280Y-145584922D01*
X84192787Y-145186700D02*
X83407553Y-145304513D01*
X84974158Y-145045517D02*
X84192787Y-145186700D01*
X85750970Y-144881088D02*
X84974158Y-145045517D01*
X85768208Y-144873503D02*
X85750970Y-144881088D01*
X85785696Y-144866514D02*
X85768208Y-144873503D01*
X85803413Y-144860129D02*
X85785696Y-144866514D01*
X85821338Y-144854355D02*
X85803413Y-144860129D01*
X85839452Y-144849200D02*
X85821338Y-144854355D01*
X85857731Y-144844669D02*
X85839452Y-144849200D01*
X85876155Y-144840767D02*
X85857731Y-144844669D01*
X85894702Y-144837500D02*
X85876155Y-144840767D01*
X85913350Y-144834871D02*
X85894702Y-144837500D01*
X85932077Y-144832883D02*
X85913350Y-144834871D01*
X85950862Y-144831538D02*
X85932077Y-144832883D01*
X85969681Y-144830839D02*
X85950862Y-144831538D01*
X85988514Y-144830785D02*
X85969681Y-144830839D01*
X86007337Y-144831378D02*
X85988514Y-144830785D01*
X86026129Y-144832615D02*
X86007337Y-144831378D01*
X86044867Y-144834497D02*
X86026129Y-144832615D01*
X86063530Y-144837020D02*
X86044867Y-144834497D01*
X86082095Y-144840182D02*
X86063530Y-144837020D01*
X86100541Y-144843979D02*
X86082095Y-144840182D01*
X86118846Y-144848406D02*
X86100541Y-144843979D01*
X86136988Y-144853458D02*
X86118846Y-144848406D01*
X86154947Y-144859130D02*
X86136988Y-144853458D01*
X86172700Y-144865414D02*
X86154947Y-144859130D01*
X86190227Y-144872304D02*
X86172700Y-144865414D01*
X86207507Y-144879791D02*
X86190227Y-144872304D01*
X86224521Y-144887866D02*
X86207507Y-144879791D01*
X86241247Y-144896519D02*
X86224521Y-144887866D01*
X86257667Y-144905742D02*
X86241247Y-144896519D01*
X86273761Y-144915522D02*
X86257667Y-144905742D01*
X86289510Y-144925849D02*
X86273761Y-144915522D01*
X86304896Y-144936709D02*
X86289510Y-144925849D01*
X86319899Y-144948091D02*
X86304896Y-144936709D01*
X86334504Y-144959981D02*
X86319899Y-144948091D01*
X86348693Y-144972365D02*
X86334504Y-144959981D01*
X86362448Y-144985228D02*
X86348693Y-144972365D01*
X86375754Y-144998555D02*
X86362448Y-144985228D01*
X86388595Y-145012331D02*
X86375754Y-144998555D01*
X86400955Y-145026539D02*
X86388595Y-145012331D01*
X86412822Y-145041163D02*
X86400955Y-145026539D01*
X86424179Y-145056185D02*
X86412822Y-145041163D01*
X86435015Y-145071588D02*
X86424179Y-145056185D01*
X86445316Y-145087354D02*
X86435015Y-145071588D01*
X86538083Y-145181878D02*
X86445316Y-145087354D01*
X86657260Y-145309799D02*
X86538083Y-145181878D01*
X86780638Y-145433673D02*
X86657260Y-145309799D01*
X86908081Y-145553362D02*
X86780638Y-145433673D01*
X87039446Y-145668731D02*
X86908081Y-145553362D01*
X87174588Y-145779653D02*
X87039446Y-145668731D01*
X87313355Y-145886005D02*
X87174588Y-145779653D01*
X87455594Y-145987667D02*
X87313355Y-145886005D01*
X87601145Y-146084526D02*
X87455594Y-145987667D01*
X87749847Y-146176476D02*
X87601145Y-146084526D01*
X87901534Y-146263413D02*
X87749847Y-146176476D01*
X88056037Y-146345240D02*
X87901534Y-146263413D01*
X88213185Y-146421866D02*
X88056037Y-146345240D01*
X88372802Y-146493207D02*
X88213185Y-146421866D01*
X88534710Y-146559182D02*
X88372802Y-146493207D01*
X88698729Y-146619718D02*
X88534710Y-146559182D01*
X88864677Y-146674748D02*
X88698729Y-146619718D01*
X89032368Y-146724211D02*
X88864677Y-146674748D01*
X89201617Y-146768051D02*
X89032368Y-146724211D01*
X89473252Y-146808359D02*
X89201617Y-146768051D01*
X89746077Y-146839620D02*
X89473252Y-146808359D01*
X90019789Y-146861799D02*
X89746077Y-146839620D01*
X90294087Y-146874873D02*
X90019789Y-146861799D01*
X90433410Y-146887066D02*
X90294087Y-146874873D01*
X90573060Y-146894651D02*
X90433410Y-146887066D01*
X90712884Y-146897622D02*
X90573060Y-146894651D01*
X90852729Y-146895974D02*
X90712884Y-146897622D01*
X90992444Y-146889710D02*
X90852729Y-146895974D01*
X91131876Y-146878836D02*
X90992444Y-146889710D01*
X91270873Y-146863364D02*
X91131876Y-146878836D01*
X91409283Y-146843311D02*
X91270873Y-146863364D01*
X91546956Y-146818699D02*
X91409283Y-146843311D01*
X91683741Y-146789555D02*
X91546956Y-146818699D01*
X91819489Y-146755911D02*
X91683741Y-146789555D01*
X91954052Y-146717802D02*
X91819489Y-146755911D01*
X92127996Y-146668337D02*
X91954052Y-146717802D01*
X92300197Y-146613112D02*
X92127996Y-146668337D01*
X92470466Y-146552188D02*
X92300197Y-146613112D01*
X92638613Y-146485632D02*
X92470466Y-146552188D01*
X92804452Y-146413517D02*
X92638613Y-146485632D01*
X92967800Y-146335925D02*
X92804452Y-146413517D01*
X93128476Y-146252940D02*
X92967800Y-146335925D01*
X93286301Y-146164655D02*
X93128476Y-146252940D01*
X93441101Y-146071167D02*
X93286301Y-146164655D01*
X93592705Y-145972580D02*
X93441101Y-146071167D01*
X93740945Y-145869004D02*
X93592705Y-145972580D01*
X93885656Y-145760552D02*
X93740945Y-145869004D01*
X94026679Y-145647345D02*
X93885656Y-145760552D01*
X94163856Y-145529508D02*
X94026679Y-145647345D01*
X94297037Y-145407172D02*
X94163856Y-145529508D01*
X94426073Y-145280473D02*
X94297037Y-145407172D01*
X94550822Y-145149550D02*
X94426073Y-145280473D01*
X94670892Y-145012940D02*
X94550822Y-145149550D01*
X94786434Y-144872479D02*
X94670892Y-145012940D01*
X94897325Y-144728318D02*
X94786434Y-144872479D01*
X95003446Y-144580610D02*
X94897325Y-144728318D01*
X95104683Y-144429514D02*
X95003446Y-144580610D01*
X95200930Y-144275190D02*
X95104683Y-144429514D01*
X95292082Y-144117804D02*
X95200930Y-144275190D01*
X95378043Y-143957523D02*
X95292082Y-144117804D01*
X95458721Y-143794519D02*
X95378043Y-143957523D01*
X95534029Y-143628966D02*
X95458721Y-143794519D01*
X95603888Y-143461041D02*
X95534029Y-143628966D01*
X95668222Y-143290922D02*
X95603888Y-143461041D01*
X95726963Y-143118793D02*
X95668222Y-143290922D01*
X95780048Y-142944835D02*
X95726963Y-143118793D01*
X95827421Y-142769236D02*
X95780048Y-142944835D01*
X95831744Y-142749438D02*
X95827421Y-142769236D01*
X95836755Y-142729802D02*
X95831744Y-142749438D01*
X95842446Y-142710353D02*
X95836755Y-142729802D01*
X95848812Y-142691114D02*
X95842446Y-142710353D01*
X95855844Y-142672109D02*
X95848812Y-142691114D01*
X95863534Y-142653360D02*
X95855844Y-142672109D01*
X95871873Y-142634890D02*
X95863534Y-142653360D01*
X95880851Y-142616722D02*
X95871873Y-142634890D01*
X95890455Y-142598878D02*
X95880851Y-142616722D01*
X95900676Y-142581380D02*
X95890455Y-142598878D01*
X95911500Y-142564248D02*
X95900676Y-142581380D01*
X95922915Y-142547504D02*
X95911500Y-142564248D01*
X95934906Y-142531167D02*
X95922915Y-142547504D01*
X95947459Y-142515259D02*
X95934906Y-142531167D01*
X95960558Y-142499797D02*
X95947459Y-142515259D01*
X95974189Y-142484801D02*
X95960558Y-142499797D01*
X95988333Y-142470289D02*
X95974189Y-142484801D01*
X96002975Y-142456279D02*
X95988333Y-142470289D01*
X96018096Y-142442788D02*
X96002975Y-142456279D01*
X96033678Y-142429831D02*
X96018096Y-142442788D01*
X96049701Y-142417426D02*
X96033678Y-142429831D01*
X96066148Y-142405586D02*
X96049701Y-142417426D01*
X96082996Y-142394326D02*
X96066148Y-142405586D01*
X96100227Y-142383660D02*
X96082996Y-142394326D01*
X96117819Y-142373601D02*
X96100227Y-142383660D01*
X96135751Y-142364162D02*
X96117819Y-142373601D01*
X96154001Y-142355352D02*
X96135751Y-142364162D01*
X96172547Y-142347184D02*
X96154001Y-142355352D01*
X96191366Y-142339667D02*
X96172547Y-142347184D01*
X96210435Y-142332810D02*
X96191366Y-142339667D01*
X98497279Y-141461715D02*
X96210435Y-142332810D01*
X99076018Y-141353136D02*
X98497279Y-141461715D01*
X99090306Y-141503388D02*
X99076018Y-141353136D01*
X99099745Y-141654022D02*
X99090306Y-141503388D01*
X99104323Y-141804882D02*
X99099745Y-141654022D01*
X99104038Y-141955811D02*
X99104323Y-141804882D01*
X99098888Y-142106653D02*
X99104038Y-141955811D01*
X99088880Y-142257250D02*
X99098888Y-142106653D01*
X99074023Y-142407447D02*
X99088880Y-142257250D01*
X99054334Y-142557087D02*
X99074023Y-142407447D01*
X99029832Y-142706014D02*
X99054334Y-142557087D01*
X99000543Y-142854075D02*
X99029832Y-142706014D01*
X98966498Y-143001114D02*
X99000543Y-142854075D01*
X98927732Y-143146980D02*
X98966498Y-143001114D01*
X99371537Y-143143818D02*
X98927732Y-143146980D01*
X102311614Y-142572809D02*
X99371537Y-143143818D01*
X102376229Y-142571088D02*
X102311614Y-142572809D01*
X102440748Y-142567175D02*
X102376229Y-142571088D01*
X102505097Y-142561075D02*
X102440748Y-142567175D01*
X102569201Y-142552793D02*
X102505097Y-142561075D01*
X102632988Y-142542341D02*
X102569201Y-142552793D01*
X102696383Y-142529730D02*
X102632988Y-142542341D01*
X102759314Y-142514975D02*
X102696383Y-142529730D01*
X102821708Y-142498092D02*
X102759314Y-142514975D01*
X102883492Y-142479101D02*
X102821708Y-142498092D01*
X102944597Y-142458024D02*
X102883492Y-142479101D01*
X103004951Y-142434885D02*
X102944597Y-142458024D01*
X103064484Y-142409711D02*
X103004951Y-142434885D01*
X103123129Y-142382531D02*
X103064484Y-142409711D01*
X103180818Y-142353377D02*
X103123129Y-142382531D01*
X103237484Y-142322281D02*
X103180818Y-142353377D01*
X103293062Y-142289279D02*
X103237484Y-142322281D01*
X103347488Y-142254411D02*
X103293062Y-142289279D01*
X103400699Y-142217715D02*
X103347488Y-142254411D01*
X103452634Y-142179234D02*
X103400699Y-142217715D01*
X103503233Y-142139013D02*
X103452634Y-142179234D01*
X103552437Y-142097098D02*
X103503233Y-142139013D01*
X103600191Y-142053536D02*
X103552437Y-142097098D01*
X103646439Y-142008379D02*
X103600191Y-142053536D01*
X103691127Y-141961679D02*
X103646439Y-142008379D01*
X103734205Y-141913488D02*
X103691127Y-141961679D01*
X103775622Y-141863864D02*
X103734205Y-141913488D01*
X103815331Y-141812862D02*
X103775622Y-141863864D01*
X103853286Y-141760542D02*
X103815331Y-141812862D01*
X103889443Y-141706963D02*
X103853286Y-141760542D01*
X103923761Y-141652189D02*
X103889443Y-141706963D01*
X103956200Y-141596281D02*
X103923761Y-141652189D01*
X103986723Y-141539304D02*
X103956200Y-141596281D01*
X104015295Y-141481324D02*
X103986723Y-141539304D01*
X104041882Y-141422408D02*
X104015295Y-141481324D01*
X104066454Y-141362623D02*
X104041882Y-141422408D01*
X104068563Y-141301130D02*
X104066454Y-141362623D01*
X105787912Y-138482634D02*
X104068563Y-141301130D01*
X106372625Y-137486444D02*
X105787912Y-138482634D01*
X105883842Y-137146650D02*
X106372625Y-137486444D01*
X105884334Y-137132558D02*
X105883842Y-137146650D01*
X105884341Y-137118458D02*
X105884334Y-137132558D01*
X105883863Y-137104366D02*
X105884341Y-137118458D01*
X105882901Y-137090299D02*
X105883863Y-137104366D01*
X105881455Y-137076273D02*
X105882901Y-137090299D01*
X105879528Y-137062305D02*
X105881455Y-137076273D01*
X105877121Y-137048411D02*
X105879528Y-137062305D01*
X105874238Y-137034609D02*
X105877121Y-137048411D01*
X105870881Y-137020914D02*
X105874238Y-137034609D01*
X105867056Y-137007343D02*
X105870881Y-137020914D01*
X105862765Y-136993911D02*
X105867056Y-137007343D01*
X105858016Y-136980635D02*
X105862765Y-136993911D01*
X105852812Y-136967530D02*
X105858016Y-136980635D01*
X105847161Y-136954612D02*
X105852812Y-136967530D01*
X105841068Y-136941896D02*
X105847161Y-136954612D01*
X105834542Y-136929397D02*
X105841068Y-136941896D01*
X105827589Y-136917130D02*
X105834542Y-136929397D01*
X105820219Y-136905109D02*
X105827589Y-136917130D01*
X105812440Y-136893349D02*
X105820219Y-136905109D01*
X105804260Y-136881864D02*
X105812440Y-136893349D01*
X105795690Y-136870667D02*
X105804260Y-136881864D01*
X105786741Y-136859771D02*
X105795690Y-136870667D01*
X105777421Y-136849189D02*
X105786741Y-136859771D01*
X105767743Y-136838935D02*
X105777421Y-136849189D01*
X105757718Y-136829019D02*
X105767743Y-136838935D01*
X105747358Y-136819454D02*
X105757718Y-136829019D01*
X105736675Y-136810252D02*
X105747358Y-136819454D01*
X105725682Y-136801422D02*
X105736675Y-136810252D01*
X105714391Y-136792976D02*
X105725682Y-136801422D01*
X105702817Y-136784923D02*
X105714391Y-136792976D01*
X105690972Y-136777273D02*
X105702817Y-136784923D01*
X105678872Y-136770035D02*
X105690972Y-136777273D01*
X105666529Y-136763217D02*
X105678872Y-136770035D01*
X105653959Y-136756828D02*
X105666529Y-136763217D01*
X105641177Y-136750876D02*
X105653959Y-136756828D01*
X105628198Y-136745367D02*
X105641177Y-136750876D01*
X105615036Y-136740307D02*
X105628198Y-136745367D01*
X105601709Y-136735703D02*
X105615036Y-136740307D01*
X105588231Y-136731561D02*
X105601709Y-136735703D01*
X105574618Y-136727884D02*
X105588231Y-136731561D01*
X105560887Y-136724678D02*
X105574618Y-136727884D01*
X105547054Y-136721946D02*
X105560887Y-136724678D01*
X105533135Y-136719692D02*
X105547054Y-136721946D01*
X105519147Y-136717918D02*
X105533135Y-136719692D01*
X105505106Y-136716626D02*
X105519147Y-136717918D01*
X105491029Y-136715818D02*
X105505106Y-136716626D01*
X105476933Y-136715495D02*
X105491029Y-136715818D01*
X105392490Y-136698956D02*
X105476933Y-136715495D01*
X105307546Y-136685227D02*
X105392490Y-136698956D01*
X105222193Y-136674321D02*
X105307546Y-136685227D01*
X105136526Y-136666252D02*
X105222193Y-136674321D01*
X105050638Y-136661028D02*
X105136526Y-136666252D01*
X104964624Y-136658655D02*
X105050638Y-136661028D01*
X104878578Y-136659136D02*
X104964624Y-136658655D01*
X104792596Y-136662470D02*
X104878578Y-136659136D01*
X104706772Y-136668652D02*
X104792596Y-136662470D01*
X104621200Y-136677678D02*
X104706772Y-136668652D01*
X104535974Y-136689536D02*
X104621200Y-136677678D01*
X104451189Y-136704213D02*
X104535974Y-136689536D01*
X104366936Y-136721694D02*
X104451189Y-136704213D01*
X104283310Y-136741959D02*
X104366936Y-136721694D01*
X104200402Y-136764986D02*
X104283310Y-136741959D01*
X104118303Y-136790750D02*
X104200402Y-136764986D01*
X104037103Y-136819222D02*
X104118303Y-136790750D01*
X103956892Y-136850371D02*
X104037103Y-136819222D01*
X103877758Y-136884162D02*
X103956892Y-136850371D01*
X103722795Y-136916841D02*
X103877758Y-136884162D01*
X102051235Y-136918247D02*
X103722795Y-136916841D01*
X101934109Y-136953777D02*
X102051235Y-136918247D01*
X101815878Y-136985437D02*
X101934109Y-136953777D01*
X101696670Y-137013192D02*
X101815878Y-136985437D01*
X101576614Y-137037013D02*
X101696670Y-137013192D01*
X101455839Y-137056874D02*
X101576614Y-137037013D01*
X101334477Y-137072753D02*
X101455839Y-137056874D01*
X101212659Y-137084632D02*
X101334477Y-137072753D01*
X101090515Y-137092500D02*
X101212659Y-137084632D01*
X100968179Y-137096348D02*
X101090515Y-137092500D01*
X100845783Y-137096171D02*
X100968179Y-137096348D01*
X100723459Y-137091970D02*
X100845783Y-137096171D01*
X100601339Y-137083750D02*
X100723459Y-137091970D01*
X100479555Y-137071518D02*
X100601339Y-137083750D01*
X100358239Y-137055289D02*
X100479555Y-137071518D01*
X100119294Y-137309343D02*
X100358239Y-137055289D01*
X98711627Y-137309343D02*
X100119294Y-137309343D01*
X98025363Y-138952793D02*
X98711627Y-137309343D01*
X95678431Y-138958415D02*
X98025363Y-138952793D01*
X95663262Y-138959331D02*
X95678431Y-138958415D01*
X95648069Y-138959734D02*
X95663262Y-138959331D01*
X95632872Y-138959621D02*
X95648069Y-138959734D01*
X95617688Y-138958994D02*
X95632872Y-138959621D01*
X95602533Y-138957854D02*
X95617688Y-138958994D01*
X95587426Y-138956201D02*
X95602533Y-138957854D01*
X95572383Y-138954038D02*
X95587426Y-138956201D01*
X95557422Y-138951366D02*
X95572383Y-138954038D01*
X95542561Y-138948190D02*
X95557422Y-138951366D01*
X95527815Y-138944512D02*
X95542561Y-138948190D01*
X95513202Y-138940338D02*
X95527815Y-138944512D01*
X95498739Y-138935671D02*
X95513202Y-138940338D01*
X95484442Y-138930517D02*
X95498739Y-138935671D01*
X95470328Y-138924882D02*
X95484442Y-138930517D01*
X95456413Y-138918772D02*
X95470328Y-138924882D01*
X95442712Y-138912195D02*
X95456413Y-138918772D01*
X95429242Y-138905158D02*
X95442712Y-138912195D01*
X95416018Y-138897668D02*
X95429242Y-138905158D01*
X95403055Y-138889736D02*
X95416018Y-138897668D01*
X95390368Y-138881369D02*
X95403055Y-138889736D01*
X95377972Y-138872577D02*
X95390368Y-138881369D01*
X95365880Y-138863371D02*
X95377972Y-138872577D01*
X95354107Y-138853761D02*
X95365880Y-138863371D01*
X95342666Y-138843758D02*
X95354107Y-138853761D01*
X95331570Y-138833373D02*
X95342666Y-138843758D01*
X95320832Y-138822618D02*
X95331570Y-138833373D01*
X95310465Y-138811506D02*
X95320832Y-138822618D01*
X95300479Y-138800050D02*
X95310465Y-138811506D01*
X95290887Y-138788261D02*
X95300479Y-138800050D01*
X95281700Y-138776155D02*
X95290887Y-138788261D01*
X95272928Y-138763745D02*
X95281700Y-138776155D01*
X94678025Y-137919005D02*
X95272928Y-138763745D01*
X94581699Y-137793815D02*
X94678025Y-137919005D01*
X94481064Y-137672062D02*
X94581699Y-137793815D01*
X94376243Y-137553894D02*
X94481064Y-137672062D01*
X94267362Y-137439456D02*
X94376243Y-137553894D01*
X94154555Y-137328886D02*
X94267362Y-137439456D01*
X94037959Y-137222319D02*
X94154555Y-137328886D01*
X93917717Y-137119885D02*
X94037959Y-137222319D01*
X93793973Y-137021708D02*
X93917717Y-137119885D01*
X93666879Y-136927908D02*
X93793973Y-137021708D01*
X93536591Y-136838600D02*
X93666879Y-136927908D01*
X93403265Y-136753892D02*
X93536591Y-136838600D01*
X93267066Y-136673887D02*
X93403265Y-136753892D01*
X93128158Y-136598682D02*
X93267066Y-136673887D01*
X92986710Y-136528370D02*
X93128158Y-136598682D01*
X92842896Y-136463035D02*
X92986710Y-136528370D01*
X92696890Y-136402758D02*
X92842896Y-136463035D01*
X92541380Y-136334469D02*
X92696890Y-136402758D01*
X92383599Y-136271607D02*
X92541380Y-136334469D01*
X92223734Y-136214247D02*
X92383599Y-136271607D01*
X92061980Y-136162458D02*
X92223734Y-136214247D01*
X91898528Y-136116302D02*
X92061980Y-136162458D01*
X91733576Y-136075835D02*
X91898528Y-136116302D01*
X91567322Y-136041105D02*
X91733576Y-136075835D01*
X91399964Y-136012154D02*
X91567322Y-136041105D01*
X91231704Y-135989016D02*
X91399964Y-136012154D01*
X91062744Y-135971720D02*
X91231704Y-135989016D01*
X90893286Y-135960286D02*
X91062744Y-135971720D01*
X90723534Y-135954728D02*
X90893286Y-135960286D01*
X90553691Y-135955052D02*
X90723534Y-135954728D01*
X90383961Y-135961259D02*
X90553691Y-135955052D01*
X90214548Y-135973340D02*
X90383961Y-135961259D01*
X90045655Y-135991281D02*
X90214548Y-135973340D01*
X89830032Y-136019195D02*
X90045655Y-135991281D01*
X89615394Y-136053876D02*
X89830032Y-136019195D01*
X89401952Y-136095291D02*
X89615394Y-136053876D01*
X89189919Y-136143399D02*
X89401952Y-136095291D01*
X88979504Y-136198151D02*
X89189919Y-136143399D01*
X88770915Y-136259495D02*
X88979504Y-136198151D01*
X88564358Y-136327368D02*
X88770915Y-136259495D01*
X88360039Y-136401704D02*
X88564358Y-136327368D01*
X88204987Y-136468710D02*
X88360039Y-136401704D01*
X88052314Y-136540971D02*
X88204987Y-136468710D01*
X87902197Y-136618403D02*
X88052314Y-136540971D01*
X87754811Y-136700915D02*
X87902197Y-136618403D01*
X87610328Y-136788411D02*
X87754811Y-136700915D01*
X87468917Y-136880789D02*
X87610328Y-136788411D01*
X87330743Y-136977942D02*
X87468917Y-136880789D01*
X87195966Y-137079755D02*
X87330743Y-136977942D01*
X87064744Y-137186111D02*
X87195966Y-137079755D01*
X86937230Y-137296886D02*
X87064744Y-137186111D01*
X86813573Y-137411949D02*
X86937230Y-137296886D01*
X86675618Y-137544157D02*
X86813573Y-137411949D01*
X86542303Y-137681043D02*
X86675618Y-137544157D01*
X86413788Y-137822444D02*
X86542303Y-137681043D01*
X86290224Y-137968192D02*
X86413788Y-137822444D01*
X86171759Y-138118114D02*
X86290224Y-137968192D01*
X86058533Y-138272031D02*
X86171759Y-138118114D01*
X85950681Y-138429760D02*
X86058533Y-138272031D01*
X85848332Y-138591114D02*
X85950681Y-138429760D01*
X85751607Y-138755901D02*
X85848332Y-138591114D01*
X85660621Y-138923925D02*
X85751607Y-138755901D01*
X85575482Y-139094987D02*
X85660621Y-138923925D01*
X85496292Y-139268881D02*
X85575482Y-139094987D01*
X85423145Y-139445403D02*
X85496292Y-139268881D01*
X85356127Y-139624342D02*
X85423145Y-139445403D01*
X85295319Y-139805485D02*
X85356127Y-139624342D01*
X85240792Y-139988618D02*
X85295319Y-139805485D01*
X85192612Y-140173521D02*
X85240792Y-139988618D01*
X85007430Y-140924440D02*
X85192612Y-140173521D01*
X83001346Y-140924792D02*
X85007430Y-140924440D01*
X82990769Y-140927151D02*
X83001346Y-140924792D01*
X82980117Y-140929144D02*
X82990769Y-140927151D01*
X82969403Y-140930769D02*
X82980117Y-140929144D01*
X82958639Y-140932023D02*
X82969403Y-140930769D01*
X82947839Y-140932905D02*
X82958639Y-140932023D01*
X82937014Y-140933415D02*
X82947839Y-140932905D01*
X82926178Y-140933551D02*
X82937014Y-140933415D01*
X82915344Y-140933313D02*
X82926178Y-140933551D01*
X82904525Y-140932702D02*
X82915344Y-140933313D01*
X82893733Y-140931718D02*
X82904525Y-140932702D01*
X82882981Y-140930363D02*
X82893733Y-140931718D01*
X82872282Y-140928638D02*
X82882981Y-140930363D01*
X82861650Y-140926545D02*
X82872282Y-140928638D01*
X82851096Y-140924087D02*
X82861650Y-140926545D01*
X82840632Y-140921266D02*
X82851096Y-140924087D01*
X82830273Y-140918087D02*
X82840632Y-140921266D01*
X82820029Y-140914552D02*
X82830273Y-140918087D01*
X82809913Y-140910666D02*
X82820029Y-140914552D01*
X82799937Y-140906434D02*
X82809913Y-140910666D01*
X82790113Y-140901860D02*
X82799937Y-140906434D01*
X82780452Y-140896950D02*
X82790113Y-140901860D01*
X82770967Y-140891710D02*
X82780452Y-140896950D01*
X82761667Y-140886146D02*
X82770967Y-140891710D01*
X82752565Y-140880265D02*
X82761667Y-140886146D01*
X82743671Y-140874073D02*
X82752565Y-140880265D01*
X82734996Y-140867579D02*
X82743671Y-140874073D01*
X82726550Y-140860789D02*
X82734996Y-140867579D01*
X82718344Y-140853712D02*
X82726550Y-140860789D01*
X82710386Y-140846357D02*
X82718344Y-140853712D01*
X82702686Y-140838731D02*
X82710386Y-140846357D01*
X82695254Y-140830845D02*
X82702686Y-140838731D01*
X82688098Y-140822707D02*
X82695254Y-140830845D01*
X82681227Y-140814327D02*
X82688098Y-140822707D01*
X82674649Y-140805715D02*
X82681227Y-140814327D01*
X82668371Y-140796882D02*
X82674649Y-140805715D01*
X82662402Y-140787837D02*
X82668371Y-140796882D01*
X82656749Y-140778592D02*
X82662402Y-140787837D01*
X82651417Y-140769158D02*
X82656749Y-140778592D01*
X82646414Y-140759545D02*
X82651417Y-140769158D01*
X82641745Y-140749766D02*
X82646414Y-140759545D01*
X82637417Y-140739831D02*
X82641745Y-140749766D01*
X82633433Y-140729753D02*
X82637417Y-140739831D01*
X82629799Y-140719544D02*
X82633433Y-140729753D01*
X82626519Y-140709216D02*
X82629799Y-140719544D01*
X82623598Y-140698780D02*
X82626519Y-140709216D01*
X82621037Y-140688250D02*
X82623598Y-140698780D01*
X82618842Y-140677638D02*
X82621037Y-140688250D01*
X82617013Y-140666957D02*
X82618842Y-140677638D01*
X82615554Y-140656219D02*
X82617013Y-140666957D01*
X82614466Y-140645437D02*
X82615554Y-140656219D01*
X82156957Y-139014989D02*
X82614466Y-140645437D01*
X81847382Y-137856106D02*
X82156957Y-139014989D01*
X81846812Y-137845000D02*
X81847382Y-137856106D01*
X81845857Y-137833920D02*
X81846812Y-137845000D01*
X81844517Y-137822880D02*
X81845857Y-137833920D01*
X81842795Y-137811893D02*
X81844517Y-137822880D01*
X81840692Y-137800973D02*
X81842795Y-137811893D01*
X81838211Y-137790133D02*
X81840692Y-137800973D01*
X81835355Y-137779385D02*
X81838211Y-137790133D01*
X81832127Y-137768743D02*
X81835355Y-137779385D01*
X81828531Y-137758219D02*
X81832127Y-137768743D01*
X81824572Y-137747827D02*
X81828531Y-137758219D01*
X81820255Y-137737579D02*
X81824572Y-137747827D01*
X81815584Y-137727486D02*
X81820255Y-137737579D01*
X81810565Y-137717563D02*
X81815584Y-137727486D01*
X81805205Y-137707819D02*
X81810565Y-137717563D01*
X81799509Y-137698267D02*
X81805205Y-137707819D01*
X81793485Y-137688920D02*
X81799509Y-137698267D01*
X81787140Y-137679787D02*
X81793485Y-137688920D01*
X81780481Y-137670880D02*
X81787140Y-137679787D01*
X81773517Y-137662209D02*
X81780481Y-137670880D01*
X81766256Y-137653786D02*
X81773517Y-137662209D01*
X81758707Y-137645620D02*
X81766256Y-137653786D01*
X81750879Y-137637721D02*
X81758707Y-137645620D01*
X81742781Y-137630099D02*
X81750879Y-137637721D01*
X81734423Y-137622763D02*
X81742781Y-137630099D01*
X81725815Y-137615722D02*
X81734423Y-137622763D01*
X81716968Y-137608984D02*
X81725815Y-137615722D01*
X81707892Y-137602557D02*
X81716968Y-137608984D01*
X81698598Y-137596450D02*
X81707892Y-137602557D01*
X81689098Y-137590669D02*
X81698598Y-137596450D01*
X81679403Y-137585221D02*
X81689098Y-137590669D01*
X81669524Y-137580114D02*
X81679403Y-137585221D01*
X81659474Y-137575353D02*
X81669524Y-137580114D01*
X81649265Y-137570944D02*
X81659474Y-137575353D01*
X81638908Y-137566892D02*
X81649265Y-137570944D01*
X81628418Y-137563203D02*
X81638908Y-137566892D01*
X81617805Y-137559880D02*
X81628418Y-137563203D01*
X81607083Y-137556927D02*
X81617805Y-137559880D01*
X81596265Y-137554350D02*
X81607083Y-137556927D01*
X81585364Y-137552149D02*
X81596265Y-137554350D01*
X81574393Y-137550328D02*
X81585364Y-137552149D01*
X81563366Y-137548890D02*
X81574393Y-137550328D01*
X81552295Y-137547835D02*
X81563366Y-137548890D01*
X81541195Y-137547166D02*
X81552295Y-137547835D01*
X81530077Y-137546883D02*
X81541195Y-137547166D01*
X79025723Y-137573940D02*
X81530077Y-137546883D01*
X52794835Y-137573940D02*
X79025723Y-137573940D01*
X51417739Y-137545829D02*
X52794835Y-137573940D01*
X42434111Y-137583779D02*
X51417739Y-137545829D01*
X42362606Y-137582064D02*
X42434111Y-137583779D01*
X42291085Y-137582793D02*
X42362606Y-137582064D01*
X42219630Y-137585964D02*
X42291085Y-137582793D01*
X42148325Y-137591573D02*
X42219630Y-137585964D01*
X42077254Y-137599614D02*
X42148325Y-137591573D01*
X42006498Y-137610078D02*
X42077254Y-137599614D01*
X41936141Y-137622951D02*
X42006498Y-137610078D01*
X41866265Y-137638221D02*
X41936141Y-137622951D01*
X41796951Y-137655867D02*
X41866265Y-137638221D01*
X41728280Y-137675871D02*
X41796951Y-137655867D01*
X41660332Y-137698208D02*
X41728280Y-137675871D01*
X41593187Y-137722852D02*
X41660332Y-137698208D01*
X41526923Y-137749775D02*
X41593187Y-137722852D01*
X41461616Y-137778946D02*
X41526923Y-137749775D01*
X41397344Y-137810330D02*
X41461616Y-137778946D01*
X41334182Y-137843890D02*
X41397344Y-137810330D01*
X41272202Y-137879588D02*
X41334182Y-137843890D01*
X41211478Y-137917382D02*
X41272202Y-137879588D01*
X41152079Y-137957228D02*
X41211478Y-137917382D01*
X41094076Y-137999078D02*
X41152079Y-137957228D01*
X41037537Y-138042886D02*
X41094076Y-137999078D01*
X40982526Y-138088599D02*
X41037537Y-138042886D01*
X40929109Y-138136163D02*
X40982526Y-138088599D01*
X40660647Y-138274260D02*
X40929109Y-138136163D01*
X40560492Y-138129872D02*
X40660647Y-138274260D01*
X40455413Y-137989028D02*
X40560492Y-138129872D01*
X40345534Y-137851896D02*
X40455413Y-137989028D01*
X40230986Y-137718639D02*
X40345534Y-137851896D01*
X40111906Y-137589416D02*
X40230986Y-137718639D01*
X39988435Y-137464381D02*
X40111906Y-137589416D01*
X39860722Y-137343683D02*
X39988435Y-137464381D01*
X39728918Y-137227466D02*
X39860722Y-137343683D01*
X39593180Y-137115869D02*
X39728918Y-137227466D01*
X39453671Y-137009024D02*
X39593180Y-137115869D01*
X39310556Y-136907060D02*
X39453671Y-137009024D01*
X39164006Y-136810097D02*
X39310556Y-136907060D01*
X39014197Y-136718251D02*
X39164006Y-136810097D01*
X38861305Y-136631631D02*
X39014197Y-136718251D01*
X38705515Y-136550342D02*
X38861305Y-136631631D01*
X38468385Y-136441683D02*
X38705515Y-136550342D01*
X38227724Y-136341089D02*
X38468385Y-136441683D01*
X37983806Y-136248672D02*
X38227724Y-136341089D01*
X37736908Y-136164540D02*
X37983806Y-136248672D01*
X37487311Y-136088787D02*
X37736908Y-136164540D01*
X37235300Y-136021500D02*
X37487311Y-136088787D01*
X37059230Y-135983100D02*
X37235300Y-136021500D01*
X36882011Y-135950404D02*
X37059230Y-135983100D01*
X36703830Y-135923445D02*
X36882011Y-135950404D01*
X36524871Y-135902252D02*
X36703830Y-135923445D01*
X36345321Y-135886847D02*
X36524871Y-135902252D01*
X36165367Y-135877245D02*
X36345321Y-135886847D01*
X35985198Y-135873458D02*
X36165367Y-135877245D01*
X35805000Y-135875488D02*
X35985198Y-135873458D01*
X35624961Y-135883334D02*
X35805000Y-135875488D01*
X35445270Y-135896988D02*
X35624961Y-135883334D01*
X35266113Y-135916435D02*
X35445270Y-135896988D01*
M02*
